JetBrainsMono-Regular.ufo
<glyph name="exclam" format="2">
  <advance width="600" height="975"/>
  <unicode hex="0021"/>
  <outline>
    <contour>
      <point x="247" y="720" type="line" name="at01"/>
      <point x="353" y="720" type="line"/>
      <point x="353" y="600" type="line"/>
      <point x="332" y="215" type="line"/>
      <point x="268" y="215" type="line"/>
      <point x="247" y="600" type="line"/>
    </contour>
    <contour>
      <point x="285" y="115" type="curve" smooth="yes" name="sv03"/>
      <point x="315" y="115" type="line" smooth="yes"/>
      <point x="352.561" y="115"/>
      <point x="375" y="90.0934"/>
      <point x="375" y="56" type="curve" smooth="yes" name="dh04"/>
      <point x="375" y="20.575"/>
      <point x="349.844" y="-5"/>
      <point x="315" y="-5" type="curve" smooth="yes" name="ab01"/>
      <point x="285" y="-5" type="line" smooth="yes"/>
      <point x="250.25" y="-5"/>
      <point x="225" y="20.25"/>
      <point x="225" y="55" type="curve" smooth="yes" name="dh03"/>
      <point x="225" y="89.75"/>
      <point x="250.25" y="115"/>
    </contour>
  </outline>
</glyph>
<glyph name="percent" format="2">
  <advance width="600" height="975"/>
  <unicode hex="0025"/>
  <outline>
    <contour>
      <point x="570" y="569" type="line" name="iv01"/>
      <point x="570" y="506" type="line"/>
      <point x="30" y="148" type="line" name="iv02"/>
      <point x="30" y="211" type="line"/>
    </contour>
    <contour>
      <point x="165" y="670" type="curve" smooth="yes" name="sv01"/>
      <point x="119" y="670"/>
      <point x="95" y="639"/>
      <point x="95" y="590" type="curve" smooth="yes"/>
      <point x="95" y="525" type="line" smooth="yes" name="dh02"/>
      <point x="95" y="476"/>
      <point x="119" y="445"/>
      <point x="165" y="445" type="curve" smooth="yes" name="dv04"/>
      <point x="216" y="445"/>
      <point x="235" y="481"/>
      <point x="235" y="525" type="curve" smooth="yes" name="dh03"/>
      <point x="235" y="590" type="line" smooth="yes"/>
      <point x="235" y="639"/>
      <point x="211" y="670"/>
    </contour>
    <contour>
      <point x="165" y="390" type="curve" smooth="yes" name="dv03"/>
      <point x="81" y="390"/>
      <point x="35" y="441"/>
      <point x="35" y="525" type="curve" smooth="yes" name="dh01"/>
      <point x="35" y="590" type="line" smooth="yes"/>
      <point x="35" y="674"/>
      <point x="81" y="725"/>
      <point x="165" y="725" type="curve" smooth="yes" name="at01"/>
      <point x="249" y="725"/>
      <point x="295" y="674"/>
      <point x="295" y="590" type="curve" smooth="yes"/>
      <point x="295" y="525" type="line" smooth="yes" name="dh04"/>
      <point x="295" y="441"/>
      <point x="249" y="390"/>
    </contour>
    <contour>
      <point x="435" y="275" type="curve" smooth="yes" name="dv01"/>
      <point x="389" y="275"/>
      <point x="365" y="244"/>
      <point x="365" y="195" type="curve" smooth="yes"/>
      <point x="365" y="130" type="line" smooth="yes" name="dh06"/>
      <point x="365" y="81"/>
      <point x="389" y="50"/>
      <point x="435" y="50" type="curve" smooth="yes" name="sv02"/>
      <point x="486" y="50"/>
      <point x="505" y="86"/>
      <point x="505" y="130" type="curve" smooth="yes" name="dh07"/>
      <point x="505" y="195" type="line" smooth="yes"/>
      <point x="505" y="244"/>
      <point x="481" y="275"/>
    </contour>
    <contour>
      <point x="435" y="-5" type="curve" smooth="yes" name="ab01"/>
      <point x="351" y="-5"/>
      <point x="305" y="46"/>
      <point x="305" y="130" type="curve" smooth="yes" name="dh05"/>
      <point x="305" y="195" type="line" smooth="yes"/>
      <point x="305" y="279"/>
      <point x="351" y="330"/>
      <point x="435" y="330" type="curve" smooth="yes" name="dv02"/>
      <point x="519" y="330"/>
      <point x="565" y="279"/>
      <point x="565" y="195" type="curve" smooth="yes"/>
      <point x="565" y="130" type="line" smooth="yes" name="dh08"/>
      <point x="565" y="46"/>
      <point x="519" y="-5"/>
    </contour>
  </outline>
</glyph>
<glyph name="parenright" format="2">
  <advance width="600" height="975"/>
  <unicode hex="0029"/>
  <outline>
    <contour>
      <point x="115" y="845" type="line"/>
      <point x="300" y="799"/>
      <point x="415" y="650"/>
      <point x="415" y="455" type="curve" smooth="yes"/>
      <point x="415" y="265" type="line" smooth="yes"/>
      <point x="415" y="66"/>
      <point x="304" y="-78"/>
      <point x="115" y="-125" type="curve"/>
      <point x="115" y="-36" type="line"/>
      <point x="244" y="-6"/>
      <point x="325" y="110"/>
      <point x="325" y="265" type="curve" smooth="yes"/>
      <point x="325" y="455" type="line" smooth="yes"/>
      <point x="325" y="612"/>
      <point x="243" y="730"/>
      <point x="115" y="760" type="curve"/>
    </contour>
  </outline>
</glyph>
<glyph name="asterisk" format="2">
  <advance width="600" height="975"/>
  <unicode hex="002A"/>
  <outline>
    <contour>
      <point x="256" y="610" type="line"/>
      <point x="344" y="610" type="line"/>
      <point x="344" y="515" type="line" smooth="yes"/>
      <point x="344" y="445"/>
      <point x="309" y="340"/>
      <point x="309" y="340" type="curve"/>
      <point x="291" y="340" type="line"/>
      <point x="290" y="341"/>
      <point x="256" y="445"/>
      <point x="256" y="515" type="curve" smooth="yes"/>
    </contour>
    <contour>
      <point x="252" y="348" type="line"/>
      <point x="300" y="386" type="line"/>
      <point x="347" y="348" type="line"/>
      <point x="327" y="300" type="line"/>
      <point x="273" y="300" type="line"/>
    </contour>
    <contour>
      <point x="34" y="387" type="line"/>
      <point x="64" y="470" type="line"/>
      <point x="153" y="438" type="line" smooth="yes"/>
      <point x="219" y="414"/>
      <point x="306" y="345"/>
      <point x="306" y="345" type="curve"/>
      <point x="300" y="328" type="line"/>
      <point x="298" y="327"/>
      <point x="189" y="331"/>
      <point x="123" y="355" type="curve" smooth="yes"/>
    </contour>
    <contour>
      <point x="535" y="470" type="line"/>
      <point x="565" y="387" type="line"/>
      <point x="476" y="355" type="line" smooth="yes"/>
      <point x="410" y="331"/>
      <point x="300" y="328"/>
      <point x="300" y="328" type="curve"/>
      <point x="293" y="345" type="line"/>
      <point x="294" y="346"/>
      <point x="380" y="414"/>
      <point x="446" y="438" type="curve" smooth="yes"/>
    </contour>
    <contour>
      <point x="181" y="94" type="line"/>
      <point x="109" y="144" type="line"/>
      <point x="163" y="222" type="line" smooth="yes"/>
      <point x="204" y="280"/>
      <point x="292" y="346"/>
      <point x="292" y="346" type="curve"/>
      <point x="307" y="335" type="line"/>
      <point x="307" y="334"/>
      <point x="276" y="229"/>
      <point x="235" y="172" type="curve"/>
    </contour>
    <contour>
      <point x="490" y="144" type="line"/>
      <point x="418" y="94" type="line"/>
      <point x="363" y="172" type="line" smooth="yes"/>
      <point x="323" y="229"/>
      <point x="291" y="335"/>
      <point x="291" y="335" type="curve"/>
      <point x="306" y="346" type="line"/>
      <point x="307" y="345"/>
      <point x="395" y="280"/>
      <point x="435" y="222" type="curve" smooth="yes"/>
    </contour>
  </outline>
</glyph>
<glyph name="plus" format="2">
  <advance width="600" height="975"/>
  <unicode hex="002B"/>
  <outline>
    <contour>
      <point x="344" y="565" type="line" name="av02"/>
      <point x="344" y="370" type="line"/>
      <point x="535" y="370" type="line" name="dv02"/>
      <point x="535" y="290" type="line" name="dv01"/>
      <point x="344" y="290" type="line"/>
      <point x="344" y="95" type="line" name="av01"/>
      <point x="256" y="95" type="line" name="dh01"/>
      <point x="256" y="290" type="line" name="sv01"/>
      <point x="65" y="290" type="line"/>
      <point x="65" y="370" type="line" name="sv02"/>
      <point x="256" y="370" type="line" name="sh01"/>
      <point x="256" y="565" type="line" name="mh01"/>
    </contour>
  </outline>
</glyph>
<glyph name="comma" format="2">
  <advance width="600" height="975"/>
  <unicode hex="002C"/>
  <outline>
    <contour>
      <point x="375" y="151" type="line" name="av02"/>
      <point x="245" y="-160" type="line" name="av01"/>
      <point x="165" y="-160" type="line"/>
      <point x="245" y="151" type="line"/>
    </contour>
  </outline>
</glyph>
<glyph name="period" format="2">
  <advance width="600" height="975"/>
  <unicode hex="002E"/>
  <outline>
    <contour>
      <point x="290" y="150" type="curve" smooth="yes"/>
      <point x="310" y="150" type="line" smooth="yes"/>
      <point x="353.304" y="150"/>
      <point x="385" y="116.191"/>
      <point x="385" y="70" type="curve" smooth="yes"/>
      <point x="385" y="23.9407"/>
      <point x="353.181" y="-10"/>
      <point x="310" y="-10" type="curve" smooth="yes"/>
      <point x="290" y="-10" type="line" smooth="yes"/>
      <point x="246.819" y="-10"/>
      <point x="215" y="23.9407"/>
      <point x="215" y="70" type="curve" smooth="yes"/>
      <point x="215" y="116.191"/>
      <point x="246.696" y="150"/>
    </contour>
  </outline>
</glyph>
<glyph name="one" format="2">
  <advance width="600" height="975"/>
  <unicode hex="0031"/>
  <outline>
    <contour>
      <point x="90" y="0" type="line"/>
      <point x="540" y="0" type="line" name="ab01"/>
      <point x="540" y="80" type="line"/>
      <point x="378" y="80" type="line" name="sv01"/>
      <point x="378" y="720" type="line"/>
      <point x="263" y="720" type="line" name="at01"/>
      <point x="93" y="605" type="line"/>
      <point x="93" y="509" type="line" name="iv01"/>
      <point x="249" y="610" type="line" smooth="yes"/>
      <point x="268" y="622"/>
      <point x="288" y="643"/>
      <point x="288" y="643" type="curve"/>
      <point x="296" y="643" type="line" name="sh01"/>
      <point x="296" y="642"/>
      <point x="288" y="600"/>
      <point x="288" y="570" type="curve" smooth="yes"/>
      <point x="288" y="80" type="line" name="sv03"/>
      <point x="90" y="80" type="line" name="sv02"/>
    </contour>
  </outline>
</glyph>
<glyph name="three" format="2">
  <advance width="600" height="975"/>
  <unicode hex="0033"/>
  <outline>
    <contour>
      <point x="294" y="-10" type="curve" smooth="yes" name="ab01"/>
      <point x="435" y="-10"/>
      <point x="524" y="75"/>
      <point x="524" y="210" type="curve" smooth="yes" name="dh02"/>
      <point x="524" y="344"/>
      <point x="431" y="430"/>
      <point x="288" y="430" type="curve" name="dv02"/>
      <point x="288" y="430"/>
      <point x="304" y="443"/>
      <point x="321" y="459" type="curve" smooth="yes"/>
      <point x="490" y="620" type="line"/>
      <point x="490" y="720" type="line" name="at01"/>
      <point x="90" y="720" type="line"/>
      <point x="90" y="640" type="line" name="sv01"/>
      <point x="341" y="640" type="line" smooth="yes"/>
      <point x="377" y="640"/>
      <point x="414" y="644"/>
      <point x="414" y="644" type="curve"/>
      <point x="414" y="642" type="line"/>
      <point x="414" y="642"/>
      <point x="374" y="615"/>
      <point x="349" y="590" type="curve" smooth="yes"/>
      <point x="206" y="445" type="line"/>
      <point x="206" y="350" type="line"/>
      <point x="290" y="350" type="line" smooth="yes" name="dv01"/>
      <point x="376" y="350"/>
      <point x="433" y="294"/>
      <point x="433" y="210" type="curve" smooth="yes" name="dh01"/>
      <point x="433" y="126"/>
      <point x="378" y="70"/>
      <point x="294" y="70" type="curve" smooth="yes" name="sv02"/>
      <point x="223" y="70"/>
      <point x="169" y="116"/>
      <point x="158" y="185" type="curve"/>
      <point x="68" y="185" type="line"/>
      <point x="79" y="67"/>
      <point x="169" y="-10"/>
    </contour>
  </outline>
</glyph>
<glyph name="seven" format="2">
  <advance width="600" height="975"/>
  <unicode hex="0037"/>
  <outline>
    <contour>
      <point x="171" y="0" type="line"/>
      <point x="272" y="0" type="line" name="ab01"/>
      <point x="525" y="618" type="line"/>
      <point x="525" y="720" type="line"/>
      <point x="75" y="720" type="line" name="at01"/>
      <point x="75" y="530" type="line" name="dh01"/>
      <point x="165" y="530" type="line" name="sv02"/>
      <point x="165" y="638" type="line" name="sv01"/>
      <point x="364" y="638" type="line" smooth="yes"/>
      <point x="390" y="638"/>
      <point x="445" y="640"/>
      <point x="445" y="640" type="curve"/>
      <point x="445" y="634" type="line"/>
      <point x="445" y="634"/>
      <point x="432" y="617"/>
      <point x="414" y="574" type="curve" smooth="yes"/>
    </contour>
  </outline>
</glyph>
<glyph name="nine" format="2">
  <advance width="600" height="975"/>
  <unicode hex="0039"/>
  <outline>
    <contour>
      <point x="180" y="0" type="line" name="ih01"/>
      <point x="289" y="0" type="line" name="ab01"/>
      <point x="425" y="227" type="line" smooth="yes"/>
      <point x="491" y="336"/>
      <point x="530" y="425"/>
      <point x="530" y="505" type="curve" smooth="yes" name="sh01"/>
      <point x="530" y="640"/>
      <point x="436" y="730"/>
      <point x="299" y="730" type="curve" smooth="yes" name="at01"/>
      <point x="166" y="730"/>
      <point x="70" y="638"/>
      <point x="70" y="505" type="curve" smooth="yes" name="sh02"/>
      <point x="70" y="372"/>
      <point x="154" y="284"/>
      <point x="271" y="284" type="curve" smooth="yes" name="dv01"/>
      <point x="362" y="284"/>
      <point x="386" y="340"/>
      <point x="386" y="340" type="curve"/>
      <point x="401" y="340" type="line" name="iv01"/>
      <point x="401" y="340"/>
      <point x="387" y="327"/>
      <point x="332" y="240" type="curve" smooth="yes"/>
    </contour>
    <contour>
      <point x="299" y="360" type="curve" smooth="yes" name="dv02"/>
      <point x="218" y="360"/>
      <point x="160" y="418"/>
      <point x="160" y="505" type="curve" smooth="yes" name="sh03"/>
      <point x="160" y="592"/>
      <point x="218" y="650"/>
      <point x="299" y="650" type="curve" smooth="yes" name="sv01"/>
      <point x="382" y="650"/>
      <point x="440" y="592"/>
      <point x="440" y="505" type="curve" smooth="yes" name="ah01"/>
      <point x="440" y="419"/>
      <point x="381" y="360"/>
    </contour>
  </outline>
</glyph>
<glyph name="colon" format="2">
  <advance width="600" height="975"/>
  <unicode hex="003A"/>
  <outline>
    <contour>
      <point x="290" y="-10" type="curve" smooth="yes"/>
      <point x="310" y="-10" type="line" smooth="yes"/>
      <point x="353.87" y="-10"/>
      <point x="385" y="21.1301"/>
      <point x="385" y="65" type="curve" smooth="yes"/>
      <point x="385" y="108.247"/>
      <point x="353.247" y="140"/>
      <point x="310" y="140" type="curve" smooth="yes"/>
      <point x="290" y="140" type="line" smooth="yes"/>
      <point x="246.753" y="140"/>
      <point x="215" y="108.247"/>
      <point x="215" y="65" type="curve" smooth="yes"/>
      <point x="215" y="21.1301"/>
      <point x="246.13" y="-10"/>
    </contour>
    <contour>
      <point x="290" y="410" type="curve" smooth="yes"/>
      <point x="310" y="410" type="line" smooth="yes"/>
      <point x="353.87" y="410"/>
      <point x="385" y="441.13"/>
      <point x="385" y="485" type="curve" smooth="yes"/>
      <point x="385" y="528.247"/>
      <point x="353.247" y="560"/>
      <point x="310" y="560" type="curve" smooth="yes"/>
      <point x="290" y="560" type="line" smooth="yes"/>
      <point x="246.753" y="560"/>
      <point x="215" y="528.247"/>
      <point x="215" y="485" type="curve" smooth="yes"/>
      <point x="215" y="441.13"/>
      <point x="246.13" y="410"/>
    </contour>
  </outline>
</glyph>
<glyph name="less" format="2">
  <advance width="600" height="975"/>
  <unicode hex="003C"/>
  <outline>
    <contour>
      <point x="515" y="65" type="line"/>
      <point x="515" y="156" type="line"/>
      <point x="205" y="310" type="line" smooth="yes"/>
      <point x="173" y="326"/>
      <point x="150" y="327"/>
      <point x="150" y="327" type="curve"/>
      <point x="150" y="334" type="line"/>
      <point x="150" y="334"/>
      <point x="173" y="338"/>
      <point x="205" y="354" type="curve" smooth="yes"/>
      <point x="515" y="505" type="line"/>
      <point x="515" y="595" type="line"/>
      <point x="85" y="380" type="line"/>
      <point x="85" y="280" type="line"/>
    </contour>
  </outline>
</glyph>
<glyph name="equal" format="2">
  <advance width="600" height="975"/>
  <unicode hex="003D"/>
  <outline>
    <contour>
      <point x="80" y="170" type="line"/>
      <point x="520" y="170" type="line" name="dv03"/>
      <point x="520" y="250" type="line" name="dv04"/>
      <point x="80" y="250" type="line"/>
    </contour>
    <contour>
      <point x="80" y="410" type="line"/>
      <point x="520" y="410" type="line" name="dv01"/>
      <point x="520" y="490" type="line" name="dv02"/>
      <point x="80" y="490" type="line"/>
    </contour>
  </outline>
</glyph>
<glyph name="question" format="2">
  <advance width="600" height="975"/>
  <unicode hex="003F"/>
  <outline>
    <contour>
      <point x="211" y="205" type="line" name="ih01"/>
      <point x="301" y="205" type="line" name="dv01"/>
      <point x="301" y="310" type="line" name="sv01"/>
      <point x="414" y="316"/>
      <point x="490" y="396"/>
      <point x="490" y="510" type="curve" smooth="yes" name="dh02"/>
      <point x="490" y="639"/>
      <point x="402" y="720"/>
      <point x="260" y="720" type="curve" smooth="yes"/>
      <point x="135" y="720" type="line" name="at01"/>
      <point x="135" y="635" type="line"/>
      <point x="260" y="635" type="line" smooth="yes" name="sv02"/>
      <point x="347" y="635"/>
      <point x="400" y="588"/>
      <point x="400" y="510" type="curve" smooth="yes" name="dh01"/>
      <point x="400" y="432"/>
      <point x="347" y="385"/>
      <point x="261" y="385" type="curve" smooth="yes" name="dv02"/>
      <point x="211" y="385" type="line"/>
    </contour>
    <contour>
      <point x="240" y="-5" type="curve" smooth="yes"/>
      <point x="270" y="-5" type="line" smooth="yes" name="ab01"/>
      <point x="304.844" y="-5"/>
      <point x="330" y="20.575"/>
      <point x="330" y="56" type="curve" smooth="yes" name="dh04"/>
      <point x="330" y="90.0934"/>
      <point x="307.561" y="115"/>
      <point x="270" y="115" type="curve" smooth="yes"/>
      <point x="240" y="115" type="line" smooth="yes" name="sv03"/>
      <point x="205.25" y="115"/>
      <point x="180" y="89.75"/>
      <point x="180" y="55" type="curve" smooth="yes" name="dh03"/>
      <point x="180" y="20.25"/>
      <point x="205.25" y="-5"/>
    </contour>
  </outline>
</glyph>
<glyph name="at" format="2">
  <advance width="600" height="975"/>
  <unicode hex="0040"/>
  <outline>
    <contour>
      <point x="395" y="-165" type="line" name="dv01"/>
      <point x="395" y="-90" type="line" name="dv02"/>
      <point x="325" y="-90" type="line" smooth="yes"/>
      <point x="205" y="-90"/>
      <point x="125" y="-4"/>
      <point x="125" y="125" type="curve" smooth="yes"/>
      <point x="125" y="440" type="line" smooth="yes" name="dh02"/>
      <point x="125" y="579"/>
      <point x="195" y="660"/>
      <point x="315" y="660" type="curve" smooth="yes" name="sv01"/>
      <point x="419" y="660"/>
      <point x="480" y="611"/>
      <point x="480" y="510" type="curve" smooth="yes" name="dh05"/>
      <point x="480" y="490" type="line" smooth="yes"/>
      <point x="480" y="454"/>
      <point x="483" y="419"/>
      <point x="484" y="402" type="curve" name="sh01"/>
      <point x="471" y="458"/>
      <point x="427" y="495"/>
      <point x="370" y="495" type="curve" smooth="yes" name="dv06"/>
      <point x="288" y="495"/>
      <point x="240" y="430"/>
      <point x="240" y="320" type="curve" smooth="yes"/>
      <point x="240" y="240" type="line" smooth="yes" name="dh03"/>
      <point x="240" y="129"/>
      <point x="287" y="65"/>
      <point x="370" y="65" type="curve" smooth="yes" name="dv03"/>
      <point x="432" y="65"/>
      <point x="472" y="102"/>
      <point x="488" y="173" type="curve" name="ih01"/>
      <point x="489" y="75" type="line"/>
      <point x="560" y="75" type="line"/>
      <point x="560" y="510" type="line" smooth="yes" name="dh06"/>
      <point x="560" y="653"/>
      <point x="467" y="730"/>
      <point x="315" y="730" type="curve" smooth="yes" name="at01"/>
      <point x="147" y="730"/>
      <point x="45" y="620"/>
      <point x="45" y="440" type="curve" smooth="yes" name="dh01"/>
      <point x="45" y="125" type="line" smooth="yes"/>
      <point x="45" y="-52"/>
      <point x="154" y="-165"/>
      <point x="325" y="-165" type="curve" smooth="yes"/>
    </contour>
    <contour>
      <point x="391" y="128" type="curve" smooth="yes" name="dv04"/>
      <point x="346" y="128"/>
      <point x="320" y="169"/>
      <point x="320" y="240" type="curve" smooth="yes" name="dh04"/>
      <point x="320" y="320" type="line" smooth="yes"/>
      <point x="320" y="391"/>
      <point x="346" y="432"/>
      <point x="391" y="432" type="curve" smooth="yes" name="dv05"/>
      <point x="451" y="432"/>
      <point x="480" y="392"/>
      <point x="480" y="311" type="curve" smooth="yes"/>
      <point x="480" y="250" type="line" smooth="yes" name="sh02"/>
      <point x="480" y="168"/>
      <point x="451" y="128"/>
    </contour>
  </outline>
</glyph>
<glyph name="A" format="2">
  <advance width="600" height="975"/>
  <unicode hex="0041"/>
  <outline>
    <contour>
      <point x="44" y="0" type="line"/>
      <point x="139" y="0" type="line" name="ab02"/>
      <point x="190" y="203" type="line"/>
      <point x="411" y="203" type="line" name="dv01"/>
      <point x="461" y="0" type="line"/>
      <point x="556" y="0" type="line" name="ab01"/>
      <point x="366" y="720" type="line"/>
      <point x="240" y="720" type="line" name="at01"/>
    </contour>
    <contour>
      <point x="209" y="278" type="line"/>
      <point x="280" y="563" type="line" smooth="yes"/>
      <point x="293.954" y="619.012"/>
      <point x="300" y="660"/>
      <point x="300" y="660" type="curve"/>
      <point x="304" y="660" type="line"/>
      <point x="304" y="660"/>
      <point x="309.232" y="619.057"/>
      <point x="323" y="563" type="curve" smooth="yes"/>
      <point x="393" y="278" type="line" name="dv02"/>
    </contour>
  </outline>
</glyph>
<glyph name="B" format="2">
  <advance width="600" height="975"/>
  <unicode hex="0042"/>
  <outline>
    <contour>
      <point x="90" y="0" type="line"/>
      <point x="312" y="0" type="line" smooth="yes" name="ab01"/>
      <point x="448" y="0"/>
      <point x="532" y="78"/>
      <point x="532" y="203" type="curve" smooth="yes" name="sh01"/>
      <point x="532" y="305"/>
      <point x="477" y="369"/>
      <point x="386" y="374" type="curve" name="iv01"/>
      <point x="386" y="380" type="line"/>
      <point x="466" y="386"/>
      <point x="519" y="445"/>
      <point x="519" y="530" type="curve" smooth="yes" name="dh03"/>
      <point x="519" y="647"/>
      <point x="436" y="720"/>
      <point x="301" y="720" type="curve" smooth="yes"/>
      <point x="90" y="720" type="line" name="at01"/>
    </contour>
    <contour>
      <point x="179" y="82" type="line" name="sv01"/>
      <point x="179" y="330" type="line" name="sh02"/>
      <point x="302" y="330" type="line" smooth="yes" name="dv01"/>
      <point x="386" y="330"/>
      <point x="437" y="283"/>
      <point x="437" y="206" type="curve" smooth="yes" name="ih01"/>
      <point x="437" y="129"/>
      <point x="387" y="82"/>
      <point x="302" y="82" type="curve" smooth="yes"/>
    </contour>
    <contour>
      <point x="179" y="408" type="line"/>
      <point x="179" y="638" type="line" name="dh01"/>
      <point x="301" y="638" type="line" smooth="yes" name="sv02"/>
      <point x="376" y="638"/>
      <point x="424" y="594"/>
      <point x="424" y="523" type="curve" smooth="yes" name="dh02"/>
      <point x="424" y="452"/>
      <point x="376" y="408"/>
      <point x="300" y="408" type="curve" smooth="yes" name="dv02"/>
    </contour>
  </outline>
</glyph>
<glyph name="E" format="2">
  <advance width="600" height="975"/>
  <unicode hex="0045"/>
  <outline>
    <contour>
      <point x="95" y="0" type="line"/>
      <point x="520" y="0" type="line" name="ab01"/>
      <point x="520" y="82" type="line"/>
      <point x="185" y="82" type="line" name="sv02"/>
      <point x="185" y="330" type="line" name="sh01"/>
      <point x="485" y="330" type="line" name="dv01"/>
      <point x="485" y="412" type="line" name="dv02"/>
      <point x="185" y="412" type="line"/>
      <point x="185" y="638" type="line" name="dh01"/>
      <point x="520" y="638" type="line" name="sv01"/>
      <point x="520" y="720" type="line"/>
      <point x="95" y="720" type="line" name="at01"/>
    </contour>
  </outline>
</glyph>
<glyph name="F" format="2">
  <advance width="600" height="975"/>
  <unicode hex="0046"/>
  <outline>
    <contour>
      <point x="95" y="0" type="line" name="dh01"/>
      <point x="185" y="0" type="line" name="ab01"/>
      <point x="185" y="328" type="line" name="dh02"/>
      <point x="499" y="328" type="line" name="dv01"/>
      <point x="499" y="408" type="line" name="dv02"/>
      <point x="183" y="408" type="line"/>
      <point x="183" y="641" type="line" name="sh01"/>
      <point x="525" y="641" type="line" name="sv01"/>
      <point x="525" y="721" type="line"/>
      <point x="95" y="721" type="line" name="at01"/>
    </contour>
  </outline>
</glyph>
<glyph name="G" format="2">
  <advance width="600" height="975"/>
  <unicode hex="0047"/>
  <outline>
    <contour>
      <point x="300" y="-10" type="curve" smooth="yes" name="ab01"/>
      <point x="435" y="-10"/>
      <point x="520" y="73"/>
      <point x="520" y="205" type="curve" smooth="yes"/>
      <point x="520" y="370" type="line" name="dv02"/>
      <point x="284" y="370" type="line" name="dh03"/>
      <point x="284" y="290" type="line"/>
      <point x="430" y="290" type="line" name="dv01"/>
      <point x="430" y="205" type="line" smooth="yes" name="sh02"/>
      <point x="430" y="121"/>
      <point x="380" y="70"/>
      <point x="300" y="70" type="curve" smooth="yes" name="sv02"/>
      <point x="220" y="70"/>
      <point x="170" y="121"/>
      <point x="170" y="205" type="curve" smooth="yes" name="dh02"/>
      <point x="170" y="515" type="line" smooth="yes"/>
      <point x="170" y="599"/>
      <point x="220" y="650"/>
      <point x="300" y="650" type="curve" smooth="yes" name="sv01"/>
      <point x="370" y="650"/>
      <point x="420" y="612"/>
      <point x="433" y="550" type="curve" name="sh03"/>
      <point x="525" y="550" type="line" name="sh01"/>
      <point x="501" y="666"/>
      <point x="421" y="730"/>
      <point x="300" y="730" type="curve" smooth="yes" name="at01"/>
      <point x="168" y="730"/>
      <point x="80" y="644"/>
      <point x="80" y="515" type="curve" smooth="yes"/>
      <point x="80" y="205" type="line" smooth="yes" name="dh01"/>
      <point x="80" y="74"/>
      <point x="166" y="-10"/>
    </contour>
  </outline>
</glyph>
<glyph name="H" format="2">
  <advance width="600" height="750"/>
  <unicode hex="0048"/>
  <outline>
    <contour>
      <point x="90" y="0" type="line" name="ab01"/>
      <point x="180" y="0" type="line" name="sh02"/>
      <point x="180" y="334" type="line" name="dv01"/>
      <point x="420" y="334" type="line" name="sh03"/>
      <point x="420" y="0" type="line" name="ab02"/>
      <point x="510" y="0" type="line"/>
      <point x="510" y="720" type="line" name="sh04"/>
      <point x="420" y="720" type="line" name="at01"/>
      <point x="420" y="416" type="line"/>
      <point x="180" y="416" type="line" name="dv02"/>
      <point x="180" y="720" type="line" name="at02"/>
      <point x="90" y="720" type="line" name="sh01"/>
    </contour>
  </outline>
</glyph>
<glyph name="I" format="2">
  <advance width="600" height="975"/>
  <unicode hex="0049"/>
  <outline>
    <contour>
      <point x="95" y="0" type="line"/>
      <point x="505" y="0" type="line" name="ab01"/>
      <point x="505" y="79" type="line"/>
      <point x="345" y="79" type="line" name="sv02"/>
      <point x="345" y="641" type="line"/>
      <point x="505" y="641" type="line" name="sv01"/>
      <point x="505" y="720" type="line"/>
      <point x="95" y="720" type="line" name="at01"/>
      <point x="95" y="641" type="line" name="sv06"/>
      <point x="255" y="641" type="line" name="sv05"/>
      <point x="255" y="79" type="line" name="sv04"/>
      <point x="95" y="79" type="line" name="sv03"/>
    </contour>
  </outline>
</glyph>
<glyph name="J" format="2">
  <advance width="600" height="975"/>
  <unicode hex="004A"/>
  <outline>
    <contour>
      <point x="270" y="-10" type="curve" smooth="yes" name="ab01"/>
      <point x="412" y="-10"/>
      <point x="500" y="73"/>
      <point x="500" y="205" type="curve" smooth="yes"/>
      <point x="500" y="720" type="line" name="at01"/>
      <point x="130" y="720" type="line"/>
      <point x="130" y="640" type="line" name="sv02"/>
      <point x="410" y="640" type="line" name="dh01"/>
      <point x="410" y="205" type="line" smooth="yes"/>
      <point x="410" y="123"/>
      <point x="355" y="70"/>
      <point x="270" y="70" type="curve" smooth="yes" name="sv01"/>
      <point x="201" y="70"/>
      <point x="147" y="112"/>
      <point x="135" y="175" type="curve"/>
      <point x="45" y="175" type="line"/>
      <point x="64" y="63"/>
      <point x="153" y="-10"/>
    </contour>
  </outline>
</glyph>
<glyph name="K" format="2">
  <advance width="600" height="975"/>
  <unicode hex="004B"/>
  <outline>
    <contour>
      <point x="90" y="0" type="line" name="ab01"/>
      <point x="180" y="0" type="line" name="dh01"/>
      <point x="180" y="335" type="line"/>
      <point x="295" y="335" type="line" name="dv01"/>
      <point x="468" y="0" type="line"/>
      <point x="575" y="0" type="line" name="ab02"/>
      <point x="374" y="378" type="line"/>
      <point x="565" y="720" type="line"/>
      <point x="459" y="720" type="line" name="at02"/>
      <point x="295" y="414" type="line" name="dv02"/>
      <point x="180" y="414" type="line"/>
      <point x="180" y="720" type="line" name="sh01"/>
      <point x="90" y="720" type="line" name="at01"/>
    </contour>
  </outline>
</glyph>
<glyph name="M" format="2">
  <advance width="600" height="975"/>
  <unicode hex="004D"/>
  <outline>
    <contour>
      <point x="75" y="0" type="line"/>
      <point x="163" y="0" type="line" name="ab02"/>
      <point x="163" y="505" type="line" smooth="yes" name="sh02"/>
      <point x="163" y="575"/>
      <point x="155" y="645"/>
      <point x="155" y="645" type="curve"/>
      <point x="162" y="645" type="line" name="sh03"/>
      <point x="162" y="645"/>
      <point x="176" y="591"/>
      <point x="203" y="505" type="curve" smooth="yes"/>
      <point x="262" y="320" type="line"/>
      <point x="340" y="320" type="line"/>
      <point x="399" y="505" type="line" smooth="yes"/>
      <point x="423" y="580"/>
      <point x="437" y="644"/>
      <point x="437" y="644" type="curve"/>
      <point x="447" y="644" type="line" name="sh01"/>
      <point x="447" y="644"/>
      <point x="437" y="575"/>
      <point x="437" y="505" type="curve" smooth="yes"/>
      <point x="437" y="0" type="line" name="ah01"/>
      <point x="525" y="0" type="line" name="ab01"/>
      <point x="525" y="720" type="line"/>
      <point x="408" y="720" type="line" name="at02"/>
      <point x="330" y="476" type="line" smooth="yes"/>
      <point x="317" y="436"/>
      <point x="306" y="380"/>
      <point x="306" y="380" type="curve"/>
      <point x="298" y="380" type="line"/>
      <point x="298" y="380"/>
      <point x="289" y="436"/>
      <point x="275" y="476" type="curve" smooth="yes"/>
      <point x="192" y="720" type="line"/>
      <point x="75" y="720" type="line" name="at01"/>
    </contour>
  </outline>
</glyph>
<glyph name="O" format="2">
  <advance width="600" height="750"/>
  <unicode hex="004F"/>
  <outline>
    <contour>
      <point x="300" y="70" type="curve" smooth="yes" name="sv02"/>
      <point x="221" y="70"/>
      <point x="170" y="123"/>
      <point x="170" y="205" type="curve" smooth="yes" name="sh02"/>
      <point x="170" y="515" type="line" smooth="yes"/>
      <point x="170" y="597"/>
      <point x="221" y="650"/>
      <point x="300" y="650" type="curve" smooth="yes" name="sv01"/>
      <point x="379" y="650"/>
      <point x="430" y="597"/>
      <point x="430" y="515" type="curve" smooth="yes" name="ah01"/>
      <point x="430" y="205" type="line" smooth="yes"/>
      <point x="430" y="123"/>
      <point x="379" y="70"/>
    </contour>
    <contour>
      <point x="300" y="-10" type="curve" smooth="yes" name="ab01"/>
      <point x="434" y="-10"/>
      <point x="520" y="75"/>
      <point x="520" y="205" type="curve" smooth="yes"/>
      <point x="520" y="515" type="line" smooth="yes" name="sh03"/>
      <point x="520" y="646"/>
      <point x="435" y="730"/>
      <point x="300" y="730" type="curve" smooth="yes" name="at01"/>
      <point x="165" y="730"/>
      <point x="80" y="646"/>
      <point x="80" y="515" type="curve" smooth="yes"/>
      <point x="80" y="205" type="line" smooth="yes" name="sh01"/>
      <point x="80" y="74"/>
      <point x="165" y="-10"/>
    </contour>
  </outline>
</glyph>
<glyph name="P" format="2">
  <advance width="600" height="975"/>
  <unicode hex="0050"/>
  <outline>
    <contour>
      <point x="90" y="0" type="line" name="sh01"/>
      <point x="180" y="0" type="line" name="ab01"/>
      <point x="180" y="300" type="line"/>
      <point x="333" y="300" type="line" smooth="yes" name="dv01"/>
      <point x="462" y="300"/>
      <point x="550" y="385"/>
      <point x="550" y="510" type="curve" smooth="yes" name="sh02"/>
      <point x="550" y="635"/>
      <point x="463" y="720"/>
      <point x="333" y="720" type="curve" smooth="yes"/>
      <point x="90" y="720" type="line" name="at01"/>
    </contour>
    <contour>
      <point x="180" y="380" type="line"/>
      <point x="180" y="640" type="line" name="sh03"/>
      <point x="333" y="640" type="line" smooth="yes" name="sv01"/>
      <point x="407" y="640"/>
      <point x="457" y="588"/>
      <point x="457" y="510" type="curve" smooth="yes" name="ah01"/>
      <point x="457" y="432"/>
      <point x="407" y="380"/>
      <point x="333" y="380" type="curve" smooth="yes" name="dv02"/>
    </contour>
  </outline>
</glyph>
<glyph name="R" format="2">
  <advance width="600" height="975"/>
  <unicode hex="0052"/>
  <outline>
    <contour>
      <point x="90" y="0" type="line"/>
      <point x="180" y="0" type="line" name="ab02"/>
      <point x="180" y="300" type="line" name="sh04"/>
      <point x="301" y="300" type="line" name="dv01"/>
      <point x="441" y="0" type="line" name="sh02"/>
      <point x="547" y="0" type="line" name="ab01"/>
      <point x="394" y="310" type="line"/>
      <point x="482" y="337"/>
      <point x="537" y="411"/>
      <point x="537" y="510" type="curve" smooth="yes" name="sh01"/>
      <point x="537" y="635"/>
      <point x="450" y="720"/>
      <point x="320" y="720" type="curve" smooth="yes"/>
      <point x="90" y="720" type="line" name="at01"/>
    </contour>
    <contour>
      <point x="180" y="380" type="line"/>
      <point x="180" y="640" type="line" name="sh03"/>
      <point x="320" y="640" type="line" smooth="yes" name="sv01"/>
      <point x="394" y="640"/>
      <point x="444" y="588"/>
      <point x="444" y="510" type="curve" smooth="yes" name="ah01"/>
      <point x="444" y="432"/>
      <point x="395" y="380"/>
      <point x="320" y="380" type="curve" smooth="yes" name="dv02"/>
    </contour>
  </outline>
</glyph>
<glyph name="T" format="2">
  <advance width="600" height="975"/>
  <unicode hex="0054"/>
  <outline>
    <contour>
      <point x="255" y="0" type="line" name="dh01"/>
      <point x="345" y="0" type="line" name="ab01"/>
      <point x="345" y="638" type="line"/>
      <point x="555" y="638" type="line" name="sv01"/>
      <point x="555" y="720" type="line"/>
      <point x="45" y="720" type="line" name="at01"/>
      <point x="45" y="638" type="line" name="sv03"/>
      <point x="255" y="638" type="line" name="sv02"/>
    </contour>
  </outline>
</glyph>
<glyph name="V" format="2">
  <advance width="600" height="975"/>
  <unicode hex="0056"/>
  <outline>
    <contour>
      <point x="234" y="0" type="line"/>
      <point x="360" y="0" type="line" name="ab01"/>
      <point x="556" y="720" type="line"/>
      <point x="462" y="720" type="line" name="at01"/>
      <point x="321" y="157" type="line" smooth="yes"/>
      <point x="307" y="101"/>
      <point x="301" y="60"/>
      <point x="301" y="60" type="curve"/>
      <point x="297" y="60" type="line"/>
      <point x="297" y="60"/>
      <point x="292" y="101"/>
      <point x="278" y="157" type="curve" smooth="yes"/>
      <point x="140" y="720" type="line"/>
      <point x="44" y="720" type="line" name="at02"/>
    </contour>
  </outline>
</glyph>
<glyph name="W" format="2">
  <advance width="600" height="975"/>
  <unicode hex="0057"/>
  <outline>
    <contour>
      <point x="95" y="0" type="line"/>
      <point x="223" y="0" type="line" name="ab02"/>
      <point x="287" y="529" type="line" smooth="yes"/>
      <point x="296" y="606"/>
      <point x="293" y="660"/>
      <point x="293" y="660" type="curve"/>
      <point x="310" y="660" type="line"/>
      <point x="310" y="660"/>
      <point x="306" y="606"/>
      <point x="315" y="529" type="curve" smooth="yes"/>
      <point x="374" y="0" type="line"/>
      <point x="502" y="0" type="line" name="ab01"/>
      <point x="575" y="720" type="line"/>
      <point x="493" y="720" type="line" name="at02"/>
      <point x="446" y="194" type="line" smooth="yes"/>
      <point x="441" y="134"/>
      <point x="437" y="55"/>
      <point x="437" y="55" type="curve" name="mh04"/>
      <point x="423" y="55" type="line" name="mh03"/>
      <point x="423" y="55"/>
      <point x="418" y="135"/>
      <point x="411" y="194" type="curve" smooth="yes"/>
      <point x="345" y="720" type="line" name="at01"/>
      <point x="257" y="720" type="line" name="mh05"/>
      <point x="188" y="194" type="line" smooth="yes"/>
      <point x="180" y="134"/>
      <point x="177" y="55"/>
      <point x="177" y="55" type="curve" name="mh01"/>
      <point x="164" y="55" type="line" name="mh02"/>
      <point x="164" y="55"/>
      <point x="164" y="134"/>
      <point x="159" y="194" type="curve" smooth="yes"/>
      <point x="111" y="720" type="line"/>
      <point x="25" y="720" type="line" name="at03"/>
    </contour>
  </outline>
</glyph>
<glyph name="Y" format="2">
  <advance width="600" height="975"/>
  <unicode hex="0059"/>
  <outline>
    <contour>
      <point x="255" y="0" type="line" name="dh01"/>
      <point x="345" y="0" type="line" name="ab01"/>
      <point x="345" y="250" type="line"/>
      <point x="570" y="720" type="line"/>
      <point x="474" y="720" type="line" name="at01"/>
      <point x="331" y="403" type="line" smooth="yes"/>
      <point x="315" y="367"/>
      <point x="304" y="324"/>
      <point x="304" y="324" type="curve"/>
      <point x="300" y="324" type="line"/>
      <point x="300" y="324"/>
      <point x="290" y="367"/>
      <point x="273" y="403" type="curve" smooth="yes"/>
      <point x="125" y="720" type="line"/>
      <point x="30" y="720" type="line" name="at02"/>
      <point x="255" y="250" type="line"/>
    </contour>
  </outline>
</glyph>
<glyph name="bracketleft" format="2">
  <advance width="600" height="975"/>
  <unicode hex="005B"/>
  <outline>
    <contour>
      <point x="210" y="830" type="line" name="dh01"/>
      <point x="455" y="830" type="line" name="dv04"/>
      <point x="455" y="750" type="line" name="dv03"/>
      <point x="300" y="750" type="line" name="dh02"/>
      <point x="300" y="-30" type="line"/>
      <point x="455" y="-30" type="line" name="dv02"/>
      <point x="455" y="-110" type="line" name="dv01"/>
      <point x="210" y="-110" type="line"/>
    </contour>
  </outline>
</glyph>
<glyph name="asciicircum" format="2">
  <advance width="600" height="975"/>
  <unicode hex="005E"/>
  <outline>
    <contour>
      <point x="305" y="660" type="curve"/>
      <point x="299" y="660" type="line"/>
      <point x="299" y="660"/>
      <point x="293" y="625"/>
      <point x="278" y="590" type="curve" smooth="yes"/>
      <point x="163" y="330" type="line" name="av01"/>
      <point x="80" y="330" type="line"/>
      <point x="259" y="720" type="line" name="at01"/>
      <point x="343" y="720" type="line"/>
      <point x="520" y="330" type="line" name="av02"/>
      <point x="438" y="330" type="line"/>
      <point x="325" y="590" type="line" smooth="yes"/>
      <point x="310" y="625"/>
      <point x="305" y="660"/>
    </contour>
  </outline>
</glyph>
<glyph name="grave" format="2">
  <advance width="600" height="975"/>
  <unicode hex="0060"/>
  <outline>
    <contour>
      <point x="180" y="785" type="line" name="av01"/>
      <point x="300" y="645" type="line"/>
      <point x="395" y="645" type="line" name="av02"/>
      <point x="280" y="785" type="line"/>
    </contour>
  </outline>
</glyph>
<glyph name="a" format="2">
  <advance width="600" height="975"/>
  <unicode hex="0061"/>
  <outline>
    <contour>
      <point x="241" y="-10" type="curve" smooth="yes" name="ab01"/>
      <point x="332" y="-10"/>
      <point x="403" y="35"/>
      <point x="420" y="105" type="curve" name="sh03"/>
      <point x="428" y="105" type="line"/>
      <point x="428" y="0" type="line" name="sh06"/>
      <point x="510" y="0" type="line" name="ab02"/>
      <point x="510" y="380" type="line" smooth="yes" name="sh02"/>
      <point x="510" y="492"/>
      <point x="427" y="560"/>
      <point x="292" y="560" type="curve" smooth="yes" name="at01"/>
      <point x="180.741" y="560"/>
      <point x="95.2862" y="502.367"/>
      <point x="77" y="415" type="curve"/>
      <point x="167" y="415" type="line" name="sv03"/>
      <point x="180.103" y="456.324"/>
      <point x="228.355" y="483"/>
      <point x="290" y="483" type="curve" smooth="yes" name="sv01"/>
      <point x="373" y="483"/>
      <point x="420" y="443"/>
      <point x="420" y="375" type="curve" smooth="yes" name="ah01"/>
      <point x="420" y="325" type="line" name="dv02"/>
      <point x="255" y="325" type="line" smooth="yes" name="mv01"/>
      <point x="135.695" y="325"/>
      <point x="60" y="260.95"/>
      <point x="60" y="160" type="curve" smooth="yes" name="sh01"/>
      <point x="60" y="56.8425"/>
      <point x="131.168" y="-10"/>
    </contour>
    <contour>
      <point x="261" y="64" type="curve" smooth="yes" name="sv02"/>
      <point x="190.85" y="64"/>
      <point x="150" y="99.434"/>
      <point x="150" y="160.272" type="curve" smooth="yes" name="sh05"/>
      <point x="150" y="220.209"/>
      <point x="189.651" y="255"/>
      <point x="257" y="255" type="curve" smooth="yes" name="mv02"/>
      <point x="420" y="255" type="line" name="dv01"/>
      <point x="420" y="185" type="line" smooth="yes" name="sh04"/>
      <point x="420" y="116"/>
      <point x="351" y="64"/>
    </contour>
  </outline>
</glyph>
<glyph name="c" format="2">
  <advance width="600" height="975"/>
  <unicode hex="0063"/>
  <outline>
    <contour>
      <point x="307" y="-10" type="curve" smooth="yes" name="ab01"/>
      <point x="437.2" y="-10"/>
      <point x="526" y="66"/>
      <point x="529" y="180" type="curve"/>
      <point x="439" y="180" type="line"/>
      <point x="435.09" y="109.623"/>
      <point x="387.543" y="70"/>
      <point x="307" y="70" type="curve" smooth="yes" name="sv02"/>
      <point x="224.693" y="70"/>
      <point x="178" y="121.362"/>
      <point x="178" y="210" type="curve" smooth="yes"/>
      <point x="178" y="341" type="line" smooth="yes" name="dh02"/>
      <point x="178" y="429.175"/>
      <point x="226.168" y="480"/>
      <point x="307" y="480" type="curve" smooth="yes" name="sv01"/>
      <point x="385.826" y="480"/>
      <point x="435.06" y="438.95"/>
      <point x="439" y="370" type="curve"/>
      <point x="529" y="370" type="line"/>
      <point x="526" y="484"/>
      <point x="437.2" y="560"/>
      <point x="307" y="560" type="curve" smooth="yes" name="at01"/>
      <point x="175.3" y="560"/>
      <point x="88" y="472.301"/>
      <point x="88" y="340" type="curve" smooth="yes" name="dh01"/>
      <point x="88" y="210" type="line" smooth="yes"/>
      <point x="88" y="78"/>
      <point x="175.6" y="-10"/>
    </contour>
  </outline>
</glyph>
<glyph name="d" format="2">
  <advance width="600" height="975"/>
  <unicode hex="0064"/>
  <outline>
    <contour>
      <point x="265" y="-10" type="curve" smooth="yes" name="ab01"/>
      <point x="346" y="-10"/>
      <point x="402" y="29"/>
      <point x="419" y="95" type="curve"/>
      <point x="427" y="95" type="line"/>
      <point x="427" y="0" type="line" name="sh01"/>
      <point x="512" y="0" type="line"/>
      <point x="512" y="720" type="line" name="dh03"/>
      <point x="422" y="720" type="line" name="at01"/>
      <point x="422" y="550" type="line" smooth="yes"/>
      <point x="422" y="515"/>
      <point x="427" y="455"/>
      <point x="427" y="455" type="curve"/>
      <point x="419" y="455" type="line"/>
      <point x="402" y="521"/>
      <point x="346" y="560"/>
      <point x="265" y="560" type="curve" smooth="yes" name="at02"/>
      <point x="154" y="560"/>
      <point x="80" y="478"/>
      <point x="80" y="345" type="curve" smooth="yes" name="dh01"/>
      <point x="80" y="205" type="line" smooth="yes"/>
      <point x="80" y="72"/>
      <point x="154" y="-10"/>
    </contour>
    <contour>
      <point x="299" y="68" type="curve" smooth="yes" name="sv01"/>
      <point x="219" y="68"/>
      <point x="170" y="121"/>
      <point x="170" y="205" type="curve" smooth="yes"/>
      <point x="170" y="345" type="line" smooth="yes" name="dh02"/>
      <point x="170" y="431"/>
      <point x="218" y="482"/>
      <point x="299" y="482" type="curve" smooth="yes" name="sv02"/>
      <point x="373" y="482"/>
      <point x="422" y="428"/>
      <point x="422" y="345" type="curve" smooth="yes"/>
      <point x="422" y="205" type="line" smooth="yes" name="sh02"/>
      <point x="422" y="122"/>
      <point x="373" y="68"/>
    </contour>
  </outline>
</glyph>
<glyph name="f" format="2">
  <advance width="600" height="975"/>
  <unicode hex="0066"/>
  <outline>
    <contour>
      <point x="220" y="0" type="line" name="dh01"/>
      <point x="310" y="0" type="line" name="ab01"/>
      <point x="310" y="413" type="line"/>
      <point x="535" y="413" type="line" name="dv01"/>
      <point x="535" y="495" type="line" name="dv02"/>
      <point x="310" y="495" type="line" name="mv02"/>
      <point x="310" y="580" type="line" smooth="yes" name="sh01"/>
      <point x="310" y="618"/>
      <point x="333" y="638"/>
      <point x="374" y="638" type="curve" smooth="yes"/>
      <point x="535" y="638" type="line" name="sv01"/>
      <point x="535" y="720" type="line" name="at01"/>
      <point x="374" y="720" type="line" smooth="yes"/>
      <point x="278" y="720"/>
      <point x="220" y="667"/>
      <point x="220" y="580" type="curve" smooth="yes"/>
      <point x="220" y="495" type="line" name="sh02"/>
      <point x="60" y="495" type="line" name="sv03"/>
      <point x="60" y="413" type="line" name="mv01"/>
      <point x="220" y="413" type="line" name="sv02"/>
    </contour>
  </outline>
</glyph>
<glyph name="g" format="2">
  <advance width="600" height="975"/>
  <unicode hex="0067"/>
  <outline>
    <contour>
      <point x="160" y="-170" type="line" name="ab01"/>
      <point x="300" y="-170" type="line" smooth="yes"/>
      <point x="427.2" y="-170"/>
      <point x="512" y="-90"/>
      <point x="512" y="30" type="curve" smooth="yes" name="sh05"/>
      <point x="512" y="550" type="line"/>
      <point x="427" y="550" type="line" name="sh01"/>
      <point x="427" y="450" type="line"/>
      <point x="420" y="450" type="line" name="sh02"/>
      <point x="400" y="520"/>
      <point x="341" y="560"/>
      <point x="261" y="560" type="curve" smooth="yes" name="at01"/>
      <point x="146" y="560"/>
      <point x="73" y="478"/>
      <point x="73" y="350" type="curve" smooth="yes" name="sh03"/>
      <point x="73" y="255" type="line" smooth="yes"/>
      <point x="73" y="127"/>
      <point x="147" y="45"/>
      <point x="261" y="45" type="curve" smooth="yes" name="dv01"/>
      <point x="341" y="45"/>
      <point x="400" y="85"/>
      <point x="420" y="155" type="curve" name="sh04"/>
      <point x="426" y="155" type="line" name="iv01"/>
      <point x="422" y="60" type="line"/>
      <point x="422" y="30" type="line" smooth="yes" name="ah01"/>
      <point x="422" y="-45.5648"/>
      <point x="377.714" y="-88"/>
      <point x="300" y="-88" type="curve" smooth="yes" name="sv01"/>
      <point x="160" y="-88" type="line" name="sh07"/>
    </contour>
    <contour>
      <point x="294" y="123" type="curve" smooth="yes" name="dv02"/>
      <point x="214" y="123"/>
      <point x="165" y="173"/>
      <point x="165" y="255" type="curve" smooth="yes"/>
      <point x="165" y="350" type="line" smooth="yes" name="sh06"/>
      <point x="165" y="432"/>
      <point x="214" y="482"/>
      <point x="294" y="482" type="curve" smooth="yes" name="sv02"/>
      <point x="374" y="482"/>
      <point x="422" y="432"/>
      <point x="422" y="350" type="curve" smooth="yes" name="sh08"/>
      <point x="422" y="255" type="line" smooth="yes"/>
      <point x="422" y="173"/>
      <point x="374" y="123"/>
    </contour>
  </outline>
</glyph>
<glyph name="i" format="2">
  <advance width="600" height="750"/>
  <unicode hex="0069"/>
  <outline>
    <contour>
      <point x="95" y="0" type="line"/>
      <point x="550" y="0" type="line" name="ab01"/>
      <point x="550" y="82" type="line"/>
      <point x="385" y="82" type="line" name="sv01"/>
      <point x="385" y="550" type="line"/>
      <point x="120" y="550" type="line" name="at01"/>
      <point x="120" y="468" type="line"/>
      <point x="295" y="468" type="line" name="sv04"/>
      <point x="295" y="82" type="line" name="sv03"/>
      <point x="95" y="82" type="line" name="sv02"/>
    </contour>
    <contour>
      <point x="315" y="645" type="curve" smooth="yes" name="sv05"/>
      <point x="335" y="645" type="line" smooth="yes" name="dv01"/>
      <point x="373.4" y="645"/>
      <point x="400" y="669.554"/>
      <point x="400" y="705" type="curve" smooth="yes" name="dh02"/>
      <point x="400" y="740.446"/>
      <point x="373.4" y="765"/>
      <point x="335" y="765" type="curve" smooth="yes" name="dv02"/>
      <point x="315" y="765" type="line" smooth="yes"/>
      <point x="276.607" y="765"/>
      <point x="250" y="740.438"/>
      <point x="250" y="704.996" type="curve" smooth="yes" name="dh01"/>
      <point x="250" y="669.587"/>
      <point x="276.638" y="645"/>
    </contour>
  </outline>
</glyph>
<glyph name="j" format="2">
  <advance width="600" height="975"/>
  <unicode hex="006A"/>
  <outline>
    <contour>
      <point x="85" y="-170" type="line" name="ab01"/>
      <point x="205" y="-170" type="line" smooth="yes"/>
      <point x="343" y="-170"/>
      <point x="435" y="-82"/>
      <point x="435" y="50" type="curve" smooth="yes" name="sh01"/>
      <point x="435" y="550" type="line" name="at01"/>
      <point x="115" y="550" type="line"/>
      <point x="115" y="468" type="line" name="sv02"/>
      <point x="345" y="468" type="line"/>
      <point x="345" y="50" type="line" smooth="yes" name="ih01"/>
      <point x="345" y="-32"/>
      <point x="289" y="-87"/>
      <point x="205" y="-87" type="curve" smooth="yes" name="sv01"/>
      <point x="85" y="-87" type="line"/>
    </contour>
    <contour>
      <point x="370" y="645" type="curve" smooth="yes" name="dv01"/>
      <point x="390" y="645" type="line" smooth="yes"/>
      <point x="429" y="645"/>
      <point x="455" y="668"/>
      <point x="455" y="704" type="curve" smooth="yes" name="dh02"/>
      <point x="455" y="740"/>
      <point x="429" y="765"/>
      <point x="390" y="765" type="curve" smooth="yes"/>
      <point x="370" y="765" type="line" smooth="yes" name="dv02"/>
      <point x="331" y="765"/>
      <point x="305" y="740"/>
      <point x="305" y="703.5" type="curve" smooth="yes" name="dh01"/>
      <point x="305" y="667"/>
      <point x="331" y="645"/>
    </contour>
  </outline>
</glyph>
<glyph name="l" format="2">
  <advance width="600" height="750"/>
  <unicode hex="006C"/>
  <outline>
    <contour>
      <point x="365" y="0" type="curve" smooth="yes" name="ab01"/>
      <point x="550" y="0" type="line"/>
      <point x="550" y="82" type="line" name="sv02"/>
      <point x="365" y="82" type="line" smooth="yes"/>
      <point x="321.726" y="82"/>
      <point x="295" y="109.871"/>
      <point x="295" y="155" type="curve" smooth="yes"/>
      <point x="295" y="720" type="line" name="dh02"/>
      <point x="40" y="720" type="line" name="at01"/>
      <point x="40" y="638" type="line" name="sv01"/>
      <point x="205" y="638" type="line" name="dh01"/>
      <point x="205" y="155" type="line" smooth="yes"/>
      <point x="205" y="60.5984"/>
      <point x="267.553" y="0"/>
    </contour>
  </outline>
</glyph>
<glyph name="m" format="2">
  <advance width="600" height="975"/>
  <unicode hex="006D"/>
  <outline>
    <contour>
      <point x="62" y="0" type="line" name="ab01"/>
      <point x="146" y="0" type="line" name="sh01"/>
      <point x="146" y="414" type="line" smooth="yes" name="fh02"/>
      <point x="146" y="463"/>
      <point x="167" y="491"/>
      <point x="205.195" y="491" type="curve" smooth="yes" name="sv02"/>
      <point x="242" y="491"/>
      <point x="264" y="465"/>
      <point x="264" y="419" type="curve" smooth="yes"/>
      <point x="264" y="0" type="line" name="sh04"/>
      <point x="336" y="0" type="line" name="ab03"/>
      <point x="336" y="414" type="line" smooth="yes"/>
      <point x="336" y="463"/>
      <point x="359" y="491"/>
      <point x="396.685" y="491" type="curve" smooth="yes" name="sv01"/>
      <point x="433" y="491"/>
      <point x="454" y="465"/>
      <point x="454" y="419" type="curve" smooth="yes"/>
      <point x="454" y="0" type="line" name="sh06"/>
      <point x="538" y="0" type="line" name="ab02"/>
      <point x="538" y="419" type="line" smooth="yes"/>
      <point x="538" y="507"/>
      <point x="495" y="560"/>
      <point x="428" y="560" type="curve" smooth="yes" name="at02"/>
      <point x="375" y="560"/>
      <point x="342" y="527"/>
      <point x="337" y="469" type="curve" name="iv01"/>
      <point x="331" y="469" type="line" name="sh05"/>
      <point x="317" y="530"/>
      <point x="285" y="560"/>
      <point x="235" y="560" type="curve" smooth="yes" name="at01"/>
      <point x="182" y="560"/>
      <point x="151" y="527"/>
      <point x="146" y="469" type="curve" name="sh03"/>
      <point x="139" y="469" type="line"/>
      <point x="139" y="550" type="line" name="sh02"/>
      <point x="62" y="550" type="line" name="fh01"/>
    </contour>
  </outline>
</glyph>
<glyph name="n" format="2">
  <advance width="600" height="750"/>
  <unicode hex="006E"/>
  <outline>
    <contour>
      <point x="88" y="0" type="line" name="av01"/>
      <point x="178" y="0" type="line" name="sh01"/>
      <point x="178" y="345" type="line" smooth="yes" name="fh02"/>
      <point x="178" y="432.577"/>
      <point x="223.874" y="484"/>
      <point x="302" y="484" type="curve" smooth="yes" name="dv01"/>
      <point x="378.211" y="484"/>
      <point x="422" y="434.769"/>
      <point x="422" y="351" type="curve" smooth="yes" name="fh01"/>
      <point x="422" y="0" type="line" name="ah01"/>
      <point x="512" y="0" type="line" name="av02"/>
      <point x="512" y="366" type="line" smooth="yes" name="dh01"/>
      <point x="512" y="483.13"/>
      <point x="441.281" y="560"/>
      <point x="332" y="560" type="curve" smooth="yes" name="dv02"/>
      <point x="253" y="560"/>
      <point x="198" y="522"/>
      <point x="181" y="455" type="curve" name="sh03"/>
      <point x="173" y="455" type="line"/>
      <point x="173" y="550" type="line" name="sh02"/>
      <point x="88" y="550" type="line" name="at01"/>
    </contour>
  </outline>
</glyph>
<glyph name="o" format="2">
  <advance width="600" height="750"/>
  <unicode hex="006F"/>
  <outline>
    <contour>
      <point x="300" y="70" type="curve" smooth="yes" name="sv02"/>
      <point x="217.751" y="70"/>
      <point x="170" y="119.7"/>
      <point x="170" y="205" type="curve" smooth="yes" name="sh02"/>
      <point x="170" y="345" type="line" smooth="yes"/>
      <point x="170" y="429.85"/>
      <point x="218.292" y="480"/>
      <point x="300" y="480" type="curve" smooth="yes" name="sv01"/>
      <point x="381.708" y="480"/>
      <point x="430" y="429.85"/>
      <point x="430" y="345" type="curve" smooth="yes" name="ah01"/>
      <point x="430" y="205" type="line" smooth="yes" name="mv01"/>
      <point x="430" y="120.15"/>
      <point x="381.708" y="70"/>
    </contour>
    <contour>
      <point x="300" y="-10" type="curve" smooth="yes" name="ab01"/>
      <point x="432.247" y="-10"/>
      <point x="520" y="75.7591"/>
      <point x="520" y="205" type="curve" smooth="yes"/>
      <point x="520" y="346" type="line" smooth="yes" name="sh03"/>
      <point x="520" y="474.5"/>
      <point x="432.103" y="560"/>
      <point x="300" y="560" type="curve" smooth="yes" name="at01"/>
      <point x="167.15" y="560"/>
      <point x="80" y="474.901"/>
      <point x="80" y="345" type="curve" smooth="yes"/>
      <point x="80" y="205" type="line" smooth="yes" name="sh01"/>
      <point x="80" y="75.1344"/>
      <point x="167.114" y="-10"/>
    </contour>
  </outline>
</glyph>
<glyph name="q" format="2">
  <advance width="600" height="975"/>
  <unicode hex="0071"/>
  <outline>
    <contour>
      <point x="430" y="-170" type="line" name="ab01"/>
      <point x="520" y="-170" type="line" name="dh03"/>
      <point x="520" y="550" type="line"/>
      <point x="435" y="550" type="line" name="sh01"/>
      <point x="435" y="455" type="line"/>
      <point x="427" y="455" type="line"/>
      <point x="410" y="521"/>
      <point x="354" y="560"/>
      <point x="273" y="560" type="curve" smooth="yes" name="at01"/>
      <point x="162" y="560"/>
      <point x="88" y="478"/>
      <point x="88" y="355" type="curve" smooth="yes" name="dh01"/>
      <point x="88" y="195" type="line" smooth="yes"/>
      <point x="88" y="72"/>
      <point x="162" y="-10"/>
      <point x="273" y="-10" type="curve" smooth="yes" name="ab02"/>
      <point x="354" y="-10"/>
      <point x="410" y="29"/>
      <point x="427" y="95" type="curve"/>
      <point x="435" y="95" type="line"/>
      <point x="435" y="95"/>
      <point x="430" y="35"/>
      <point x="430" y="0" type="curve" smooth="yes"/>
    </contour>
    <contour>
      <point x="307" y="68" type="curve" smooth="yes" name="sv02"/>
      <point x="227" y="68"/>
      <point x="178" y="121"/>
      <point x="178" y="205" type="curve" smooth="yes"/>
      <point x="178" y="345" type="line" smooth="yes" name="dh02"/>
      <point x="178" y="431"/>
      <point x="226" y="482"/>
      <point x="307" y="482" type="curve" smooth="yes" name="sv01"/>
      <point x="381" y="482"/>
      <point x="430" y="428"/>
      <point x="430" y="345" type="curve" smooth="yes" name="sh02"/>
      <point x="430" y="205" type="line" smooth="yes"/>
      <point x="430" y="122"/>
      <point x="381" y="68"/>
    </contour>
  </outline>
</glyph>
<glyph name="s" format="2">
  <advance width="600" height="975"/>
  <unicode hex="0073"/>
  <outline>
    <contour>
      <point x="275" y="-10" type="curve" smooth="yes" name="ab01"/>
      <point x="321" y="-10" type="line" smooth="yes"/>
      <point x="451" y="-10"/>
      <point x="516" y="53"/>
      <point x="516" y="155" type="curve" smooth="yes" name="sh02"/>
      <point x="516" y="251"/>
      <point x="463.899" y="299.315"/>
      <point x="346" y="317" type="curve" smooth="yes" name="fh01"/>
      <point x="266" y="329" type="line" smooth="yes" name="mh01"/>
      <point x="208.099" y="337.685"/>
      <point x="183" y="357"/>
      <point x="183" y="402.383" type="curve" smooth="yes" name="sh05"/>
      <point x="183" y="452"/>
      <point x="213" y="480"/>
      <point x="281" y="480" type="curve" smooth="yes"/>
      <point x="328" y="480" type="line" smooth="yes" name="sv02"/>
      <point x="382" y="480"/>
      <point x="415" y="456"/>
      <point x="423" y="421" type="curve" name="sh04"/>
      <point x="513" y="421" type="line" name="sh03"/>
      <point x="500" y="505"/>
      <point x="433" y="560"/>
      <point x="328" y="560" type="curve" smooth="yes"/>
      <point x="281" y="560" type="line" smooth="yes" name="at01"/>
      <point x="156" y="560"/>
      <point x="93" y="501"/>
      <point x="93" y="403" type="curve" smooth="yes" name="sh01"/>
      <point x="93" y="310"/>
      <point x="145.029" y="262.196"/>
      <point x="253" y="246" type="curve" smooth="yes" name="fh02"/>
      <point x="333" y="234" type="line" smooth="yes" name="fh03"/>
      <point x="393.978" y="224.853"/>
      <point x="426" y="198"/>
      <point x="426" y="151.212" type="curve" smooth="yes" name="ah01"/>
      <point x="426" y="103"/>
      <point x="392" y="70"/>
      <point x="321" y="70" type="curve" smooth="yes"/>
      <point x="275" y="70" type="line" smooth="yes" name="sv01"/>
      <point x="216" y="70"/>
      <point x="180" y="96"/>
      <point x="172" y="135" type="curve"/>
      <point x="82" y="135" type="line"/>
      <point x="92" y="47"/>
      <point x="162" y="-10"/>
    </contour>
  </outline>
</glyph>
<glyph name="v" format="2">
  <advance width="600" height="975"/>
  <unicode hex="0076"/>
  <outline>
    <contour>
      <point x="250" y="0" type="line"/>
      <point x="354" y="0" type="line" name="ab01"/>
      <point x="550" y="550" type="line"/>
      <point x="452" y="550" type="line" name="at01"/>
      <point x="364" y="281" type="line" smooth="yes"/>
      <point x="341.414" y="211.96"/>
      <point x="308" y="85"/>
      <point x="308" y="85" type="curve"/>
      <point x="299" y="85" type="line"/>
      <point x="299" y="85"/>
      <point x="263.066" y="212.131"/>
      <point x="239" y="281" type="curve" smooth="yes"/>
      <point x="145" y="550" type="line"/>
      <point x="50" y="550" type="line" name="at02"/>
    </contour>
  </outline>
</glyph>
<glyph name="w" format="2">
  <advance width="600" height="975"/>
  <unicode hex="0077"/>
  <outline>
    <contour>
      <point x="107" y="0" type="line"/>
      <point x="227" y="0" type="line"/>
      <point x="286" y="389" type="line" smooth="yes"/>
      <point x="293" y="434"/>
      <point x="293" y="490"/>
      <point x="293" y="490" type="curve"/>
      <point x="306" y="490" type="line"/>
      <point x="306" y="490"/>
      <point x="305" y="434"/>
      <point x="312" y="389" type="curve" smooth="yes"/>
      <point x="369" y="0" type="line"/>
      <point x="492" y="0" type="line"/>
      <point x="570" y="550" type="line"/>
      <point x="491" y="550" type="line"/>
      <point x="441" y="173" type="line" smooth="yes"/>
      <point x="434" y="123"/>
      <point x="429" y="59"/>
      <point x="429" y="59" type="curve"/>
      <point x="415" y="59" type="line"/>
      <point x="415" y="59"/>
      <point x="408" y="122"/>
      <point x="400" y="173" type="curve" smooth="yes"/>
      <point x="342" y="550" type="line"/>
      <point x="256" y="550" type="line"/>
      <point x="198" y="173" type="line" smooth="yes"/>
      <point x="190" y="124"/>
      <point x="184" y="59"/>
      <point x="184" y="59" type="curve"/>
      <point x="170" y="59" type="line"/>
      <point x="170" y="59"/>
      <point x="168" y="124"/>
      <point x="162" y="173" type="curve" smooth="yes"/>
      <point x="113" y="550" type="line"/>
      <point x="30" y="550" type="line"/>
    </contour>
  </outline>
</glyph>
<glyph name="x" format="2">
  <advance width="600" height="975"/>
  <unicode hex="0078"/>
  <outline>
    <contour>
      <point x="43" y="0" type="line" name="ab01"/>
      <point x="150" y="0" type="line"/>
      <point x="279" y="191" type="line" smooth="yes"/>
      <point x="290" y="207"/>
      <point x="298" y="230"/>
      <point x="298" y="230" type="curve"/>
      <point x="302" y="230" type="line"/>
      <point x="302" y="230"/>
      <point x="310" y="208"/>
      <point x="321" y="191" type="curve" smooth="yes"/>
      <point x="449" y="0" type="line"/>
      <point x="557" y="0" type="line" name="ab02"/>
      <point x="354" y="283" type="line"/>
      <point x="546" y="550" type="line"/>
      <point x="439" y="550" type="line" name="at02"/>
      <point x="319" y="370" type="line" smooth="yes"/>
      <point x="306" y="351"/>
      <point x="303" y="335"/>
      <point x="303" y="335" type="curve"/>
      <point x="299" y="335" type="line"/>
      <point x="299" y="335"/>
      <point x="296" y="351"/>
      <point x="283" y="370" type="curve" smooth="yes"/>
      <point x="163" y="550" type="line"/>
      <point x="55" y="550" type="line" name="at01"/>
      <point x="247" y="282" type="line"/>
    </contour>
  </outline>
</glyph>
<glyph name="y" format="2">
  <advance width="600" height="975"/>
  <unicode hex="0079"/>
  <outline>
    <contour>
      <point x="183" y="-170" type="line"/>
      <point x="279" y="-170" type="line" name="ab01"/>
      <point x="553" y="550" type="line"/>
      <point x="456" y="550" type="line" name="at02"/>
      <point x="359" y="289" type="line" smooth="yes"/>
      <point x="333.059" y="219.2"/>
      <point x="310" y="117"/>
      <point x="310" y="117" type="curve"/>
      <point x="303" y="117" type="line"/>
      <point x="303" y="117"/>
      <point x="278.348" y="220.366"/>
      <point x="251" y="289" type="curve" smooth="yes"/>
      <point x="147" y="550" type="line"/>
      <point x="47" y="550" type="line" name="at01"/>
      <point x="260" y="40" type="line"/>
    </contour>
  </outline>
</glyph>
<glyph name="z" format="2">
  <advance width="600" height="975"/>
  <unicode hex="007A"/>
  <outline>
    <contour>
      <point x="90" y="0" type="line"/>
      <point x="510" y="0" type="line" name="ab01"/>
      <point x="510" y="80" type="line"/>
      <point x="255" y="80" type="line" smooth="yes" name="sv01"/>
      <point x="218" y="80"/>
      <point x="180" y="76"/>
      <point x="180" y="76" type="curve"/>
      <point x="180" y="82" type="line" name="sv03"/>
      <point x="499" y="449" type="line"/>
      <point x="499" y="550" type="line"/>
      <point x="98" y="550" type="line" name="at01"/>
      <point x="98" y="470" type="line"/>
      <point x="331" y="470" type="line" smooth="yes" name="sv02"/>
      <point x="369" y="470"/>
      <point x="405" y="473"/>
      <point x="405" y="473" type="curve"/>
      <point x="405" y="467" type="line" name="sv04"/>
      <point x="90" y="100" type="line"/>
    </contour>
  </outline>
</glyph>
<glyph name="braceleft" format="2">
  <advance width="600" height="975"/>
  <unicode hex="007B"/>
  <outline>
    <contour>
      <point x="515" y="-110" type="line" name="dv01"/>
      <point x="470" y="-110" type="line" smooth="yes"/>
      <point x="352" y="-110"/>
      <point x="279" y="-49"/>
      <point x="285" y="56" type="curve" smooth="yes"/>
      <point x="295" y="219" type="line" smooth="yes"/>
      <point x="299" y="290"/>
      <point x="282" y="319"/>
      <point x="195" y="319" type="curve" smooth="yes" name="dv05"/>
      <point x="85" y="319" type="line"/>
      <point x="85" y="399" type="line"/>
      <point x="195" y="399" type="line" smooth="yes" name="dv08"/>
      <point x="281" y="399"/>
      <point x="299" y="428"/>
      <point x="295" y="499" type="curve" smooth="yes" name="sv01"/>
      <point x="285" y="664" type="line" smooth="yes" name="sv03"/>
      <point x="279" y="769"/>
      <point x="352" y="830"/>
      <point x="470" y="830" type="curve" smooth="yes" name="at01"/>
      <point x="515" y="830" type="line" name="dv04"/>
      <point x="515" y="750" type="line" name="dv03"/>
      <point x="470" y="750" type="line" smooth="yes"/>
      <point x="407" y="750"/>
      <point x="372" y="721"/>
      <point x="375" y="664" type="curve" smooth="yes" name="sv04"/>
      <point x="385" y="499" type="line" smooth="yes" name="sv02"/>
      <point x="389" y="426"/>
      <point x="349" y="366"/>
      <point x="270" y="363" type="curve" name="dv07"/>
      <point x="270" y="358" type="line" name="dv06"/>
      <point x="350" y="355"/>
      <point x="389" y="292"/>
      <point x="385" y="219" type="curve" smooth="yes"/>
      <point x="375" y="56" type="line" smooth="yes"/>
      <point x="372" y="-1"/>
      <point x="407" y="-30"/>
      <point x="470" y="-30" type="curve" smooth="yes" name="sv05"/>
      <point x="515" y="-30" type="line" name="dv02"/>
    </contour>
  </outline>
</glyph>
<glyph name="currency" format="2">
  <advance width="600" height="985"/>
  <unicode hex="00A4"/>
  <outline>
    <contour>
      <point x="96" y="355" type="curve" smooth="yes"/>
      <point x="96" y="470"/>
      <point x="183" y="557"/>
      <point x="299" y="557" type="curve" smooth="yes"/>
      <point x="414" y="557"/>
      <point x="501" y="470"/>
      <point x="501" y="355" type="curve" smooth="yes"/>
      <point x="501" y="240"/>
      <point x="414" y="153"/>
      <point x="299" y="153" type="curve" smooth="yes"/>
      <point x="183" y="153"/>
      <point x="96" y="240"/>
    </contour>
    <contour>
      <point x="170" y="355" type="curve" smooth="yes"/>
      <point x="170" y="278"/>
      <point x="222" y="226"/>
      <point x="299" y="226" type="curve" smooth="yes"/>
      <point x="376" y="226"/>
      <point x="427" y="278"/>
      <point x="427" y="355" type="curve" smooth="yes"/>
      <point x="427" y="432"/>
      <point x="376" y="484"/>
      <point x="299" y="484" type="curve" smooth="yes"/>
      <point x="222" y="484"/>
      <point x="170" y="432"/>
    </contour>
    <contour>
      <point x="42" y="554" type="line"/>
      <point x="105" y="617" type="line"/>
      <point x="194" y="528" type="line"/>
      <point x="131" y="465" type="line"/>
    </contour>
    <contour>
      <point x="494" y="611" type="line"/>
      <point x="557" y="548" type="line"/>
      <point x="468" y="459" type="line"/>
      <point x="405" y="522" type="line"/>
    </contour>
    <contour>
      <point x="105" y="95.2583" type="line"/>
      <point x="42" y="158.258" type="line"/>
      <point x="131" y="247.258" type="line"/>
      <point x="194" y="184.258" type="line"/>
    </contour>
    <contour>
      <point x="557.049" y="158" type="line"/>
      <point x="494.049" y="95" type="line"/>
      <point x="405.049" y="184" type="line"/>
      <point x="468.049" y="247" type="line"/>
    </contour>
  </outline>
</glyph>
<glyph name="yen" format="2">
  <advance width="600" height="985"/>
  <unicode hex="00A5"/>
  <outline>
    <contour>
      <point x="474" y="720" type="line"/>
      <point x="570" y="720" type="line"/>
      <point x="345" y="270" type="line"/>
      <point x="345" y="0" type="line"/>
      <point x="255" y="0" type="line"/>
      <point x="255" y="270" type="line"/>
      <point x="30" y="720" type="line"/>
      <point x="125" y="720" type="line"/>
      <point x="273" y="423" type="line" smooth="yes"/>
      <point x="291" y="387"/>
      <point x="300" y="344"/>
      <point x="300" y="344" type="curve"/>
      <point x="304" y="344" type="line"/>
      <point x="304" y="344"/>
      <point x="314" y="387"/>
      <point x="331" y="423" type="curve" smooth="yes"/>
    </contour>
    <contour>
      <point x="60" y="195" type="line"/>
      <point x="540" y="195" type="line"/>
      <point x="540" y="120" type="line"/>
      <point x="60" y="120" type="line"/>
    </contour>
    <contour>
      <point x="60" y="345" type="line"/>
      <point x="540" y="345" type="line"/>
      <point x="540" y="270" type="line"/>
      <point x="60" y="270" type="line"/>
    </contour>
  </outline>
</glyph>
<glyph name="brokenbar" format="2">
  <advance width="600" height="975"/>
  <unicode hex="00A6"/>
  <outline>
    <contour>
      <point x="255" y="830" type="line"/>
      <point x="345" y="830" type="line"/>
      <point x="345" y="450" type="line"/>
      <point x="255" y="450" type="line"/>
    </contour>
    <contour>
      <point x="255" y="270" type="line"/>
      <point x="345" y="270" type="line"/>
      <point x="345" y="-110" type="line"/>
      <point x="255" y="-110" type="line"/>
    </contour>
  </outline>
</glyph>
<glyph name="section" format="2">
  <advance width="600" height="985"/>
  <unicode hex="00A7"/>
  <outline>
    <contour>
      <point x="77" y="-10" type="curve"/>
      <point x="172" y="-10" type="line"/>
      <point x="184" y="-54"/>
      <point x="229" y="-84"/>
      <point x="285" y="-84" type="curve" smooth="yes"/>
      <point x="315" y="-84" type="line" smooth="yes"/>
      <point x="391" y="-84"/>
      <point x="432" y="-50"/>
      <point x="432" y="2" type="curve" smooth="yes"/>
      <point x="432" y="50"/>
      <point x="397.896" y="81.4769"/>
      <point x="331" y="95" type="curve" smooth="yes"/>
      <point x="239.421" y="113.513" type="line" smooth="yes"/>
      <point x="147.359" y="132.123"/>
      <point x="86" y="196.708"/>
      <point x="86" y="275" type="curve" smooth="yes"/>
      <point x="86" y="351"/>
      <point x="141" y="412"/>
      <point x="215" y="419" type="curve"/>
      <point x="215" y="426" type="line"/>
      <point x="215" y="426"/>
      <point x="90" y="424"/>
      <point x="90" y="569" type="curve" smooth="yes"/>
      <point x="90" y="667"/>
      <point x="164" y="730"/>
      <point x="289" y="730" type="curve" smooth="yes"/>
      <point x="319" y="730" type="line" smooth="yes"/>
      <point x="424" y="730"/>
      <point x="503" y="672"/>
      <point x="517" y="585" type="curve"/>
      <point x="422" y="585" type="line"/>
      <point x="412" y="624"/>
      <point x="371" y="650"/>
      <point x="319" y="650" type="curve" smooth="yes"/>
      <point x="289" y="650" type="line" smooth="yes"/>
      <point x="221" y="650"/>
      <point x="181" y="618"/>
      <point x="181" y="568" type="curve" smooth="yes"/>
      <point x="181" y="525"/>
      <point x="217.172" y="491.842"/>
      <point x="278" y="479" type="curve" smooth="yes"/>
      <point x="368" y="460" type="line" smooth="yes"/>
      <point x="463.346" y="439.871"/>
      <point x="521" y="378.826"/>
      <point x="521" y="298" type="curve" smooth="yes"/>
      <point x="521" y="221"/>
      <point x="468" y="160"/>
      <point x="388" y="160" type="curve"/>
      <point x="388" y="153" type="line"/>
      <point x="388" y="153"/>
      <point x="523" y="145"/>
      <point x="523" y="5" type="curve" smooth="yes"/>
      <point x="523" y="-99"/>
      <point x="446" y="-164"/>
      <point x="315" y="-164" type="curve" smooth="yes"/>
      <point x="285" y="-164" type="line" smooth="yes"/>
      <point x="176" y="-164"/>
      <point x="92" y="-102"/>
    </contour>
    <contour>
      <point x="177" y="290" type="curve" smooth="yes"/>
      <point x="177" y="239"/>
      <point x="208" y="199"/>
      <point x="254" y="190" type="curve" smooth="yes"/>
      <point x="330" y="175" type="line" smooth="yes"/>
      <point x="389" y="163"/>
      <point x="430" y="218"/>
      <point x="430" y="289" type="curve" smooth="yes"/>
      <point x="430" y="336"/>
      <point x="398" y="374"/>
      <point x="351" y="384" type="curve" smooth="yes"/>
      <point x="277" y="399" type="line" smooth="yes"/>
      <point x="218" y="411"/>
      <point x="177" y="358"/>
    </contour>
  </outline>
</glyph>
<glyph name="dieresis" format="2">
  <advance width="600" height="975"/>
  <unicode hex="00A8"/>
  <outline>
    <contour>
      <point x="135" y="700" type="curve" smooth="yes"/>
      <point x="135" y="734.8"/>
      <point x="160.2" y="760"/>
      <point x="195" y="760" type="curve" smooth="yes"/>
      <point x="229.8" y="760"/>
      <point x="255" y="734.8"/>
      <point x="255" y="700" type="curve" smooth="yes"/>
      <point x="255" y="665.2"/>
      <point x="229.8" y="640"/>
      <point x="195" y="640" type="curve" smooth="yes"/>
      <point x="160.2" y="640"/>
      <point x="135" y="665.2"/>
    </contour>
    <contour>
      <point x="345" y="700" type="curve" smooth="yes"/>
      <point x="345" y="734.8"/>
      <point x="370.2" y="760"/>
      <point x="405" y="760" type="curve" smooth="yes"/>
      <point x="439.8" y="760"/>
      <point x="465" y="734.8"/>
      <point x="465" y="700" type="curve" smooth="yes"/>
      <point x="465" y="665.2"/>
      <point x="439.8" y="640"/>
      <point x="405" y="640" type="curve" smooth="yes"/>
      <point x="370.2" y="640"/>
      <point x="345" y="665.2"/>
    </contour>
  </outline>
</glyph>
<glyph name="copyright" format="2">
  <advance width="600" height="975"/>
  <unicode hex="00A9"/>
  <outline>
    <contour>
      <point x="245" y="360" type="curve" smooth="yes"/>
      <point x="245" y="490" type="line" smooth="yes"/>
      <point x="245" y="526"/>
      <point x="269" y="550"/>
      <point x="305" y="550" type="curve" smooth="yes"/>
      <point x="333" y="550"/>
      <point x="355" y="535"/>
      <point x="364" y="510" type="curve"/>
      <point x="429" y="510" type="line"/>
      <point x="412" y="572"/>
      <point x="369" y="605"/>
      <point x="305" y="605" type="curve" smooth="yes"/>
      <point x="230" y="605"/>
      <point x="180" y="559"/>
      <point x="180" y="490" type="curve" smooth="yes"/>
      <point x="180" y="360" type="line" smooth="yes"/>
      <point x="180" y="291"/>
      <point x="230" y="245"/>
      <point x="305" y="245" type="curve" smooth="yes"/>
      <point x="369" y="245"/>
      <point x="412" y="278"/>
      <point x="429" y="340" type="curve"/>
      <point x="364" y="340" type="line"/>
      <point x="355" y="315"/>
      <point x="333" y="300"/>
      <point x="305" y="300" type="curve" smooth="yes"/>
      <point x="269" y="300"/>
      <point x="245" y="324"/>
    </contour>
    <contour>
      <point x="100" y="350" type="curve" smooth="yes"/>
      <point x="100" y="500" type="line" smooth="yes"/>
      <point x="100" y="614"/>
      <point x="181" y="690"/>
      <point x="300" y="690" type="curve" smooth="yes"/>
      <point x="420" y="690"/>
      <point x="500" y="614"/>
      <point x="500" y="500" type="curve" smooth="yes"/>
      <point x="500" y="350" type="line" smooth="yes"/>
      <point x="500" y="236"/>
      <point x="420" y="160"/>
      <point x="300" y="160" type="curve" smooth="yes"/>
      <point x="181" y="160"/>
      <point x="100" y="236"/>
    </contour>
    <contour>
      <point x="45" y="350" type="line" smooth="yes"/>
      <point x="45" y="206"/>
      <point x="147" y="110"/>
      <point x="300" y="110" type="curve" smooth="yes"/>
      <point x="453" y="110"/>
      <point x="555" y="206"/>
      <point x="555" y="350" type="curve" smooth="yes"/>
      <point x="555" y="500" type="line" smooth="yes"/>
      <point x="555" y="644"/>
      <point x="453" y="740"/>
      <point x="300" y="740" type="curve" smooth="yes"/>
      <point x="147" y="740"/>
      <point x="45" y="644"/>
      <point x="45" y="500" type="curve" smooth="yes"/>
    </contour>
  </outline>
</glyph>
<glyph name="ordfeminine" format="2">
  <advance width="600" height="985"/>
  <unicode hex="00AA"/>
  <outline>
    <contour>
      <point x="370" y="650" type="line" smooth="yes"/>
      <point x="370" y="681"/>
      <point x="345" y="700"/>
      <point x="305" y="700" type="curve" smooth="yes"/>
      <point x="270" y="700"/>
      <point x="244" y="684"/>
      <point x="240" y="660" type="curve"/>
      <point x="190" y="660" type="line"/>
      <point x="197" y="711"/>
      <point x="239" y="740"/>
      <point x="305" y="740" type="curve" smooth="yes"/>
      <point x="376" y="740"/>
      <point x="420" y="706"/>
      <point x="420" y="650" type="curve" smooth="yes"/>
      <point x="420" y="455" type="line"/>
      <point x="373" y="455" type="line"/>
      <point x="373" y="510" type="line"/>
      <point x="370" y="510" type="line"/>
    </contour>
    <contour>
      <point x="280" y="621" type="curve" smooth="yes"/>
      <point x="381" y="621" type="line"/>
      <point x="381" y="581" type="line"/>
      <point x="280" y="581" type="line" smooth="yes"/>
      <point x="245" y="581"/>
      <point x="225" y="564"/>
      <point x="225" y="536" type="curve" smooth="yes"/>
      <point x="225" y="506"/>
      <point x="249" y="488"/>
      <point x="287" y="488" type="curve" smooth="yes"/>
      <point x="339" y="488"/>
      <point x="370" y="513"/>
      <point x="370" y="555" type="curve"/>
      <point x="381" y="555" type="line"/>
      <point x="381" y="510" type="line"/>
      <point x="370" y="510" type="line"/>
      <point x="356" y="473"/>
      <point x="320" y="450"/>
      <point x="274" y="450" type="curve" smooth="yes"/>
      <point x="214" y="450"/>
      <point x="175" y="484"/>
      <point x="175" y="536" type="curve" smooth="yes"/>
      <point x="175" y="588"/>
      <point x="215" y="621"/>
    </contour>
  </outline>
</glyph>
<glyph name="logicalnot" format="2">
  <advance width="600" height="985"/>
  <unicode hex="00AC"/>
  <outline>
    <contour>
      <point x="70" y="415" type="line"/>
      <point x="530" y="415" type="line"/>
      <point x="530" y="205" type="line"/>
      <point x="445" y="205" type="line"/>
      <point x="445" y="335" type="line"/>
      <point x="70" y="335" type="line"/>
    </contour>
  </outline>
</glyph>
<glyph name="uni00AD" format="2">
  <advance width="600"/>
  <unicode hex="00AD"/>
  <outline>
    <contour>
      <point x="140" y="370" type="line"/>
      <point x="460" y="370" type="line" name="dv02"/>
      <point x="460" y="290" type="line" name="dv01"/>
      <point x="140" y="290" type="line"/>
    </contour>
  </outline>
</glyph>
<glyph name="registered" format="2">
  <advance width="600" height="975"/>
  <unicode hex="00AE"/>
  <outline>
    <contour>
      <point x="250" y="250" type="line"/>
      <point x="190" y="250" type="line"/>
      <point x="190" y="600" type="line"/>
      <point x="304" y="600" type="line" smooth="yes"/>
      <point x="376" y="600"/>
      <point x="421" y="559"/>
      <point x="421" y="495" type="curve" smooth="yes"/>
      <point x="421" y="431"/>
      <point x="376" y="390"/>
      <point x="304" y="390" type="curve" smooth="yes"/>
      <point x="250" y="390" type="line"/>
    </contour>
    <contour>
      <point x="304" y="440" type="line" smooth="yes"/>
      <point x="339" y="440"/>
      <point x="360" y="460"/>
      <point x="360" y="495" type="curve" smooth="yes"/>
      <point x="360" y="530"/>
      <point x="339" y="550"/>
      <point x="304" y="550" type="curve" smooth="yes"/>
      <point x="250" y="550" type="line"/>
      <point x="250" y="440" type="line"/>
    </contour>
    <contour>
      <point x="299" y="403" type="line"/>
      <point x="360" y="403" type="line"/>
      <point x="427" y="250" type="line"/>
      <point x="363" y="250" type="line"/>
    </contour>
    <contour>
      <point x="100" y="350" type="line"/>
      <point x="100" y="236"/>
      <point x="181" y="160"/>
      <point x="300" y="160" type="curve" smooth="yes"/>
      <point x="420" y="160"/>
      <point x="500" y="236"/>
      <point x="500" y="350" type="curve" smooth="yes"/>
      <point x="500" y="500" type="line" smooth="yes"/>
      <point x="500" y="614"/>
      <point x="420" y="690"/>
      <point x="300" y="690" type="curve" smooth="yes"/>
      <point x="181" y="690"/>
      <point x="100" y="614"/>
      <point x="100" y="500" type="curve" smooth="yes"/>
    </contour>
    <contour>
      <point x="45" y="500" type="line" smooth="yes"/>
      <point x="45" y="644"/>
      <point x="147" y="740"/>
      <point x="300" y="740" type="curve" smooth="yes"/>
      <point x="453" y="740"/>
      <point x="555" y="644"/>
      <point x="555" y="500" type="curve" smooth="yes"/>
      <point x="555" y="350" type="line" smooth="yes"/>
      <point x="555" y="206"/>
      <point x="453" y="110"/>
      <point x="300" y="110" type="curve" smooth="yes"/>
      <point x="147" y="110"/>
      <point x="45" y="206"/>
      <point x="45" y="350" type="curve" smooth="yes"/>
    </contour>
  </outline>
</glyph>
<glyph name="macron" format="2">
  <advance width="600" height="975"/>
  <unicode hex="00AF"/>
  <outline>
    <contour>
      <point x="170" y="665" type="line"/>
      <point x="430" y="665" type="line"/>
      <point x="430" y="740" type="line"/>
      <point x="170" y="740" type="line"/>
    </contour>
  </outline>
</glyph>
<glyph name="degree" format="2">
  <advance width="600" height="975"/>
  <unicode hex="00B0"/>
  <outline>
    <contour>
      <point x="150" y="595" type="curve" smooth="yes"/>
      <point x="150" y="682"/>
      <point x="210" y="740"/>
      <point x="300" y="740" type="curve" smooth="yes"/>
      <point x="390" y="740"/>
      <point x="450" y="682"/>
      <point x="450" y="595" type="curve" smooth="yes"/>
      <point x="450" y="508"/>
      <point x="390" y="450"/>
      <point x="300" y="450" type="curve" smooth="yes"/>
      <point x="210" y="450"/>
      <point x="150" y="508"/>
    </contour>
    <contour>
      <point x="210" y="595" type="curve" smooth="yes"/>
      <point x="210" y="539"/>
      <point x="246" y="501"/>
      <point x="299" y="501" type="curve" smooth="yes"/>
      <point x="354" y="501"/>
      <point x="390" y="539"/>
      <point x="390" y="595" type="curve" smooth="yes"/>
      <point x="390" y="652"/>
      <point x="354" y="690"/>
      <point x="299" y="690" type="curve" smooth="yes"/>
      <point x="246" y="690"/>
      <point x="210" y="652"/>
    </contour>
  </outline>
</glyph>
<glyph name="twosuperior" format="2">
  <advance width="600" height="985"/>
  <unicode hex="00B2"/>
  <outline>
    <contour>
      <point x="405" y="658" type="curve" smooth="yes"/>
      <point x="405" y="617"/>
      <point x="374" y="575"/>
      <point x="319" y="544" type="curve" smooth="yes"/>
      <point x="226" y="492" type="line"/>
      <point x="226" y="482" type="line"/>
      <point x="226" y="482"/>
      <point x="261" y="490"/>
      <point x="301" y="490" type="curve" smooth="yes"/>
      <point x="410" y="490" type="line"/>
      <point x="410" y="440" type="line"/>
      <point x="155" y="440" type="line"/>
      <point x="155" y="504" type="line"/>
      <point x="275" y="573" type="line" smooth="yes"/>
      <point x="322" y="600"/>
      <point x="345" y="627"/>
      <point x="345" y="656" type="curve" smooth="yes"/>
      <point x="345" y="695"/>
      <point x="319" y="720"/>
      <point x="280" y="720" type="curve" smooth="yes"/>
      <point x="241" y="720"/>
      <point x="215" y="695"/>
      <point x="215" y="656" type="curve"/>
      <point x="155" y="656" type="line"/>
      <point x="158" y="725"/>
      <point x="208" y="770"/>
      <point x="280" y="770" type="curve" smooth="yes"/>
      <point x="355" y="770"/>
      <point x="405" y="725"/>
    </contour>
  </outline>
</glyph>
<glyph name="acute" format="2">
  <advance width="600" height="975"/>
  <unicode hex="00B4"/>
  <outline>
    <contour>
      <point x="420" y="785" type="line" name="av01"/>
      <point x="320" y="785" type="line"/>
      <point x="205" y="645" type="line" name="av02"/>
      <point x="295" y="645" type="line"/>
    </contour>
  </outline>
</glyph>
<glyph name="uni00B5" format="2">
  <advance width="600" height="975"/>
  <unicode hex="00B5"/>
  <outline>
    <contour>
      <point x="90" y="-170" type="line"/>
      <point x="179" y="-170" type="line"/>
      <point x="168" y="-13" type="line" smooth="yes"/>
      <point x="166" y="18"/>
      <point x="153" y="67"/>
      <point x="151" y="67" type="curve"/>
      <point x="155" y="67" type="line"/>
      <point x="155" y="67"/>
      <point x="179" y="-10"/>
      <point x="309" y="-10" type="curve" smooth="yes"/>
      <point x="436" y="-10"/>
      <point x="510" y="66"/>
      <point x="510" y="194" type="curve" smooth="yes"/>
      <point x="510" y="550" type="line"/>
      <point x="420" y="550" type="line"/>
      <point x="420" y="194" type="line" smooth="yes"/>
      <point x="420" y="114"/>
      <point x="383" y="69"/>
      <point x="299" y="69" type="curve" smooth="yes"/>
      <point x="216" y="69"/>
      <point x="180" y="114"/>
      <point x="180" y="194" type="curve" smooth="yes"/>
      <point x="180" y="550" type="line"/>
      <point x="90" y="550" type="line"/>
    </contour>
  </outline>
</glyph>
<glyph name="cedilla" format="2">
  <advance width="600" height="975"/>
  <unicode hex="00B8"/>
  <outline>
    <contour>
      <point x="254" y="26" type="line"/>
      <point x="311" y="26" type="line"/>
      <point x="290" y="-35" type="line"/>
      <point x="290" y="-35"/>
      <point x="410" y="-42"/>
      <point x="410" y="-113" type="curve" smooth="yes"/>
      <point x="410" y="-159"/>
      <point x="362" y="-190"/>
      <point x="290" y="-190" type="curve" smooth="yes"/>
      <point x="226" y="-190"/>
      <point x="205" y="-190"/>
      <point x="205" y="-190" type="curve"/>
      <point x="205" y="-135" type="line"/>
      <point x="205" y="-135"/>
      <point x="230" y="-135"/>
      <point x="275" y="-135" type="curve" smooth="yes"/>
      <point x="304" y="-135"/>
      <point x="324" y="-123"/>
      <point x="324" y="-105" type="curve" smooth="yes"/>
      <point x="324" y="-82"/>
      <point x="286" y="-69"/>
      <point x="219" y="-69" type="curve"/>
    </contour>
  </outline>
  <guideline angle="0" x="0" y="-210"/>
</glyph>
<glyph name="onesuperior" format="2">
  <advance width="600" height="985"/>
  <unicode hex="00B9"/>
  <outline>
    <contour>
      <point x="298" y="490" type="line"/>
      <point x="298" y="673" type="line" smooth="yes"/>
      <point x="298" y="705"/>
      <point x="304" y="720"/>
      <point x="304" y="721" type="curve"/>
      <point x="298" y="721" type="line"/>
      <point x="298" y="721"/>
      <point x="285" y="706"/>
      <point x="265" y="688" type="curve" smooth="yes"/>
      <point x="203" y="634" type="line"/>
      <point x="203" y="704" type="line"/>
      <point x="273" y="765" type="line"/>
      <point x="358" y="765" type="line"/>
      <point x="358" y="490" type="line"/>
      <point x="455" y="490" type="line"/>
      <point x="455" y="440" type="line"/>
      <point x="180" y="440" type="line"/>
      <point x="180" y="490" type="line"/>
    </contour>
  </outline>
</glyph>
<glyph name="ordmasculine" format="2">
  <advance width="600" height="985"/>
  <unicode hex="00BA"/>
  <outline>
    <contour>
      <point x="235" y="630" type="line" smooth="yes"/>
      <point x="235" y="669"/>
      <point x="261" y="695"/>
      <point x="300" y="695" type="curve" smooth="yes"/>
      <point x="339" y="695"/>
      <point x="365" y="669"/>
      <point x="365" y="630" type="curve" smooth="yes"/>
      <point x="365" y="550" type="line" smooth="yes"/>
      <point x="365" y="511"/>
      <point x="339" y="485"/>
      <point x="300" y="485" type="curve" smooth="yes"/>
      <point x="261" y="485"/>
      <point x="235" y="511"/>
      <point x="235" y="550" type="curve" smooth="yes"/>
    </contour>
    <contour>
      <point x="415" y="630" type="line" smooth="yes"/>
      <point x="415" y="693"/>
      <point x="369" y="735"/>
      <point x="300" y="735" type="curve" smooth="yes"/>
      <point x="231" y="735"/>
      <point x="185" y="693"/>
      <point x="185" y="630" type="curve" smooth="yes"/>
      <point x="185" y="550" type="line" smooth="yes"/>
      <point x="185" y="487"/>
      <point x="231" y="445"/>
      <point x="300" y="445" type="curve" smooth="yes"/>
      <point x="369" y="445"/>
      <point x="415" y="487"/>
      <point x="415" y="550" type="curve" smooth="yes"/>
    </contour>
  </outline>
</glyph>
<glyph name="guillemotright" format="2">
  <advance width="600" height="975"/>
  <unicode hex="00BB"/>
  <outline>
    <contour>
      <point x="337" y="280" type="line"/>
      <point x="135" y="40" type="line"/>
      <point x="30" y="40" type="line"/>
      <point x="207" y="244" type="line" smooth="yes"/>
      <point x="228" y="268"/>
      <point x="242" y="279"/>
      <point x="242" y="279" type="curve"/>
      <point x="242" y="281" type="line"/>
      <point x="242" y="281"/>
      <point x="228" y="291"/>
      <point x="207" y="316" type="curve" smooth="yes"/>
      <point x="30" y="520" type="line"/>
      <point x="136" y="520" type="line"/>
    </contour>
    <contour>
      <point x="570" y="280" type="line"/>
      <point x="368" y="40" type="line"/>
      <point x="263" y="40" type="line"/>
      <point x="440" y="244" type="line" smooth="yes"/>
      <point x="461" y="268"/>
      <point x="475" y="279"/>
      <point x="475" y="279" type="curve"/>
      <point x="475" y="281" type="line"/>
      <point x="475" y="281"/>
      <point x="461" y="291"/>
      <point x="440" y="316" type="curve" smooth="yes"/>
      <point x="263" y="520" type="line"/>
      <point x="369" y="520" type="line"/>
    </contour>
  </outline>
</glyph>
<glyph name="AE" format="2">
  <advance width="600" height="975"/>
  <unicode hex="00C6"/>
  <outline>
    <contour>
      <point x="30" y="0" type="line"/>
      <point x="175" y="720" type="line"/>
      <point x="570" y="720" type="line"/>
      <point x="570" y="638" type="line"/>
      <point x="388" y="638" type="line"/>
      <point x="388" y="412" type="line"/>
      <point x="545" y="412" type="line"/>
      <point x="545" y="330" type="line"/>
      <point x="388" y="330" type="line"/>
      <point x="388" y="82" type="line"/>
      <point x="570" y="82" type="line"/>
      <point x="570" y="0" type="line"/>
      <point x="302" y="0" type="line"/>
      <point x="302" y="203" type="line"/>
      <point x="161" y="203" type="line"/>
      <point x="121" y="0" type="line"/>
    </contour>
    <contour>
      <point x="175" y="278" type="line"/>
      <point x="302" y="278" type="line"/>
      <point x="302" y="638" type="line"/>
      <point x="246" y="638" type="line"/>
    </contour>
  </outline>
</glyph>
<glyph name="multiply" format="2">
  <advance width="600" height="975"/>
  <unicode hex="00D7"/>
  <outline>
    <contour>
      <point x="153" y="522" type="line"/>
      <point x="295" y="381" type="line"/>
      <point x="440" y="526" type="line"/>
      <point x="491" y="474" type="line"/>
      <point x="346" y="329" type="line"/>
      <point x="488" y="188" type="line"/>
      <point x="436" y="136" type="line"/>
      <point x="295" y="278" type="line"/>
      <point x="153" y="136" type="line"/>
      <point x="102" y="188" type="line"/>
      <point x="243" y="329" type="line"/>
      <point x="102" y="471" type="line"/>
    </contour>
  </outline>
</glyph>
<glyph name="Oslash" format="2">
  <advance width="600" height="975"/>
  <unicode hex="00D8"/>
  <outline>
    <component base="O"/>
    <contour>
      <point x="475" y="750" type="line"/>
      <point x="565" y="750" type="line"/>
      <point x="125" y="-40" type="line"/>
      <point x="35" y="-40" type="line"/>
    </contour>
  </outline>
</glyph>
<glyph name="germandbls" format="2">
  <advance width="600" height="975"/>
  <unicode hex="00DF"/>
  <outline>
    <contour>
      <point x="95" y="0" type="line"/>
      <point x="185" y="0" type="line"/>
      <point x="185" y="524" type="line" smooth="yes"/>
      <point x="185" y="600.897"/>
      <point x="230.584" y="648"/>
      <point x="305" y="648" type="curve" smooth="yes"/>
      <point x="378.288" y="648"/>
      <point x="424" y="599.984"/>
      <point x="424" y="523" type="curve" smooth="yes" name="dh02"/>
      <point x="424" y="451.889"/>
      <point x="378.585" y="408"/>
      <point x="305" y="408" type="curve" smooth="yes" name="dv02"/>
      <point x="262" y="408" type="line"/>
      <point x="262" y="330" type="line"/>
      <point x="307" y="330" type="line" smooth="yes" name="dv01"/>
      <point x="388.123" y="330"/>
      <point x="437" y="283.379"/>
      <point x="437" y="206" type="curve" smooth="yes" name="ih01"/>
      <point x="437" y="129.327"/>
      <point x="387.383" y="82"/>
      <point x="307" y="82" type="curve" smooth="yes"/>
      <point x="249.539" y="82" type="line"/>
      <point x="249.539" y="0" type="line"/>
      <point x="317" y="0" type="line" smooth="yes" name="ab01"/>
      <point x="446" y="0"/>
      <point x="532" y="81.2"/>
      <point x="532" y="203" type="curve" smooth="yes" name="sh01"/>
      <point x="532" y="300.787"/>
      <point x="473.6" y="369.187"/>
      <point x="386" y="374" type="curve" name="iv01"/>
      <point x="386" y="380" type="line"/>
      <point x="465.8" y="385.985"/>
      <point x="519" y="445.985"/>
      <point x="519" y="530" type="curve" smooth="yes" name="dh03"/>
      <point x="519" y="650"/>
      <point x="433.258" y="730"/>
      <point x="304.646" y="730" type="curve" smooth="yes"/>
      <point x="178.858" y="730"/>
      <point x="95" y="647.6"/>
      <point x="95" y="524" type="curve" smooth="yes"/>
    </contour>
  </outline>
</glyph>
<glyph name="eth" format="2">
  <advance width="600" height="975"/>
  <unicode hex="00F0"/>
  <outline>
    <contour>
      <point x="299" y="-10" type="curve" smooth="yes"/>
      <point x="437.6" y="-10"/>
      <point x="530" y="83.2"/>
      <point x="530" y="223" type="curve" smooth="yes"/>
      <point x="530" y="307.714"/>
      <point x="493.537" y="409.207"/>
      <point x="433" y="493" type="curve" smooth="yes"/>
      <point x="269" y="720" type="line"/>
      <point x="165" y="720" type="line"/>
      <point x="345" y="480" type="line" smooth="yes"/>
      <point x="395.926" y="412.099"/>
      <point x="409" y="380"/>
      <point x="409" y="380" type="curve"/>
      <point x="395" y="380" type="line"/>
      <point x="395" y="380"/>
      <point x="361" y="436"/>
      <point x="281" y="436" type="curve" smooth="yes"/>
      <point x="154.009" y="436"/>
      <point x="70" y="348.009"/>
      <point x="70" y="215" type="curve" smooth="yes"/>
      <point x="70" y="80"/>
      <point x="161.6" y="-10"/>
    </contour>
    <contour>
      <point x="440" y="215" type="curve" smooth="yes"/>
      <point x="440" y="128"/>
      <point x="384" y="70"/>
      <point x="299" y="70" type="curve" smooth="yes"/>
      <point x="216" y="70"/>
      <point x="160" y="128"/>
      <point x="160" y="215" type="curve" smooth="yes"/>
      <point x="160" y="301.791"/>
      <point x="215.8" y="360"/>
      <point x="299" y="360" type="curve" smooth="yes"/>
      <point x="384" y="360"/>
      <point x="440" y="302"/>
    </contour>
    <contour>
      <point x="117" y="495" type="line"/>
      <point x="461" y="655" type="line"/>
      <point x="461" y="735" type="line"/>
      <point x="117" y="575" type="line"/>
    </contour>
  </outline>
</glyph>
<glyph name="divide" format="2">
  <advance width="600" height="975"/>
  <unicode hex="00F7"/>
  <outline>
    <contour>
      <point x="100" y="370" type="line"/>
      <point x="500" y="370" type="line"/>
      <point x="500" y="295" type="line"/>
      <point x="100" y="295" type="line"/>
    </contour>
    <contour>
      <point x="290" y="580" type="curve" smooth="yes"/>
      <point x="310" y="580" type="line" smooth="yes"/>
      <point x="349" y="580"/>
      <point x="375" y="555"/>
      <point x="375" y="519" type="curve" smooth="yes"/>
      <point x="375" y="483"/>
      <point x="349" y="460"/>
      <point x="310" y="460" type="curve" smooth="yes"/>
      <point x="290" y="460" type="line" smooth="yes"/>
      <point x="251" y="460"/>
      <point x="225" y="482"/>
      <point x="225" y="518.5" type="curve" smooth="yes"/>
      <point x="225" y="555"/>
      <point x="251" y="580"/>
    </contour>
    <contour>
      <point x="290" y="205" type="curve" smooth="yes"/>
      <point x="310" y="205" type="line" smooth="yes"/>
      <point x="349" y="205"/>
      <point x="375" y="180"/>
      <point x="375" y="144" type="curve" smooth="yes"/>
      <point x="375" y="108"/>
      <point x="349" y="85"/>
      <point x="310" y="85" type="curve" smooth="yes"/>
      <point x="290" y="85" type="line" smooth="yes"/>
      <point x="251" y="85"/>
      <point x="225" y="107"/>
      <point x="225" y="143.5" type="curve" smooth="yes"/>
      <point x="225" y="180"/>
      <point x="251" y="205"/>
    </contour>
  </outline>
</glyph>
<glyph name="oslash" format="2">
  <advance width="600" height="975"/>
  <unicode hex="00F8"/>
  <outline>
    <component base="o"/>
    <contour>
      <point x="470" y="590" type="line"/>
      <point x="565" y="590" type="line"/>
      <point x="129" y="-30" type="line"/>
      <point x="35" y="-30" type="line"/>
    </contour>
  </outline>
</glyph>
<glyph name="Dcroat" format="2">
  <advance width="600" height="975"/>
  <unicode hex="0110"/>
  <outline>
    <component base="D"/>
    <contour>
      <point x="35" y="395" type="line"/>
      <point x="300" y="395" type="line"/>
      <point x="300" y="320" type="line"/>
      <point x="35" y="320" type="line"/>
    </contour>
  </outline>
</glyph>
<glyph name="dcroat" format="2">
  <advance width="600" height="975"/>
  <unicode hex="0111"/>
  <outline>
    <contour>
      <point x="265" y="-10" type="curve" smooth="yes"/>
      <point x="346" y="-10"/>
      <point x="402" y="29"/>
      <point x="419" y="95" type="curve"/>
      <point x="427" y="95" type="line"/>
      <point x="427" y="0" type="line"/>
      <point x="512" y="0" type="line"/>
      <point x="512" y="585" type="line"/>
      <point x="590" y="585" type="line"/>
      <point x="590" y="650" type="line"/>
      <point x="512" y="650" type="line"/>
      <point x="512" y="720" type="line"/>
      <point x="422" y="720" type="line"/>
      <point x="422" y="650" type="line"/>
      <point x="285" y="650" type="line"/>
      <point x="285" y="585" type="line"/>
      <point x="422" y="585" type="line"/>
      <point x="422" y="515" type="line" smooth="yes"/>
      <point x="422" y="480"/>
      <point x="427" y="420"/>
      <point x="427" y="420" type="curve"/>
      <point x="419" y="420" type="line"/>
      <point x="402" y="486"/>
      <point x="346" y="525"/>
      <point x="265" y="525" type="curve" smooth="yes"/>
      <point x="154" y="525"/>
      <point x="80" y="443"/>
      <point x="80" y="310" type="curve" smooth="yes"/>
      <point x="80" y="205" type="line" smooth="yes"/>
      <point x="80" y="72"/>
      <point x="154" y="-10"/>
    </contour>
    <contour>
      <point x="299" y="68" type="curve" smooth="yes"/>
      <point x="219" y="68"/>
      <point x="170" y="121"/>
      <point x="170" y="205" type="curve" smooth="yes"/>
      <point x="170" y="310" type="line" smooth="yes"/>
      <point x="170" y="396"/>
      <point x="218" y="447"/>
      <point x="299" y="447" type="curve" smooth="yes"/>
      <point x="373" y="447"/>
      <point x="422" y="393"/>
      <point x="422" y="310" type="curve" smooth="yes"/>
      <point x="422" y="205" type="line" smooth="yes"/>
      <point x="422" y="122"/>
      <point x="373" y="68"/>
    </contour>
  </outline>
</glyph>
<glyph name="eogonek" format="2">
  <advance width="600" height="975"/>
  <unicode hex="0119"/>
  <outline>
    <component base="e"/>
    <contour>
      <point x="426" y="71" type="line"/>
      <point x="460" y="40" type="line"/>
      <point x="419" y="0" type="line" smooth="yes"/>
      <point x="384" y="-34"/>
      <point x="369" y="-59"/>
      <point x="369" y="-85.8063" type="curve" smooth="yes"/>
      <point x="369" y="-119"/>
      <point x="392" y="-140"/>
      <point x="430" y="-140" type="curve" smooth="yes"/>
      <point x="500" y="-140" type="line"/>
      <point x="500" y="-200" type="line"/>
      <point x="406" y="-200" type="line" smooth="yes"/>
      <point x="333" y="-200"/>
      <point x="286" y="-156"/>
      <point x="286" y="-108" type="curve" smooth="yes"/>
      <point x="286" y="-77"/>
      <point x="301" y="-45"/>
      <point x="330" y="-18" type="curve" smooth="yes"/>
    </contour>
  </outline>
  <guideline angle="90" x="520" y="0"/>
</glyph>
<glyph name="Hbar" format="2">
  <advance width="600" height="975"/>
  <unicode hex="0126"/>
  <outline>
    <component base="H"/>
    <contour>
      <point x="45" y="600" type="line"/>
      <point x="555" y="600" type="line"/>
      <point x="555" y="520" type="line"/>
      <point x="45" y="520" type="line"/>
    </contour>
  </outline>
</glyph>
<glyph name="hbar" format="2">
  <advance width="600" height="975"/>
  <unicode hex="0127"/>
  <outline>
    <contour>
      <point x="178" y="590" type="line"/>
      <point x="178" y="540" type="line" smooth="yes"/>
      <point x="178" y="503"/>
      <point x="173" y="445"/>
      <point x="173" y="445" type="curve"/>
      <point x="181" y="445" type="line"/>
      <point x="198" y="511"/>
      <point x="254" y="550"/>
      <point x="332" y="550" type="curve" smooth="yes"/>
      <point x="441" y="550"/>
      <point x="513" y="473"/>
      <point x="513" y="356" type="curve" smooth="yes"/>
      <point x="513" y="0" type="line"/>
      <point x="423" y="0" type="line"/>
      <point x="423" y="341" type="line" smooth="yes"/>
      <point x="423" y="424"/>
      <point x="378" y="474"/>
      <point x="302" y="474" type="curve" smooth="yes"/>
      <point x="226" y="474"/>
      <point x="178" y="420"/>
      <point x="178" y="335" type="curve" smooth="yes"/>
      <point x="178" y="0" type="line"/>
      <point x="88" y="0" type="line"/>
      <point x="88" y="590" type="line"/>
      <point x="20" y="590" type="line"/>
      <point x="20" y="665" type="line"/>
      <point x="88" y="665" type="line"/>
      <point x="88" y="720" type="line"/>
      <point x="178" y="720" type="line"/>
      <point x="178" y="665" type="line"/>
      <point x="280" y="665" type="line"/>
      <point x="280" y="590" type="line"/>
    </contour>
  </outline>
  <guideline angle="0" x="0" y="730"/>
</glyph>
<glyph name="eng" format="2">
  <advance width="600" height="985"/>
  <unicode hex="014B"/>
  <outline>
    <contour>
      <point x="88" y="550" type="line"/>
      <point x="88" y="0" type="line"/>
      <point x="178" y="0" type="line"/>
      <point x="178" y="360" type="line" smooth="yes"/>
      <point x="178" y="435"/>
      <point x="225" y="482"/>
      <point x="301" y="482" type="curve" smooth="yes"/>
      <point x="377" y="482"/>
      <point x="423" y="434"/>
      <point x="423" y="356" type="curve" smooth="yes"/>
      <point x="423" y="25" type="line" smooth="yes"/>
      <point x="423" y="-45"/>
      <point x="379" y="-88"/>
      <point x="308" y="-88" type="curve" smooth="yes"/>
      <point x="245" y="-88" type="line"/>
      <point x="245" y="-170" type="line"/>
      <point x="308" y="-170" type="line" smooth="yes"/>
      <point x="432" y="-170"/>
      <point x="513" y="-93"/>
      <point x="513" y="25" type="curve" smooth="yes"/>
      <point x="513" y="371" type="line" smooth="yes"/>
      <point x="513" y="486"/>
      <point x="442" y="560"/>
      <point x="330" y="560" type="curve" smooth="yes"/>
      <point x="254" y="560"/>
      <point x="198" y="521"/>
      <point x="181" y="455" type="curve"/>
      <point x="173" y="455" type="line"/>
      <point x="173" y="550" type="line"/>
    </contour>
  </outline>
</glyph>
<glyph name="OE" format="2">
  <advance width="600" height="975"/>
  <unicode hex="0152"/>
  <outline>
    <contour>
      <point x="130" y="540" type="line" smooth="yes"/>
      <point x="130" y="608"/>
      <point x="164" y="650"/>
      <point x="220" y="650" type="curve" smooth="yes"/>
      <point x="276" y="650"/>
      <point x="310" y="608"/>
      <point x="310" y="540" type="curve" smooth="yes"/>
      <point x="310" y="180" type="line" smooth="yes"/>
      <point x="310" y="112"/>
      <point x="276" y="70"/>
      <point x="220" y="70" type="curve" smooth="yes"/>
      <point x="164" y="70"/>
      <point x="130" y="112"/>
      <point x="130" y="180" type="curve" smooth="yes"/>
    </contour>
    <contour>
      <point x="310" y="0" type="line"/>
      <point x="575" y="0" type="line"/>
      <point x="575" y="82" type="line"/>
      <point x="398" y="82" type="line"/>
      <point x="398" y="331" type="line"/>
      <point x="550" y="331" type="line"/>
      <point x="550" y="413" type="line"/>
      <point x="398" y="413" type="line"/>
      <point x="398" y="638" type="line"/>
      <point x="575" y="638" type="line"/>
      <point x="575" y="720" type="line"/>
      <point x="310" y="720" type="line"/>
      <point x="310" y="640" type="line"/>
      <point x="305" y="640" type="line"/>
      <point x="305" y="640"/>
      <point x="290" y="730"/>
      <point x="195" y="730" type="curve" smooth="yes"/>
      <point x="99" y="730"/>
      <point x="40" y="657"/>
      <point x="40" y="540" type="curve" smooth="yes"/>
      <point x="40" y="180" type="line" smooth="yes"/>
      <point x="40" y="63"/>
      <point x="99" y="-10"/>
      <point x="195" y="-10" type="curve" smooth="yes"/>
      <point x="290" y="-10"/>
      <point x="305" y="80"/>
      <point x="305" y="80" type="curve"/>
      <point x="310" y="80" type="line"/>
    </contour>
  </outline>
</glyph>
<glyph name="tcaron" format="2">
  <advance width="600" height="975"/>
  <unicode hex="0165"/>
  <outline>
    <component base="t"/>
    <contour>
      <point x="552" y="776" type="line"/>
      <point x="452" y="620" type="line"/>
      <point x="372" y="620" type="line"/>
      <point x="462" y="776" type="line"/>
    </contour>
  </outline>
</glyph>
<glyph name="Ohorn" format="2">
  <advance width="600"/>
  <unicode hex="01A0"/>
  <outline>
    <contour>
      <point x="300" y="650" type="curve" smooth="yes" name="sv01"/>
      <point x="379" y="650"/>
      <point x="430" y="597"/>
      <point x="430" y="515" type="curve" smooth="yes" name="ah01"/>
      <point x="430" y="205" type="line" smooth="yes"/>
      <point x="430" y="123"/>
      <point x="379" y="70"/>
      <point x="300" y="70" type="curve" smooth="yes" name="sv02"/>
      <point x="221" y="70"/>
      <point x="170" y="123"/>
      <point x="170" y="205" type="curve" smooth="yes" name="sh02"/>
      <point x="170" y="515" type="line" smooth="yes"/>
      <point x="170" y="597"/>
      <point x="221" y="650"/>
    </contour>
    <contour>
      <point x="300" y="730" type="curve" smooth="yes" name="at01"/>
      <point x="165" y="730"/>
      <point x="80" y="646"/>
      <point x="80" y="515" type="curve" smooth="yes"/>
      <point x="80" y="205" type="line" smooth="yes" name="sh01"/>
      <point x="80" y="74"/>
      <point x="165" y="-10"/>
      <point x="300" y="-10" type="curve" smooth="yes" name="ab01"/>
      <point x="434" y="-10"/>
      <point x="520" y="75"/>
      <point x="520" y="205" type="curve" smooth="yes"/>
      <point x="520" y="515" type="line" smooth="yes" name="sh03"/>
      <point x="520" y="646"/>
      <point x="435" y="730"/>
    </contour>
    <contour>
      <point x="486.5" y="830" type="line"/>
      <point x="486.5" y="740" type="line" smooth="yes"/>
      <point x="486.5" y="708.486"/>
      <point x="468.014" y="690"/>
      <point x="436.5" y="690" type="curve" smooth="yes"/>
      <point x="399.868" y="690" type="line"/>
      <point x="399.868" y="625" type="line"/>
      <point x="442.071" y="625" type="line" smooth="yes"/>
      <point x="513.729" y="625"/>
      <point x="561.5" y="669"/>
      <point x="561.5" y="735" type="curve" smooth="yes"/>
      <point x="561.5" y="830" type="line"/>
    </contour>
  </outline>
</glyph>
<glyph name="ohorn" format="2">
  <advance width="600"/>
  <unicode hex="01A1"/>
  <outline>
    <contour>
      <point x="170" y="205" type="curve" smooth="yes" name="sh02"/>
      <point x="170" y="345" type="line" smooth="yes"/>
      <point x="170" y="429"/>
      <point x="220" y="480"/>
      <point x="300" y="480" type="curve" smooth="yes" name="sv01"/>
      <point x="380" y="480"/>
      <point x="430" y="429"/>
      <point x="430" y="345" type="curve" smooth="yes" name="ah01"/>
      <point x="430" y="205" type="line" smooth="yes" name="mv01"/>
      <point x="430" y="121"/>
      <point x="380" y="70"/>
      <point x="300" y="70" type="curve" smooth="yes" name="sv02"/>
      <point x="219" y="70"/>
      <point x="170" y="121"/>
    </contour>
    <contour>
      <point x="80" y="205" type="line" smooth="yes" name="sh01"/>
      <point x="80" y="73"/>
      <point x="165" y="-10"/>
      <point x="300" y="-10" type="curve" smooth="yes" name="ab01"/>
      <point x="437" y="-10"/>
      <point x="520" y="72"/>
      <point x="520" y="205" type="curve" smooth="yes"/>
      <point x="520" y="346" type="line" smooth="yes" name="sh03"/>
      <point x="520" y="479"/>
      <point x="436" y="560"/>
      <point x="300" y="560" type="curve" smooth="yes" name="at01"/>
      <point x="165" y="560"/>
      <point x="80" y="477"/>
      <point x="80" y="345" type="curve" smooth="yes"/>
    </contour>
    <contour>
      <point x="475.5" y="660" type="line"/>
      <point x="475.5" y="569" type="line" smooth="yes"/>
      <point x="475.5" y="541.48"/>
      <point x="458.173" y="524"/>
      <point x="430.5" y="524" type="curve" smooth="yes"/>
      <point x="394.868" y="524" type="line"/>
      <point x="394.868" y="459" type="line"/>
      <point x="436.071" y="459" type="line" smooth="yes"/>
      <point x="504.729" y="459"/>
      <point x="550.5" y="501"/>
      <point x="550.5" y="564" type="curve" smooth="yes"/>
      <point x="550.5" y="660" type="line"/>
    </contour>
  </outline>
</glyph>
<glyph name="uni0237" format="2">
  <advance width="600" height="975"/>
  <unicode hex="0237"/>
  <outline>
    <contour>
      <point x="345" y="50" type="line" smooth="yes"/>
      <point x="345" y="-31"/>
      <point x="289" y="-87"/>
      <point x="205" y="-87" type="curve" smooth="yes"/>
      <point x="85" y="-87" type="line"/>
      <point x="85" y="-170" type="line"/>
      <point x="205" y="-170" type="line" smooth="yes"/>
      <point x="340" y="-170"/>
      <point x="435" y="-79"/>
      <point x="435" y="50" type="curve" smooth="yes"/>
      <point x="435" y="550" type="line"/>
      <point x="115" y="550" type="line"/>
      <point x="115" y="468" type="line"/>
      <point x="345" y="468" type="line"/>
    </contour>
  </outline>
</glyph>
<glyph name="uni0259" format="2">
  <advance width="600"/>
  <unicode hex="0259"/>
  <outline>
    <contour>
      <point x="431" y="301" type="line" name="dv01"/>
      <point x="80" y="301" type="line"/>
      <point x="80" y="204" type="line" smooth="yes" name="sh02"/>
      <point x="80" y="73"/>
      <point x="165" y="-10"/>
      <point x="300" y="-10" type="curve" smooth="yes" name="at01"/>
      <point x="435" y="-10"/>
      <point x="520" y="73"/>
      <point x="520" y="204" type="curve" smooth="yes" name="sh01"/>
      <point x="520" y="345" type="line" smooth="yes"/>
      <point x="520" y="476"/>
      <point x="435" y="560"/>
      <point x="300" y="560" type="curve" smooth="yes" name="ab01"/>
      <point x="190" y="560"/>
      <point x="106" y="508"/>
      <point x="83" y="425" type="curve" name="iv01"/>
      <point x="173" y="425" type="line" name="sh03"/>
      <point x="192" y="461"/>
      <point x="239" y="483"/>
      <point x="300" y="483" type="curve" smooth="yes" name="sv01"/>
      <point x="380" y="483"/>
      <point x="431" y="430"/>
      <point x="431" y="345" type="curve" smooth="yes"/>
    </contour>
    <contour>
      <point x="431" y="227" type="line" name="dv02"/>
      <point x="431" y="204" type="line" smooth="yes" name="sh04"/>
      <point x="431" y="120"/>
      <point x="380" y="66"/>
      <point x="300" y="66" type="curve" smooth="yes" name="sv02"/>
      <point x="220" y="66"/>
      <point x="169" y="120"/>
      <point x="169" y="204" type="curve" smooth="yes" name="ah01"/>
      <point x="169" y="235" type="line" name="iv02"/>
      <point x="162" y="227" type="line" name="sh05"/>
    </contour>
  </outline>
</glyph>
<glyph name="circumflex" format="2">
  <advance width="600" height="975"/>
  <unicode hex="02C6"/>
  <outline>
    <contour>
      <point x="260" y="785" type="line"/>
      <point x="342" y="785" type="line"/>
      <point x="483" y="645" type="line"/>
      <point x="378" y="645" type="line"/>
      <point x="303" y="720" type="line"/>
      <point x="297" y="720" type="line"/>
      <point x="219" y="645" type="line"/>
      <point x="117" y="645" type="line"/>
    </contour>
  </outline>
</glyph>
<glyph name="caron" format="2">
  <advance width="600" height="975"/>
  <unicode hex="02C7"/>
  <outline>
    <contour>
      <point x="341" y="645" type="line"/>
      <point x="259" y="645" type="line"/>
      <point x="117" y="785" type="line"/>
      <point x="211" y="785" type="line"/>
      <point x="294" y="707" type="line"/>
      <point x="304" y="707" type="line"/>
      <point x="387" y="785" type="line"/>
      <point x="483" y="785" type="line"/>
    </contour>
  </outline>
</glyph>
<glyph name="breve" format="2">
  <advance width="600" height="975"/>
  <unicode hex="02D8"/>
  <outline>
    <contour>
      <point x="299" y="699" type="curve" smooth="yes"/>
      <point x="357.829" y="699"/>
      <point x="394" y="731.745"/>
      <point x="394" y="785" type="curve" name="av01"/>
      <point x="465" y="785" type="line"/>
      <point x="465" y="698"/>
      <point x="399" y="640"/>
      <point x="300" y="640" type="curve" smooth="yes" name="av03"/>
      <point x="201" y="640"/>
      <point x="135" y="698"/>
      <point x="135" y="785" type="curve" name="av02"/>
      <point x="206" y="785" type="line"/>
      <point x="206" y="731.67"/>
      <point x="241.329" y="699"/>
    </contour>
  </outline>
</glyph>
<glyph name="ring" format="2">
  <advance width="600" height="975"/>
  <unicode hex="02DA"/>
  <outline>
    <contour>
      <point x="300" y="605" type="curve" smooth="yes"/>
      <point x="372" y="605"/>
      <point x="420" y="645"/>
      <point x="420" y="705" type="curve" smooth="yes"/>
      <point x="420" y="765"/>
      <point x="372" y="805"/>
      <point x="300" y="805" type="curve" smooth="yes"/>
      <point x="228" y="805"/>
      <point x="180" y="765"/>
      <point x="180" y="705" type="curve" smooth="yes"/>
      <point x="180" y="645"/>
      <point x="228" y="605"/>
    </contour>
    <contour>
      <point x="299" y="656" type="curve" smooth="yes"/>
      <point x="264" y="656"/>
      <point x="240" y="676"/>
      <point x="240" y="705" type="curve" smooth="yes"/>
      <point x="240" y="735"/>
      <point x="264" y="755"/>
      <point x="299" y="755" type="curve" smooth="yes"/>
      <point x="337" y="755"/>
      <point x="360" y="739"/>
      <point x="360" y="705" type="curve" smooth="yes"/>
      <point x="360" y="676"/>
      <point x="336" y="656"/>
    </contour>
  </outline>
</glyph>
<glyph name="ogonek" format="2">
  <advance width="600" height="975"/>
  <unicode hex="02DB"/>
  <outline>
    <contour>
      <point x="345" y="10" type="line"/>
      <point x="334" y="1" type="line"/>
      <point x="289" y="-36"/>
      <point x="270" y="-65"/>
      <point x="270" y="-92.7871" type="curve" smooth="yes"/>
      <point x="270" y="-122"/>
      <point x="291" y="-140"/>
      <point x="325" y="-140" type="curve" smooth="yes"/>
      <point x="385" y="-140" type="line"/>
      <point x="385" y="-200" type="line"/>
      <point x="307" y="-200" type="line" smooth="yes"/>
      <point x="233" y="-200"/>
      <point x="185" y="-164"/>
      <point x="185" y="-110" type="curve" smooth="yes"/>
      <point x="185" y="-72"/>
      <point x="207" y="-34"/>
      <point x="270" y="10" type="curve"/>
    </contour>
  </outline>
</glyph>
<glyph name="tilde" format="2">
  <advance width="600" height="975"/>
  <unicode hex="02DC"/>
  <outline>
    <contour>
      <point x="365" y="710" type="curve" smooth="yes"/>
      <point x="320" y="710"/>
      <point x="310" y="780"/>
      <point x="230" y="780" type="curve" smooth="yes"/>
      <point x="176" y="780"/>
      <point x="140" y="745"/>
      <point x="140" y="685" type="curve" smooth="yes"/>
      <point x="140" y="655" type="line"/>
      <point x="205" y="655" type="line"/>
      <point x="205" y="685" type="line" smooth="yes"/>
      <point x="205" y="709"/>
      <point x="217" y="720"/>
      <point x="235" y="720" type="curve" smooth="yes"/>
      <point x="280" y="720"/>
      <point x="290" y="650"/>
      <point x="370" y="650" type="curve" smooth="yes"/>
      <point x="424" y="650"/>
      <point x="460" y="685"/>
      <point x="460" y="745" type="curve" smooth="yes"/>
      <point x="460" y="775" type="line"/>
      <point x="395" y="775" type="line"/>
      <point x="395" y="745" type="line" smooth="yes"/>
      <point x="395" y="721"/>
      <point x="383" y="710"/>
    </contour>
  </outline>
</glyph>
<glyph name="hungarumlaut" format="2">
  <advance width="600" height="975"/>
  <unicode hex="02DD"/>
  <outline>
    <contour>
      <point x="165" y="645" type="line" name="av02"/>
      <point x="245" y="645" type="line"/>
      <point x="360" y="785" type="line" name="av01"/>
      <point x="270" y="785" type="line"/>
    </contour>
    <contour>
      <point x="340" y="645" type="line" name="av02"/>
      <point x="420" y="645" type="line"/>
      <point x="535" y="785" type="line" name="av01"/>
      <point x="445" y="785" type="line"/>
    </contour>
  </outline>
</glyph>
<glyph name="hookabovecomb" format="2">
  <advance width="600"/>
  <unicode hex="0309"/>
  <outline>
    <contour>
      <point x="248" y="645" type="line"/>
      <point x="298.23" y="708.452" type="line" smooth="yes"/>
      <point x="307.408" y="720.046"/>
      <point x="312" y="730.464"/>
      <point x="312" y="739.774" type="curve" smooth="yes"/>
      <point x="312" y="753.635"/>
      <point x="301.822" y="760"/>
      <point x="280" y="760" type="curve" smooth="yes"/>
      <point x="200" y="760" type="line"/>
      <point x="200" y="825" type="line"/>
      <point x="305" y="825" type="line" smooth="yes"/>
      <point x="356" y="825"/>
      <point x="390" y="796.846"/>
      <point x="390" y="750.951" type="curve" smooth="yes"/>
      <point x="390" y="730.955"/>
      <point x="383.546" y="710.49"/>
      <point x="372.773" y="696.533" type="curve" smooth="yes"/>
      <point x="333" y="645" type="line"/>
    </contour>
  </outline>
</glyph>
<glyph name="uni031B" format="2">
  <advance width="600"/>
  <unicode hex="031B"/>
  <outline>
    <contour>
      <point x="535" y="660" type="line"/>
      <point x="610" y="660" type="line"/>
      <point x="610" y="580" type="line" smooth="yes"/>
      <point x="610" y="523"/>
      <point x="567.829" y="485"/>
      <point x="504.571" y="485" type="curve" smooth="yes"/>
      <point x="480" y="485" type="line"/>
      <point x="480" y="550" type="line"/>
      <point x="500" y="550" type="line" smooth="yes"/>
      <point x="522.896" y="550"/>
      <point x="535" y="562.104"/>
      <point x="535" y="585" type="curve" smooth="yes"/>
    </contour>
  </outline>
</glyph>
<glyph name="dotbelowcomb" format="2">
  <advance width="600"/>
  <unicode hex="0323"/>
  <outline>
    <contour>
      <point x="280" y="-100" type="curve" smooth="yes"/>
      <point x="300" y="-100" type="line" smooth="yes"/>
      <point x="338.403" y="-100"/>
      <point x="365" y="-124.96"/>
      <point x="365" y="-161" type="curve" smooth="yes"/>
      <point x="365" y="-195.893"/>
      <point x="338.441" y="-220"/>
      <point x="300" y="-220" type="curve" smooth="yes"/>
      <point x="280" y="-220" type="line" smooth="yes"/>
      <point x="241.857" y="-220"/>
      <point x="215" y="-195.622"/>
      <point x="215" y="-161" type="curve" smooth="yes"/>
      <point x="215" y="-125.281"/>
      <point x="241.939" y="-100"/>
    </contour>
  </outline>
</glyph>
<glyph name="commaaccent" format="2">
  <advance width="600" height="975"/>
  <unicode hex="0326"/>
  <outline>
    <contour>
      <point x="285" y="-94" type="line"/>
      <point x="390" y="-94" type="line"/>
      <point x="285" y="-240" type="line"/>
      <point x="190" y="-240" type="line"/>
    </contour>
  </outline>
</glyph>
<glyph name="uni0336" format="2">
  <unicode hex="0336"/>
  <outline>
    <contour>
      <point x="-630" y="360" type="line"/>
      <point x="30" y="360" type="line"/>
      <point x="30" y="290" type="line"/>
      <point x="-630" y="290" type="line"/>
    </contour>
  </outline>
  <guideline angle="90" x="-600" y="0"/>
</glyph>
<glyph name="Delta" format="2">
  <advance width="600" height="985"/>
  <unicode hex="0394"/>
  <outline>
    <contour>
      <point x="240" y="720" type="line"/>
      <point x="366" y="720" type="line"/>
      <point x="540" y="75" type="line"/>
      <point x="540" y="0" type="line"/>
      <point x="60" y="0" type="line"/>
      <point x="60" y="75" type="line"/>
    </contour>
    <contour>
      <point x="150" y="75" type="line"/>
      <point x="450" y="75" type="line"/>
      <point x="322" y="563" type="line" smooth="yes"/>
      <point x="308" y="618"/>
      <point x="303" y="660"/>
      <point x="303" y="660" type="curve"/>
      <point x="299" y="660" type="line"/>
      <point x="299" y="660"/>
      <point x="294" y="619"/>
      <point x="279" y="563" type="curve" smooth="yes"/>
    </contour>
  </outline>
</glyph>
<glyph name="Omega" format="2">
  <advance width="600" height="985"/>
  <unicode hex="03A9"/>
  <outline>
    <contour>
      <point x="300" y="730" type="curve" smooth="yes"/>
      <point x="165" y="730"/>
      <point x="80" y="646"/>
      <point x="80" y="515" type="curve" smooth="yes"/>
      <point x="80" y="245" type="line" smooth="yes"/>
      <point x="80" y="100"/>
      <point x="195" y="85"/>
      <point x="195" y="85" type="curve"/>
      <point x="195" y="80" type="line"/>
      <point x="50" y="80" type="line"/>
      <point x="50" y="0" type="line"/>
      <point x="260" y="0" type="line"/>
      <point x="260" y="110" type="line"/>
      <point x="207" y="110"/>
      <point x="170" y="164"/>
      <point x="170" y="240" type="curve" smooth="yes"/>
      <point x="170" y="515" type="line" smooth="yes"/>
      <point x="170" y="597"/>
      <point x="221" y="650"/>
      <point x="300" y="650" type="curve" smooth="yes"/>
      <point x="379" y="650"/>
      <point x="430" y="597"/>
      <point x="430" y="515" type="curve" smooth="yes"/>
      <point x="430" y="240" type="line" smooth="yes"/>
      <point x="430" y="164"/>
      <point x="393" y="110"/>
      <point x="340" y="110" type="curve"/>
      <point x="340" y="0" type="line"/>
      <point x="551" y="0" type="line"/>
      <point x="551" y="80" type="line"/>
      <point x="405" y="80" type="line"/>
      <point x="405" y="86" type="line"/>
      <point x="405" y="86"/>
      <point x="520" y="100"/>
      <point x="520" y="245" type="curve" smooth="yes"/>
      <point x="520" y="515" type="line" smooth="yes"/>
      <point x="520" y="646"/>
      <point x="435" y="730"/>
    </contour>
  </outline>
</glyph>
<glyph name="pi" format="2">
  <advance width="600" height="985"/>
  <unicode hex="03C0"/>
  <outline>
    <contour>
      <point x="475" y="164" type="line" smooth="yes"/>
      <point x="475" y="109"/>
      <point x="500" y="79"/>
      <point x="547" y="79" type="curve" smooth="yes"/>
      <point x="575" y="79" type="line"/>
      <point x="575" y="-5" type="line"/>
      <point x="552" y="-5" type="line" smooth="yes"/>
      <point x="451" y="-5"/>
      <point x="385" y="64"/>
      <point x="385" y="170" type="curve" smooth="yes"/>
      <point x="385" y="468" type="line"/>
      <point x="190" y="468" type="line"/>
      <point x="190" y="0" type="line"/>
      <point x="100" y="0" type="line"/>
      <point x="100" y="469" type="line"/>
      <point x="20" y="469" type="line"/>
      <point x="20" y="550" type="line"/>
      <point x="555" y="550" type="line"/>
      <point x="555" y="472" type="line"/>
      <point x="475" y="472" type="line"/>
    </contour>
  </outline>
</glyph>
<glyph name="uni0402" format="2">
  <advance width="600" height="985"/>
  <unicode hex="0402"/>
  <outline>
    <contour>
      <point x="0" y="720" type="line"/>
      <point x="320" y="720" type="line"/>
      <point x="320" y="641" type="line"/>
      <point x="200" y="641" type="line"/>
      <point x="200" y="397" type="line"/>
      <point x="216" y="416" type="line" smooth="yes"/>
      <point x="258" y="466"/>
      <point x="312" y="495"/>
      <point x="365" y="495" type="curve" smooth="yes"/>
      <point x="466" y="495"/>
      <point x="535" y="423"/>
      <point x="535" y="316" type="curve" smooth="yes"/>
      <point x="535" y="25" type="line" smooth="yes"/>
      <point x="535" y="-93"/>
      <point x="454" y="-170"/>
      <point x="330" y="-170" type="curve" smooth="yes"/>
      <point x="260" y="-170" type="line"/>
      <point x="260" y="-88" type="line"/>
      <point x="330" y="-88" type="line" smooth="yes"/>
      <point x="401" y="-88"/>
      <point x="445" y="-45"/>
      <point x="445" y="25" type="curve" smooth="yes"/>
      <point x="445" y="296" type="line" smooth="yes"/>
      <point x="445" y="377"/>
      <point x="414" y="419"/>
      <point x="354" y="419" type="curve" smooth="yes"/>
      <point x="315" y="419"/>
      <point x="277" y="400"/>
      <point x="244" y="362" type="curve" smooth="yes"/>
      <point x="200" y="311" type="line"/>
      <point x="200" y="0" type="line"/>
      <point x="110" y="0" type="line"/>
      <point x="110" y="641" type="line"/>
      <point x="0" y="641" type="line"/>
    </contour>
  </outline>
</glyph>
<glyph name="uni0409" format="2">
  <advance width="600"/>
  <unicode hex="0409"/>
  <outline>
    <contour>
      <point x="148" y="194" type="line" smooth="yes"/>
      <point x="147" y="73"/>
      <point x="96" y="-5"/>
      <point x="10" y="-5" type="curve" smooth="yes" name="ab01"/>
      <point x="-5" y="-5" type="line"/>
      <point x="-5" y="75" type="line" name="sv01"/>
      <point x="13" y="75" type="line" smooth="yes"/>
      <point x="46" y="75"/>
      <point x="68" y="125"/>
      <point x="69" y="194" type="curve" smooth="yes"/>
      <point x="74" y="720" type="line" name="at01"/>
      <point x="360" y="720" type="line" name="sh02"/>
      <point x="360" y="430" type="line" name="dv02"/>
      <point x="420" y="430" type="line" smooth="yes"/>
      <point x="516" y="430"/>
      <point x="580" y="368"/>
      <point x="580" y="275" type="curve" smooth="yes"/>
      <point x="580" y="155" type="line" smooth="yes" name="sh03"/>
      <point x="580" y="62"/>
      <point x="516" y="0"/>
      <point x="420" y="0" type="curve" smooth="yes" name="ab02"/>
      <point x="280" y="0" type="line" name="sh01"/>
      <point x="280" y="645" type="line" name="sv02"/>
      <point x="153" y="645" type="line"/>
    </contour>
    <contour>
      <point x="360" y="355" type="line" name="dv01"/>
      <point x="360" y="75" type="line" name="sv03"/>
      <point x="420" y="75" type="line" smooth="yes" name="sv04"/>
      <point x="468" y="75"/>
      <point x="500" y="107"/>
      <point x="500" y="155" type="curve" smooth="yes" name="ah01"/>
      <point x="500" y="275" type="line" smooth="yes"/>
      <point x="500" y="323"/>
      <point x="468" y="355"/>
      <point x="420" y="355" type="curve" smooth="yes"/>
    </contour>
  </outline>
</glyph>
<glyph name="uni0413" format="2">
  <advance width="600" height="985"/>
  <unicode hex="0413"/>
  <outline>
    <contour>
      <point x="535" y="720" type="line" name="at01"/>
      <point x="535" y="638" type="line" name="sv01"/>
      <point x="195" y="638" type="line"/>
      <point x="195" y="0" type="line" name="ab01"/>
      <point x="105" y="0" type="line" name="dh01"/>
      <point x="105" y="720" type="line"/>
    </contour>
  </outline>
</glyph>
<glyph name="uni0414" format="2">
  <advance width="600"/>
  <unicode hex="0414"/>
  <outline>
    <contour>
      <point x="164" y="84" type="curve"/>
      <point x="164" y="77" type="line" name="sv01"/>
      <point x="415" y="77" type="line" name="sv04"/>
      <point x="415" y="640" type="line" name="sv05"/>
      <point x="217" y="640" type="line"/>
      <point x="213" y="380" type="line" smooth="yes"/>
      <point x="210" y="157"/>
      <point x="164" y="84"/>
    </contour>
    <contour>
      <point x="105" y="0" type="line" name="ab01"/>
      <point x="105" y="-140" type="line" name="sv06"/>
      <point x="25" y="-140" type="line" name="dh01"/>
      <point x="25" y="77" type="line" name="sv02"/>
      <point x="70" y="77" type="line" name="sv03"/>
      <point x="70" y="77"/>
      <point x="121" y="169"/>
      <point x="125" y="380" type="curve" smooth="yes"/>
      <point x="131" y="720" type="line" name="at01"/>
      <point x="505" y="720" type="line"/>
      <point x="505" y="77" type="line" name="sv07"/>
      <point x="575" y="77" type="line" name="sv08"/>
      <point x="575" y="-140" type="line" name="sv09"/>
      <point x="495" y="-140" type="line" name="ih01"/>
      <point x="495" y="0" type="line"/>
    </contour>
  </outline>
</glyph>
<glyph name="uni0417" format="2">
  <advance width="600"/>
  <unicode hex="0417"/>
  <outline>
    <contour>
      <point x="64" y="525" type="curve" name="dh01"/>
      <point x="154" y="525" type="line" name="dh02"/>
      <point x="154" y="600"/>
      <point x="208" y="650"/>
      <point x="289" y="650" type="curve" smooth="yes" name="sv01"/>
      <point x="371" y="650"/>
      <point x="424" y="603"/>
      <point x="424" y="529" type="curve" smooth="yes" name="sh01"/>
      <point x="424" y="456"/>
      <point x="370" y="407"/>
      <point x="289" y="407" type="curve" smooth="yes"/>
      <point x="195" y="407" type="line" name="dv02"/>
      <point x="195" y="325" type="line" name="dv01"/>
      <point x="290" y="325" type="line" smooth="yes"/>
      <point x="379" y="325"/>
      <point x="437" y="275"/>
      <point x="437" y="197" type="curve" smooth="yes" name="dh03"/>
      <point x="437" y="120"/>
      <point x="380" y="70"/>
      <point x="290" y="70" type="curve" smooth="yes" name="sv02"/>
      <point x="208" y="70"/>
      <point x="151" y="114"/>
      <point x="143" y="185" type="curve"/>
      <point x="53" y="185" type="line"/>
      <point x="61" y="66"/>
      <point x="153" y="-10"/>
      <point x="290" y="-10" type="curve" smooth="yes" name="ab01"/>
      <point x="438" y="-10"/>
      <point x="532" y="71"/>
      <point x="532" y="197" type="curve" smooth="yes" name="dh04"/>
      <point x="532" y="299"/>
      <point x="475" y="366"/>
      <point x="386" y="371" type="curve"/>
      <point x="386" y="377" type="line" name="iv01"/>
      <point x="466" y="383"/>
      <point x="519" y="446"/>
      <point x="519" y="535" type="curve" smooth="yes" name="ih01"/>
      <point x="519" y="654"/>
      <point x="429" y="730"/>
      <point x="289" y="730" type="curve" smooth="yes" name="at01"/>
      <point x="153" y="730"/>
      <point x="64" y="649"/>
    </contour>
  </outline>
</glyph>
<glyph name="uni0418" format="2">
  <advance width="600"/>
  <unicode hex="0418"/>
  <outline>
    <contour>
      <point x="85" y="720" type="line" name="at01"/>
      <point x="171" y="720" type="line" name="sh01"/>
      <point x="171" y="230" type="line" smooth="yes"/>
      <point x="171" y="160"/>
      <point x="161" y="100"/>
      <point x="162" y="100" type="curve"/>
      <point x="169" y="100" type="line" name="sh02"/>
      <point x="169" y="100"/>
      <point x="192" y="189"/>
      <point x="211" y="237" type="curve" smooth="yes"/>
      <point x="400" y="720" type="line" name="at02"/>
      <point x="515" y="720" type="line"/>
      <point x="515" y="0" type="line" name="ab01"/>
      <point x="429" y="0" type="line" name="ah01"/>
      <point x="429" y="492" type="line" smooth="yes"/>
      <point x="429" y="567"/>
      <point x="436" y="621"/>
      <point x="436" y="621" type="curve" name="sh03"/>
      <point x="429" y="621" type="line"/>
      <point x="429" y="621"/>
      <point x="409" y="543"/>
      <point x="386" y="484" type="curve" smooth="yes"/>
      <point x="200" y="0" type="line" name="ab02"/>
      <point x="85" y="0" type="line"/>
    </contour>
  </outline>
</glyph>
<glyph name="uni041B" format="2">
  <advance width="600"/>
  <unicode hex="041B"/>
  <outline>
    <contour>
      <point x="122" y="254" type="line" smooth="yes"/>
      <point x="120" y="126"/>
      <point x="97" y="79"/>
      <point x="38" y="79" type="curve" smooth="yes" name="sv01"/>
      <point x="20" y="79" type="line"/>
      <point x="20" y="-5" type="line" name="ab01"/>
      <point x="43" y="-5" type="line" smooth="yes"/>
      <point x="158" y="-5"/>
      <point x="210" y="75"/>
      <point x="212" y="254" type="curve" smooth="yes"/>
      <point x="217" y="638" type="line" name="sv02"/>
      <point x="420" y="638" type="line" name="dh01"/>
      <point x="420" y="0" type="line" name="ab02"/>
      <point x="510" y="0" type="line"/>
      <point x="510" y="720" type="line" name="at01"/>
      <point x="128" y="720" type="line"/>
    </contour>
  </outline>
</glyph>
<glyph name="uni0424" format="2">
  <advance width="600"/>
  <unicode hex="0424"/>
  <outline>
    <contour>
      <point x="258" y="45" type="curve" name="dv01"/>
      <point x="258" y="-20" type="line" name="av01"/>
      <point x="342" y="-20" type="line"/>
      <point x="342" y="45" type="line" name="sv01"/>
      <point x="466" y="45"/>
      <point x="550" y="128"/>
      <point x="550" y="253" type="curve" smooth="yes"/>
      <point x="550" y="487" type="line" smooth="yes" name="dh04"/>
      <point x="550" y="615"/>
      <point x="467" y="700"/>
      <point x="342" y="700" type="curve" name="dv04"/>
      <point x="342" y="765" type="line" name="av02"/>
      <point x="258" y="765" type="line"/>
      <point x="258" y="700" type="line" name="sv02"/>
      <point x="133" y="700"/>
      <point x="50" y="615"/>
      <point x="50" y="487" type="curve" smooth="yes" name="dh01"/>
      <point x="50" y="253" type="line" smooth="yes"/>
      <point x="50" y="128"/>
      <point x="134" y="45"/>
    </contour>
    <contour>
      <point x="342" y="121" type="curve" name="sv03"/>
      <point x="342" y="624" type="line" name="dv03"/>
      <point x="416" y="624"/>
      <point x="466" y="569"/>
      <point x="466" y="487" type="curve" smooth="yes" name="dh03"/>
      <point x="466" y="253" type="line" smooth="yes"/>
      <point x="466" y="174"/>
      <point x="416" y="121"/>
    </contour>
    <contour>
      <point x="134" y="487" type="line" smooth="yes" name="dh02"/>
      <point x="134" y="569"/>
      <point x="184" y="624"/>
      <point x="258" y="624" type="curve" name="sv04"/>
      <point x="258" y="121" type="line" name="dv02"/>
      <point x="184" y="121"/>
      <point x="134" y="174"/>
      <point x="134" y="253" type="curve" smooth="yes"/>
    </contour>
  </outline>
</glyph>
<glyph name="uni0428" format="2">
  <advance width="600" height="985"/>
  <unicode hex="0428"/>
  <outline>
    <contour>
      <point x="62" y="720" type="line" name="at01"/>
      <point x="64" y="0" type="line" name="ab01"/>
      <point x="538" y="0" type="line"/>
      <point x="538" y="720" type="line" name="at02"/>
      <point x="455" y="720" type="line" name="dh03"/>
      <point x="455" y="68" type="line" name="sv01"/>
      <point x="337" y="68" type="line"/>
      <point x="337" y="720" type="line" name="at03"/>
      <point x="265" y="720" type="line" name="dh02"/>
      <point x="265" y="68" type="line" name="sv02"/>
      <point x="146" y="68" type="line" name="sv03"/>
      <point x="146" y="720" type="line" name="dh01"/>
    </contour>
  </outline>
</glyph>
<glyph name="uni042B" format="2">
  <advance width="600" height="985"/>
  <unicode hex="042B"/>
  <outline>
    <contour>
      <point x="62" y="720" type="line" name="at01"/>
      <point x="62" y="0" type="line" name="ab01"/>
      <point x="193" y="0" type="line" smooth="yes"/>
      <point x="319" y="0"/>
      <point x="389" y="80"/>
      <point x="389" y="199" type="curve" smooth="yes"/>
      <point x="389" y="228" type="line" smooth="yes" name="dh03"/>
      <point x="389" y="348"/>
      <point x="319" y="428"/>
      <point x="193" y="428" type="curve" smooth="yes"/>
      <point x="146" y="428" type="line" name="dv02"/>
      <point x="146" y="720" type="line" name="dh01"/>
    </contour>
    <contour>
      <point x="146" y="348" type="line" name="dv01"/>
      <point x="193" y="348" type="line" smooth="yes"/>
      <point x="265" y="348"/>
      <point x="303" y="300"/>
      <point x="303" y="228" type="curve" smooth="yes" name="dh02"/>
      <point x="303" y="200" type="line" smooth="yes"/>
      <point x="303" y="128"/>
      <point x="265" y="80"/>
      <point x="193" y="80" type="curve" smooth="yes" name="sv01"/>
      <point x="146" y="80" type="line"/>
    </contour>
    <contour>
      <point x="454" y="720" type="line" name="at02"/>
      <point x="454" y="0" type="line" name="ab02"/>
      <point x="538" y="0" type="line"/>
      <point x="538" y="720" type="line" name="dh04"/>
    </contour>
  </outline>
</glyph>
<glyph name="uni042C" format="2">
  <advance width="600" height="985"/>
  <unicode hex="042C"/>
  <outline>
    <contour>
      <point x="457" y="215" type="curve" smooth="yes" name="ah01"/>
      <point x="457" y="295"/>
      <point x="404" y="348"/>
      <point x="325" y="348" type="curve" smooth="yes" name="dv01"/>
      <point x="180" y="348" type="line"/>
      <point x="180" y="82" type="line" name="sv01"/>
      <point x="325" y="82" type="line" smooth="yes"/>
      <point x="404" y="82"/>
      <point x="457" y="135"/>
    </contour>
    <contour>
      <point x="180" y="720" type="line" name="at01"/>
      <point x="180" y="430" type="line"/>
      <point x="330" y="430" type="line" smooth="yes" name="dv02"/>
      <point x="461" y="430"/>
      <point x="550" y="344"/>
      <point x="550" y="215" type="curve" smooth="yes" name="sh02"/>
      <point x="550" y="87"/>
      <point x="461" y="0"/>
      <point x="330" y="0" type="curve" smooth="yes" name="ab01"/>
      <point x="90" y="0" type="line" name="sh01"/>
      <point x="90" y="720" type="line"/>
    </contour>
  </outline>
</glyph>
<glyph name="uni042E" format="2">
  <advance width="600" height="985"/>
  <unicode hex="042E"/>
  <outline>
    <contour>
      <point x="20" y="0" type="line" name="dh01"/>
      <point x="106" y="0" type="line" name="dh02"/>
      <point x="106" y="335" type="line" name="dv01"/>
      <point x="212" y="335" type="line"/>
      <point x="212" y="180" type="line" smooth="yes" name="dh03"/>
      <point x="212" y="66"/>
      <point x="285" y="-10"/>
      <point x="396" y="-10" type="curve" smooth="yes" name="ab01"/>
      <point x="507" y="-10"/>
      <point x="580" y="66"/>
      <point x="580" y="180" type="curve" smooth="yes"/>
      <point x="580" y="540" type="line" smooth="yes" name="dh06"/>
      <point x="580" y="654"/>
      <point x="507" y="730"/>
      <point x="396" y="730" type="curve" smooth="yes" name="at01"/>
      <point x="285" y="730"/>
      <point x="212" y="654"/>
      <point x="212" y="540" type="curve" smooth="yes" name="sh01"/>
      <point x="212" y="415" type="line"/>
      <point x="106" y="415" type="line" name="dv02"/>
      <point x="106" y="720" type="line"/>
      <point x="20" y="720" type="line"/>
    </contour>
    <contour>
      <point x="396" y="652" type="curve" smooth="yes" name="sv01"/>
      <point x="456" y="652"/>
      <point x="494" y="608"/>
      <point x="494" y="540" type="curve" smooth="yes" name="dh05"/>
      <point x="494" y="180" type="line" smooth="yes"/>
      <point x="494" y="112"/>
      <point x="456" y="68"/>
      <point x="396" y="68" type="curve" smooth="yes" name="sv02"/>
      <point x="336" y="68"/>
      <point x="298" y="112"/>
      <point x="298" y="180" type="curve" smooth="yes" name="dh04"/>
      <point x="298" y="540" type="line" smooth="yes"/>
      <point x="298" y="608"/>
      <point x="336" y="652"/>
    </contour>
  </outline>
</glyph>
<glyph name="uni042F" format="2">
  <advance width="600"/>
  <unicode hex="042F"/>
  <outline>
    <contour>
      <point x="280" y="720" type="curve" smooth="yes" name="at01"/>
      <point x="510" y="720" type="line"/>
      <point x="510" y="0" type="line" name="ab01"/>
      <point x="420" y="0" type="line" name="ah01"/>
      <point x="420" y="300" type="line" name="dv01"/>
      <point x="296" y="300" type="line"/>
      <point x="155" y="0" type="line" name="ab02"/>
      <point x="53" y="0" type="line"/>
      <point x="203" y="311" type="line"/>
      <point x="117" y="338"/>
      <point x="63" y="412"/>
      <point x="63" y="510" type="curve" smooth="yes" name="sh01"/>
      <point x="63" y="635"/>
      <point x="150" y="720"/>
    </contour>
    <contour>
      <point x="156" y="510" type="curve" smooth="yes" name="sh02"/>
      <point x="156" y="432"/>
      <point x="205" y="380"/>
      <point x="280" y="380" type="curve" smooth="yes"/>
      <point x="420" y="380" type="line" name="dv02"/>
      <point x="420" y="640" type="line" name="sv01"/>
      <point x="280" y="640" type="line" smooth="yes"/>
      <point x="206" y="640"/>
      <point x="156" y="588"/>
    </contour>
  </outline>
</glyph>
<glyph name="uni0431" format="2">
  <advance width="600" height="985"/>
  <unicode hex="0431"/>
  <outline>
    <contour>
      <point x="430" y="280" type="curve" smooth="yes" name="ah01"/>
      <point x="430" y="205" type="line" smooth="yes"/>
      <point x="430" y="121"/>
      <point x="381" y="70"/>
      <point x="300" y="70" type="curve" smooth="yes" name="sv01"/>
      <point x="220" y="70"/>
      <point x="170" y="121"/>
      <point x="170" y="205" type="curve" smooth="yes" name="sh03"/>
      <point x="170" y="280" type="line" smooth="yes"/>
      <point x="170" y="364"/>
      <point x="220" y="415"/>
      <point x="300" y="415" type="curve" smooth="yes" name="dv01"/>
      <point x="381" y="415"/>
      <point x="430" y="364"/>
    </contour>
    <contour>
      <point x="80" y="435" type="curve" smooth="yes" name="sh01"/>
      <point x="80" y="205" type="line" smooth="yes"/>
      <point x="80" y="71"/>
      <point x="163" y="-10"/>
      <point x="300" y="-10" type="curve" smooth="yes" name="ab01"/>
      <point x="436" y="-10"/>
      <point x="520" y="72"/>
      <point x="520" y="205" type="curve" smooth="yes"/>
      <point x="520" y="280" type="line" smooth="yes" name="sh04"/>
      <point x="520" y="411"/>
      <point x="448" y="490"/>
      <point x="330" y="490" type="curve" smooth="yes" name="dv02"/>
      <point x="200" y="490"/>
      <point x="180" y="390"/>
      <point x="180" y="390" type="curve"/>
      <point x="170" y="390" type="line"/>
      <point x="170" y="435" type="line" smooth="yes" name="sh02"/>
      <point x="170" y="555"/>
      <point x="237" y="630"/>
      <point x="345" y="630" type="curve" smooth="yes" name="sv02"/>
      <point x="495" y="630" type="line"/>
      <point x="495" y="720" type="line" name="at01"/>
      <point x="345" y="720" type="line" smooth="yes"/>
      <point x="181" y="720"/>
      <point x="80" y="611"/>
    </contour>
  </outline>
</glyph>
<glyph name="uni0433" format="2">
  <advance width="600" height="985"/>
  <unicode hex="0433"/>
  <outline>
    <contour>
      <point x="535" y="550" type="line" name="at01"/>
      <point x="535" y="468" type="line" name="sv01"/>
      <point x="195" y="468" type="line"/>
      <point x="195" y="0" type="line" name="ab01"/>
      <point x="105" y="0" type="line" name="dh01"/>
      <point x="105" y="550" type="line"/>
    </contour>
  </outline>
</glyph>
<glyph name="uni0436" format="2">
  <advance width="600"/>
  <unicode hex="0436"/>
  <outline>
    <contour>
      <point x="5" y="0" type="line" name="ab01"/>
      <point x="126" y="282" type="line"/>
      <point x="13" y="550" type="line" name="at01"/>
      <point x="104" y="550" type="line"/>
      <point x="198" y="312" type="line" name="sv01"/>
      <point x="260" y="312" type="line" name="dh01"/>
      <point x="260" y="550" type="line" name="at02"/>
      <point x="340" y="550" type="line"/>
      <point x="340" y="312" type="line" name="dh02"/>
      <point x="402" y="312" type="line" name="dv02"/>
      <point x="496" y="550" type="line" name="at03"/>
      <point x="587" y="550" type="line"/>
      <point x="474" y="285" type="line"/>
      <point x="595" y="0" type="line" name="ab02"/>
      <point x="500" y="0" type="line"/>
      <point x="403" y="248" type="line" name="dv01"/>
      <point x="340" y="248" type="line" name="sh01"/>
      <point x="340" y="0" type="line" name="ab03"/>
      <point x="260" y="0" type="line" name="sh02"/>
      <point x="260" y="248" type="line" name="sv02"/>
      <point x="197" y="248" type="line"/>
      <point x="100" y="0" type="line"/>
    </contour>
  </outline>
</glyph>
<glyph name="uni0437" format="2">
  <advance width="600" height="985"/>
  <unicode hex="0437"/>
  <outline>
    <contour>
      <point x="65" y="415" type="curve"/>
      <point x="160" y="415" type="line"/>
      <point x="168" y="450"/>
      <point x="210" y="477"/>
      <point x="264" y="477" type="curve" smooth="yes" name="sv01"/>
      <point x="324" y="477" type="line" smooth="yes"/>
      <point x="384" y="477"/>
      <point x="417" y="449"/>
      <point x="417" y="400" type="curve" smooth="yes" name="sh01"/>
      <point x="417" y="352"/>
      <point x="384" y="320"/>
      <point x="323" y="320" type="curve" smooth="yes"/>
      <point x="189" y="320" type="line" name="sv02"/>
      <point x="189" y="242" type="line"/>
      <point x="326" y="242" type="line" smooth="yes" name="dv01"/>
      <point x="394" y="242"/>
      <point x="430" y="209"/>
      <point x="430" y="156" type="curve" smooth="yes" name="dh01"/>
      <point x="430" y="107"/>
      <point x="391" y="73"/>
      <point x="326" y="73" type="curve" smooth="yes" name="sv03"/>
      <point x="269" y="73" type="line" smooth="yes"/>
      <point x="207" y="73"/>
      <point x="164" y="96"/>
      <point x="155" y="130" type="curve"/>
      <point x="60" y="130" type="line"/>
      <point x="74" y="46"/>
      <point x="153" y="-7"/>
      <point x="269" y="-7" type="curve" smooth="yes" name="ab01"/>
      <point x="326" y="-7" type="line" smooth="yes"/>
      <point x="447" y="-7"/>
      <point x="525" y="54"/>
      <point x="525" y="152" type="curve" smooth="yes" name="dh02"/>
      <point x="525" y="234"/>
      <point x="484" y="278"/>
      <point x="390" y="285" type="curve" name="dv02"/>
      <point x="390" y="289" type="line"/>
      <point x="467" y="294"/>
      <point x="512" y="339"/>
      <point x="512" y="405" type="curve" smooth="yes" name="ih01"/>
      <point x="512" y="499"/>
      <point x="442" y="557"/>
      <point x="324" y="557" type="curve" smooth="yes" name="at01"/>
      <point x="264" y="557" type="line" smooth="yes"/>
      <point x="158" y="557"/>
      <point x="78" y="498"/>
    </contour>
  </outline>
</glyph>
<glyph name="uni0438" format="2">
  <advance width="600"/>
  <unicode hex="0438"/>
  <outline>
    <contour>
      <point x="90" y="550" type="line" name="at01"/>
      <point x="176" y="550" type="line" name="sh01"/>
      <point x="176" y="300" type="line" smooth="yes"/>
      <point x="176" y="220"/>
      <point x="167" y="90"/>
      <point x="168" y="90" type="curve" name="sh02"/>
      <point x="176" y="90" type="line"/>
      <point x="176" y="90"/>
      <point x="202" y="159"/>
      <point x="226" y="207" type="curve" smooth="yes"/>
      <point x="395" y="550" type="line" name="at02"/>
      <point x="510" y="550" type="line"/>
      <point x="510" y="0" type="line" name="ab01"/>
      <point x="424" y="0" type="line" name="ah01"/>
      <point x="424" y="250" type="line" smooth="yes"/>
      <point x="424" y="335"/>
      <point x="432" y="461"/>
      <point x="432" y="461" type="curve" name="sh03"/>
      <point x="424" y="461" type="line"/>
      <point x="424" y="461"/>
      <point x="400" y="403"/>
      <point x="371" y="344" type="curve" smooth="yes"/>
      <point x="205" y="0" type="line" name="ab02"/>
      <point x="90" y="0" type="line"/>
    </contour>
  </outline>
</glyph>
<glyph name="uni043A" format="2">
  <advance width="600"/>
  <unicode hex="043A"/>
  <outline>
    <contour>
      <point x="180" y="550" type="line" name="at01"/>
      <point x="180" y="320" type="line"/>
      <point x="288" y="320" type="line" name="dv02"/>
      <point x="456" y="550" type="line" name="at02"/>
      <point x="559" y="550" type="line"/>
      <point x="363" y="285" type="line"/>
      <point x="562" y="0" type="line" name="ab01"/>
      <point x="456" y="0" type="line"/>
      <point x="289" y="240" type="line" name="dv01"/>
      <point x="180" y="240" type="line"/>
      <point x="180" y="0" type="line" name="ab02"/>
      <point x="90" y="0" type="line" name="dh01"/>
      <point x="90" y="550" type="line"/>
    </contour>
  </outline>
</glyph>
<glyph name="uni043D" format="2">
  <advance width="600" height="985"/>
  <unicode hex="043D"/>
  <outline>
    <contour>
      <point x="420" y="550" type="line" name="at01"/>
      <point x="420" y="318" type="line"/>
      <point x="180" y="318" type="line" name="dv02"/>
      <point x="180" y="550" type="line" name="at02"/>
      <point x="90" y="550" type="line" name="sh01"/>
      <point x="90" y="0" type="line" name="ab01"/>
      <point x="180" y="0" type="line" name="sh02"/>
      <point x="180" y="236" type="line" name="dv01"/>
      <point x="420" y="236" type="line" name="sh03"/>
      <point x="420" y="0" type="line" name="ab02"/>
      <point x="510" y="0" type="line"/>
      <point x="510" y="550" type="line" name="sh04"/>
    </contour>
  </outline>
</glyph>
<glyph name="uni0447" format="2">
  <advance width="600"/>
  <unicode hex="0447"/>
  <outline>
    <contour>
      <point x="295" y="270" type="line" smooth="yes" name="dv02"/>
      <point x="214" y="270"/>
      <point x="165" y="312"/>
      <point x="165" y="380" type="curve" smooth="yes"/>
      <point x="165" y="550" type="line" name="at01"/>
      <point x="75" y="550" type="line" name="sh01"/>
      <point x="75" y="380" type="line" smooth="yes"/>
      <point x="75" y="258"/>
      <point x="154" y="188"/>
      <point x="290" y="189" type="curve" smooth="yes" name="dv01"/>
      <point x="415" y="190" type="line" name="sh02"/>
      <point x="415" y="0" type="line" name="ab01"/>
      <point x="505" y="0" type="line" name="sh03"/>
      <point x="505" y="550" type="line" name="at02"/>
      <point x="415" y="550" type="line" name="sh04"/>
      <point x="415" y="270" type="line"/>
    </contour>
  </outline>
</glyph>
<glyph name="uni0449" format="2">
  <advance width="600"/>
  <unicode hex="0449"/>
  <outline>
    <contour>
      <point x="60" y="550" type="line" name="at01"/>
      <point x="60" y="0" type="line" name="ab01"/>
      <point x="477" y="0" type="line" name="ih01"/>
      <point x="477" y="-140" type="line" name="sv03"/>
      <point x="565" y="-140" type="line"/>
      <point x="565" y="74" type="line" name="sv01"/>
      <point x="516" y="74" type="line" name="sv04"/>
      <point x="516" y="550" type="line" name="at02"/>
      <point x="432" y="550" type="line" name="dh03"/>
      <point x="432" y="74" type="line" name="sv02"/>
      <point x="324" y="74" type="line" name="sv05"/>
      <point x="324" y="550" type="line" name="at03"/>
      <point x="252" y="550" type="line" name="dh02"/>
      <point x="252" y="74" type="line" name="sv06"/>
      <point x="144" y="74" type="line" name="sv07"/>
      <point x="144" y="550" type="line" name="dh01"/>
    </contour>
  </outline>
</glyph>
<glyph name="uni044E" format="2">
  <advance width="600"/>
  <unicode hex="044E"/>
  <outline>
    <contour>
      <point x="62" y="0" type="line" name="dh01"/>
      <point x="145" y="0" type="line" name="dh02"/>
      <point x="145" y="243" type="line" name="dv01"/>
      <point x="233" y="243" type="line"/>
      <point x="233" y="160" type="line" smooth="yes" name="dh03"/>
      <point x="233" y="56"/>
      <point x="291" y="-10"/>
      <point x="381" y="-10" type="curve" smooth="yes" name="ab01"/>
      <point x="478" y="-10"/>
      <point x="540" y="56"/>
      <point x="540" y="160" type="curve" smooth="yes"/>
      <point x="540" y="390" type="line" smooth="yes" name="dh06"/>
      <point x="540" y="494"/>
      <point x="478" y="560"/>
      <point x="381" y="560" type="curve" smooth="yes" name="at01"/>
      <point x="291" y="560"/>
      <point x="233" y="493"/>
      <point x="233" y="390" type="curve" smooth="yes" name="sh01"/>
      <point x="233" y="315" type="line"/>
      <point x="145" y="315" type="line" name="dv02"/>
      <point x="145" y="550" type="line"/>
      <point x="62" y="550" type="line" name="at02"/>
    </contour>
    <contour>
      <point x="381" y="490" type="curve" smooth="yes" name="sv01"/>
      <point x="429" y="490"/>
      <point x="457" y="453"/>
      <point x="457" y="390" type="curve" smooth="yes" name="dh05"/>
      <point x="457" y="160" type="line" smooth="yes"/>
      <point x="457" y="97"/>
      <point x="429" y="60"/>
      <point x="381" y="60" type="curve" smooth="yes" name="sv02"/>
      <point x="335" y="60"/>
      <point x="307" y="97"/>
      <point x="307" y="160" type="curve" smooth="yes" name="dh04"/>
      <point x="307" y="390" type="line" smooth="yes"/>
      <point x="307" y="453"/>
      <point x="335" y="490"/>
    </contour>
  </outline>
</glyph>
<glyph name="uni045B" format="2">
  <advance width="600" height="985"/>
  <unicode hex="045B"/>
  <outline>
    <contour>
      <point x="178" y="550" type="line"/>
      <point x="178" y="500" type="line" smooth="yes"/>
      <point x="178" y="463"/>
      <point x="173" y="405"/>
      <point x="173" y="405" type="curve"/>
      <point x="181" y="405" type="line"/>
      <point x="198" y="471"/>
      <point x="254" y="510"/>
      <point x="332" y="510" type="curve" smooth="yes"/>
      <point x="441" y="510"/>
      <point x="513" y="433"/>
      <point x="513" y="316" type="curve" smooth="yes"/>
      <point x="513" y="0" type="line"/>
      <point x="423" y="0" type="line"/>
      <point x="423" y="301" type="line" smooth="yes"/>
      <point x="423" y="384"/>
      <point x="378" y="434"/>
      <point x="302" y="434" type="curve" smooth="yes"/>
      <point x="226" y="434"/>
      <point x="178" y="380"/>
      <point x="178" y="295" type="curve" smooth="yes"/>
      <point x="178" y="0" type="line"/>
      <point x="88" y="0" type="line"/>
      <point x="88" y="550" type="line"/>
      <point x="20" y="550" type="line"/>
      <point x="20" y="625" type="line"/>
      <point x="88" y="625" type="line"/>
      <point x="88" y="730" type="line"/>
      <point x="178" y="730" type="line"/>
      <point x="178" y="625" type="line"/>
      <point x="280" y="625" type="line"/>
      <point x="280" y="550" type="line"/>
    </contour>
  </outline>
</glyph>
<glyph name="uni0491" format="2">
  <advance width="600" height="985"/>
  <unicode hex="0491"/>
  <outline>
    <contour>
      <point x="450" y="550" type="line"/>
      <point x="450" y="655" type="line"/>
      <point x="535" y="655" type="line"/>
      <point x="535" y="468" type="line"/>
      <point x="195" y="468" type="line"/>
      <point x="195" y="0" type="line"/>
      <point x="105" y="0" type="line"/>
      <point x="105" y="550" type="line"/>
    </contour>
  </outline>
</glyph>
<glyph name="uni04E8" format="2">
  <advance width="600"/>
  <unicode hex="04E8"/>
  <outline>
    <contour>
      <point x="300" y="-10" type="curve" smooth="yes"/>
      <point x="434" y="-10"/>
      <point x="520" y="75"/>
      <point x="520" y="205" type="curve" smooth="yes"/>
      <point x="520" y="515" type="line" smooth="yes"/>
      <point x="520" y="646"/>
      <point x="435" y="730"/>
      <point x="300" y="730" type="curve" smooth="yes"/>
      <point x="165" y="730"/>
      <point x="80" y="646"/>
      <point x="80" y="515" type="curve" smooth="yes"/>
      <point x="80" y="205" type="line" smooth="yes"/>
      <point x="80" y="74"/>
      <point x="165" y="-10"/>
    </contour>
    <contour>
      <point x="430" y="320" type="line"/>
      <point x="430" y="205" type="line" smooth="yes"/>
      <point x="430" y="123"/>
      <point x="379" y="70"/>
      <point x="300" y="70" type="curve" smooth="yes"/>
      <point x="221" y="70"/>
      <point x="170" y="123"/>
      <point x="170" y="205" type="curve" smooth="yes"/>
      <point x="170" y="320" type="line"/>
    </contour>
    <contour>
      <point x="170" y="405" type="line"/>
      <point x="170" y="515" type="line" smooth="yes"/>
      <point x="170" y="597"/>
      <point x="221" y="650"/>
      <point x="300" y="650" type="curve" smooth="yes"/>
      <point x="379" y="650"/>
      <point x="430" y="597"/>
      <point x="430" y="515" type="curve" smooth="yes"/>
      <point x="430" y="405" type="line"/>
    </contour>
  </outline>
</glyph>
<glyph name="endash" format="2">
  <advance width="600" height="975"/>
  <unicode hex="2013"/>
  <outline>
    <contour>
      <point x="70" y="370" type="line"/>
      <point x="530" y="370" type="line"/>
      <point x="530" y="290" type="line"/>
      <point x="70" y="290" type="line"/>
    </contour>
  </outline>
</glyph>
<glyph name="emdash" format="2">
  <advance width="600" height="975"/>
  <unicode hex="2014"/>
  <outline>
    <contour>
      <point x="15" y="370" type="line"/>
      <point x="585" y="370" type="line"/>
      <point x="585" y="290" type="line"/>
      <point x="15" y="290" type="line"/>
    </contour>
  </outline>
</glyph>
<glyph name="quoteright" format="2">
  <advance width="600" height="975"/>
  <unicode hex="2019"/>
  <outline>
    <contour>
      <point x="375" y="776" type="line"/>
      <point x="245" y="465" type="line"/>
      <point x="165" y="465" type="line"/>
      <point x="245" y="776" type="line"/>
    </contour>
  </outline>
</glyph>
<glyph name="dagger" format="2">
  <advance width="600" height="985"/>
  <unicode hex="2020"/>
  <outline>
    <contour>
      <point x="345" y="520" type="line"/>
      <point x="345" y="-110" type="line" name="av02"/>
      <point x="255" y="-110" type="line"/>
      <point x="255" y="520" type="line"/>
      <point x="80" y="520" type="line"/>
      <point x="80" y="600" type="line"/>
      <point x="255" y="600" type="line"/>
      <point x="255" y="830" type="line" name="av01"/>
      <point x="345" y="830" type="line" name="dh01"/>
      <point x="345" y="600" type="line"/>
      <point x="520" y="600" type="line" name="dv02"/>
      <point x="520" y="520" type="line" name="dv01"/>
    </contour>
  </outline>
</glyph>
<glyph name="daggerdbl" format="2">
  <advance width="600" height="985"/>
  <unicode hex="2021"/>
  <outline>
    <contour>
      <point x="255" y="220" type="line"/>
      <point x="255" y="510" type="line"/>
      <point x="80" y="510" type="line"/>
      <point x="80" y="590" type="line"/>
      <point x="255" y="590" type="line"/>
      <point x="255" y="830" type="line" name="av01"/>
      <point x="345" y="830" type="line" name="dh01"/>
      <point x="345" y="590" type="line"/>
      <point x="520" y="590" type="line" name="dv02"/>
      <point x="520" y="510" type="line" name="dv01"/>
      <point x="345" y="510" type="line"/>
      <point x="345" y="220" type="line"/>
      <point x="520" y="220" type="line" name="dv04"/>
      <point x="520" y="140" type="line" name="dv03"/>
      <point x="345" y="140" type="line"/>
      <point x="345" y="-110" type="line" name="av02"/>
      <point x="255" y="-110" type="line"/>
      <point x="255" y="140" type="line"/>
      <point x="80" y="140" type="line"/>
      <point x="80" y="220" type="line"/>
    </contour>
  </outline>
</glyph>
<glyph name="bullet" format="2">
  <advance width="600" height="975"/>
  <unicode hex="2022"/>
  <outline>
    <contour>
      <point x="180" y="365" type="curve" smooth="yes"/>
      <point x="180" y="434.8"/>
      <point x="230.2" y="485"/>
      <point x="300" y="485" type="curve" smooth="yes"/>
      <point x="369.8" y="485"/>
      <point x="420" y="434.8"/>
      <point x="420" y="365" type="curve" smooth="yes"/>
      <point x="420" y="295.2"/>
      <point x="369.8" y="245"/>
      <point x="300" y="245" type="curve" smooth="yes"/>
      <point x="230.2" y="245"/>
      <point x="180" y="295.2"/>
    </contour>
  </outline>
</glyph>
<glyph name="ellipsis" format="2">
  <advance width="600" height="975"/>
  <unicode hex="2026"/>
  <outline>
    <contour>
      <point x="60" y="115" type="line" smooth="yes"/>
      <point x="60" y="148"/>
      <point x="80" y="170"/>
      <point x="110" y="170" type="curve" smooth="yes"/>
      <point x="140" y="170"/>
      <point x="160" y="148"/>
      <point x="160" y="115" type="curve" smooth="yes"/>
      <point x="160" y="45" type="line" smooth="yes"/>
      <point x="160" y="12"/>
      <point x="140" y="-10"/>
      <point x="110" y="-10" type="curve" smooth="yes"/>
      <point x="80" y="-10"/>
      <point x="60" y="12"/>
      <point x="60" y="45" type="curve" smooth="yes"/>
    </contour>
    <contour>
      <point x="250" y="115" type="line" smooth="yes"/>
      <point x="250" y="148"/>
      <point x="270" y="170"/>
      <point x="300" y="170" type="curve" smooth="yes"/>
      <point x="330" y="170"/>
      <point x="350" y="148"/>
      <point x="350" y="115" type="curve" smooth="yes"/>
      <point x="350" y="45" type="line" smooth="yes"/>
      <point x="350" y="12"/>
      <point x="330" y="-10"/>
      <point x="300" y="-10" type="curve" smooth="yes"/>
      <point x="270" y="-10"/>
      <point x="250" y="12"/>
      <point x="250" y="45" type="curve" smooth="yes"/>
    </contour>
    <contour>
      <point x="440" y="115" type="line" smooth="yes"/>
      <point x="440" y="148"/>
      <point x="460" y="170"/>
      <point x="490" y="170" type="curve" smooth="yes"/>
      <point x="520" y="170"/>
      <point x="540" y="148"/>
      <point x="540" y="115" type="curve" smooth="yes"/>
      <point x="540" y="45" type="line" smooth="yes"/>
      <point x="540" y="12"/>
      <point x="520" y="-10"/>
      <point x="490" y="-10" type="curve" smooth="yes"/>
      <point x="460" y="-10"/>
      <point x="440" y="12"/>
      <point x="440" y="45" type="curve" smooth="yes"/>
    </contour>
  </outline>
</glyph>
<glyph name="fraction" format="2">
  <advance width="600" height="985"/>
  <unicode hex="2044"/>
  <outline>
    <contour>
      <point x="447" y="720" type="line"/>
      <point x="508" y="720" type="line"/>
      <point x="153" y="0" type="line"/>
      <point x="92" y="0" type="line"/>
    </contour>
  </outline>
</glyph>
<glyph name="uni2070" format="2">
  <advance width="600" height="985"/>
  <unicode hex="2070"/>
  <outline>
    <contour>
      <point x="300" y="715" type="curve" smooth="yes"/>
      <point x="254" y="715"/>
      <point x="230" y="684"/>
      <point x="230" y="635" type="curve" smooth="yes"/>
      <point x="230" y="570" type="line" smooth="yes"/>
      <point x="230" y="521"/>
      <point x="254" y="490"/>
      <point x="300" y="490" type="curve" smooth="yes"/>
      <point x="351" y="490"/>
      <point x="370" y="526"/>
      <point x="370" y="570" type="curve" smooth="yes"/>
      <point x="370" y="635" type="line" smooth="yes"/>
      <point x="370" y="684"/>
      <point x="346" y="715"/>
    </contour>
    <contour>
      <point x="300" y="435" type="curve" smooth="yes"/>
      <point x="216" y="435"/>
      <point x="170" y="486"/>
      <point x="170" y="570" type="curve" smooth="yes"/>
      <point x="170" y="635" type="line" smooth="yes"/>
      <point x="170" y="719"/>
      <point x="216" y="770"/>
      <point x="300" y="770" type="curve" smooth="yes"/>
      <point x="384" y="770"/>
      <point x="430" y="719"/>
      <point x="430" y="635" type="curve" smooth="yes"/>
      <point x="430" y="570" type="line" smooth="yes"/>
      <point x="430" y="486"/>
      <point x="384" y="435"/>
    </contour>
  </outline>
</glyph>
<glyph name="dong" format="2">
  <advance width="600"/>
  <unicode hex="20AB"/>
  <outline>
    <contour>
      <point x="427" y="720" type="line"/>
      <point x="512" y="720" type="line"/>
      <point x="512" y="650" type="line"/>
      <point x="590" y="650" type="line"/>
      <point x="590" y="585" type="line"/>
      <point x="512" y="585" type="line"/>
      <point x="512" y="60" type="line"/>
      <point x="432" y="60" type="line"/>
      <point x="432" y="155" type="line"/>
      <point x="424" y="155" type="line"/>
      <point x="407" y="89"/>
      <point x="346" y="50"/>
      <point x="265" y="50" type="curve" smooth="yes"/>
      <point x="154" y="50"/>
      <point x="80" y="132"/>
      <point x="80" y="265" type="curve" smooth="yes"/>
      <point x="80" y="305" type="line" smooth="yes"/>
      <point x="80" y="438"/>
      <point x="154" y="520"/>
      <point x="265" y="520" type="curve" smooth="yes"/>
      <point x="346" y="520"/>
      <point x="407" y="481"/>
      <point x="424" y="415" type="curve"/>
      <point x="432" y="415" type="line"/>
      <point x="432" y="415"/>
      <point x="427" y="475"/>
      <point x="427" y="510" type="curve" smooth="yes"/>
      <point x="427" y="585" type="line"/>
      <point x="285" y="585" type="line"/>
      <point x="285" y="650" type="line"/>
      <point x="427" y="650" type="line"/>
    </contour>
    <contour>
      <point x="299" y="447" type="curve" smooth="yes"/>
      <point x="215.394" y="447"/>
      <point x="165" y="393.598"/>
      <point x="165" y="305" type="curve" smooth="yes"/>
      <point x="165" y="265" type="line" smooth="yes"/>
      <point x="165" y="176.897"/>
      <point x="215.271" y="124"/>
      <point x="299" y="124" type="curve" smooth="yes"/>
      <point x="378.322" y="124"/>
      <point x="427" y="177.622"/>
      <point x="427" y="265" type="curve" smooth="yes"/>
      <point x="427" y="305" type="line" smooth="yes"/>
      <point x="427" y="392.667"/>
      <point x="378.024" y="447"/>
    </contour>
    <contour>
      <point x="90" y="0" type="line"/>
      <point x="510" y="0" type="line"/>
      <point x="510" y="-80" type="line"/>
      <point x="90" y="-80" type="line"/>
    </contour>
  </outline>
</glyph>
<glyph name="Euro" format="2">
  <advance width="600" height="975"/>
  <unicode hex="20AC"/>
  <outline>
    <contour>
      <point x="19" y="475" type="line"/>
      <point x="19" y="410" type="line"/>
      <point x="100" y="410" type="line"/>
      <point x="100" y="310" type="line"/>
      <point x="19" y="310" type="line"/>
      <point x="19" y="245" type="line"/>
      <point x="100" y="245" type="line"/>
      <point x="100" y="205" type="line" smooth="yes"/>
      <point x="100" y="74"/>
      <point x="185" y="-10"/>
      <point x="320" y="-10" type="curve" smooth="yes" name="ab01"/>
      <point x="444" y="-10"/>
      <point x="526" y="63"/>
      <point x="540" y="185" type="curve"/>
      <point x="450" y="185" type="line"/>
      <point x="442" y="113"/>
      <point x="393" y="70"/>
      <point x="320" y="70" type="curve" smooth="yes" name="sv01"/>
      <point x="239" y="70"/>
      <point x="190" y="121"/>
      <point x="190" y="205" type="curve" smooth="yes"/>
      <point x="190" y="245" type="line"/>
      <point x="355" y="245" type="line"/>
      <point x="355" y="310" type="line"/>
      <point x="190" y="310" type="line"/>
      <point x="190" y="410" type="line"/>
      <point x="355" y="410" type="line"/>
      <point x="355" y="475" type="line"/>
      <point x="190" y="475" type="line"/>
      <point x="190" y="515" type="line" smooth="yes" name="dh02"/>
      <point x="190" y="599"/>
      <point x="240" y="650"/>
      <point x="320" y="650" type="curve" smooth="yes" name="sv02"/>
      <point x="393" y="650"/>
      <point x="442" y="607"/>
      <point x="450" y="535" type="curve"/>
      <point x="540" y="535" type="line"/>
      <point x="526" y="657"/>
      <point x="444" y="730"/>
      <point x="320" y="730" type="curve" smooth="yes" name="at01"/>
      <point x="185" y="730"/>
      <point x="100" y="646"/>
      <point x="100" y="515" type="curve" smooth="yes" name="dh01"/>
      <point x="100" y="475" type="line"/>
    </contour>
  </outline>
</glyph>
<glyph name="uni20BD" format="2">
  <advance width="600"/>
  <unicode hex="20BD"/>
  <outline>
    <contour>
      <point x="110" y="720" type="line"/>
      <point x="333" y="720" type="line" smooth="yes"/>
      <point x="464" y="720"/>
      <point x="550" y="639"/>
      <point x="550" y="515" type="curve" smooth="yes"/>
      <point x="550" y="392"/>
      <point x="464" y="310"/>
      <point x="333" y="310" type="curve" smooth="yes"/>
      <point x="200" y="310" type="line"/>
      <point x="200" y="225" type="line"/>
      <point x="430" y="225" type="line"/>
      <point x="430" y="145" type="line"/>
      <point x="200" y="145" type="line"/>
      <point x="200" y="0" type="line"/>
      <point x="110" y="0" type="line"/>
      <point x="110" y="145" type="line"/>
      <point x="30" y="145" type="line"/>
      <point x="30" y="225" type="line"/>
      <point x="110" y="225" type="line"/>
      <point x="110" y="310" type="line"/>
      <point x="30" y="310" type="line"/>
      <point x="30" y="390" type="line"/>
      <point x="110" y="390" type="line"/>
    </contour>
    <contour>
      <point x="200" y="640" type="line"/>
      <point x="200" y="390" type="line"/>
      <point x="333" y="390" type="line" smooth="yes"/>
      <point x="409" y="390"/>
      <point x="457" y="439"/>
      <point x="457" y="515" type="curve" smooth="yes"/>
      <point x="457" y="591"/>
      <point x="409" y="640"/>
      <point x="333" y="640" type="curve" smooth="yes"/>
    </contour>
  </outline>
</glyph>
<glyph name="uni2116" format="2">
  <advance width="600"/>
  <unicode hex="2116"/>
  <outline>
    <contour>
      <point x="340" y="720" type="line"/>
      <point x="340" y="0" type="line"/>
      <point x="245" y="0" type="line"/>
      <point x="130" y="444" type="line" smooth="yes"/>
      <point x="114" y="504"/>
      <point x="93" y="631"/>
      <point x="93" y="631" type="curve"/>
      <point x="81" y="631" type="line"/>
      <point x="81" y="631"/>
      <point x="95" y="505"/>
      <point x="95" y="430" type="curve" smooth="yes"/>
      <point x="95" y="0" type="line"/>
      <point x="25" y="0" type="line"/>
      <point x="25" y="720" type="line"/>
      <point x="120" y="720" type="line"/>
      <point x="238" y="277" type="line" smooth="yes"/>
      <point x="251" y="229"/>
      <point x="274" y="90"/>
      <point x="274" y="90" type="curve"/>
      <point x="286" y="90" type="line"/>
      <point x="287" y="90"/>
      <point x="270" y="220"/>
      <point x="270" y="290" type="curve" smooth="yes"/>
      <point x="270" y="720" type="line"/>
    </contour>
    <contour>
      <point x="480" y="675" type="curve" smooth="yes"/>
      <point x="462" y="675"/>
      <point x="445" y="659"/>
      <point x="445" y="635" type="curve" smooth="yes"/>
      <point x="445" y="395" type="line" smooth="yes"/>
      <point x="445" y="365"/>
      <point x="462" y="355"/>
      <point x="480" y="355" type="curve" smooth="yes"/>
      <point x="498" y="355"/>
      <point x="515" y="365"/>
      <point x="515" y="395" type="curve" smooth="yes"/>
      <point x="515" y="635" type="line" smooth="yes"/>
      <point x="515" y="659"/>
      <point x="498" y="675"/>
    </contour>
    <contour>
      <point x="480" y="300" type="curve" smooth="yes"/>
      <point x="426" y="300"/>
      <point x="385" y="342"/>
      <point x="385" y="405" type="curve" smooth="yes"/>
      <point x="385" y="625" type="line" smooth="yes"/>
      <point x="385" y="688"/>
      <point x="426" y="730"/>
      <point x="480" y="730" type="curve" smooth="yes"/>
      <point x="534" y="730"/>
      <point x="575" y="688"/>
      <point x="575" y="625" type="curve" smooth="yes"/>
      <point x="575" y="405" type="line" smooth="yes"/>
      <point x="575" y="342"/>
      <point x="534" y="300"/>
    </contour>
  </outline>
</glyph>
<glyph name="estimated" format="2">
  <advance width="600" height="985"/>
  <unicode hex="212E"/>
  <outline>
    <contour>
      <point x="300" y="730" type="curve" smooth="yes"/>
      <point x="157" y="730"/>
      <point x="60" y="625"/>
      <point x="60" y="470" type="curve" smooth="yes"/>
      <point x="60" y="250" type="line" smooth="yes"/>
      <point x="60" y="95"/>
      <point x="157" y="-10"/>
      <point x="300" y="-10" type="curve" smooth="yes"/>
      <point x="404" y="-10"/>
      <point x="495" y="52"/>
      <point x="527" y="145" type="curve"/>
      <point x="477" y="145" type="line"/>
      <point x="450" y="79"/>
      <point x="379" y="35"/>
      <point x="300" y="35" type="curve" smooth="yes"/>
      <point x="198" y="35"/>
      <point x="160" y="100"/>
      <point x="160" y="100" type="curve"/>
      <point x="160" y="620" type="line"/>
      <point x="160" y="620"/>
      <point x="198" y="685"/>
      <point x="300" y="685" type="curve" smooth="yes"/>
      <point x="402" y="685"/>
      <point x="440" y="620"/>
      <point x="440" y="620" type="curve"/>
      <point x="440" y="401" type="line"/>
      <point x="447" y="409" type="line"/>
      <point x="130" y="409" type="line"/>
      <point x="130" y="359" type="line"/>
      <point x="540" y="359" type="line"/>
      <point x="540" y="470" type="line" smooth="yes"/>
      <point x="540" y="627"/>
      <point x="445" y="730"/>
    </contour>
  </outline>
</glyph>
<glyph name="universal" format="2">
  <advance width="600"/>
  <unicode hex="2200"/>
  <outline>
    <contour>
      <point x="360" y="0" type="line" name="at01"/>
      <point x="234" y="0" type="line"/>
      <point x="44" y="720" type="line" name="ab01"/>
      <point x="140" y="720" type="line"/>
      <point x="190" y="517" type="line" name="dv01"/>
      <point x="411" y="517" type="line"/>
      <point x="462" y="720" type="line" name="ab02"/>
      <point x="556" y="720" type="line"/>
    </contour>
    <contour>
      <point x="392" y="442" type="line"/>
      <point x="208" y="442" type="line" name="dv02"/>
      <point x="278" y="157" type="line" smooth="yes"/>
      <point x="292" y="101"/>
      <point x="297" y="60"/>
      <point x="297" y="60" type="curve"/>
      <point x="301" y="60" type="line"/>
      <point x="301" y="60"/>
      <point x="307.046" y="100.988"/>
      <point x="321" y="157" type="curve" smooth="yes"/>
    </contour>
  </outline>
</glyph>
<glyph name="partialdiff" format="2">
  <advance width="600" height="985"/>
  <unicode hex="2202"/>
  <outline>
    <contour>
      <point x="170" y="280" type="line" smooth="yes"/>
      <point x="170" y="369"/>
      <point x="219" y="424"/>
      <point x="300" y="424" type="curve" smooth="yes"/>
      <point x="380" y="424"/>
      <point x="430" y="369"/>
      <point x="430" y="281" type="curve" smooth="yes"/>
      <point x="430" y="200" type="line" smooth="yes"/>
      <point x="430" y="119"/>
      <point x="381" y="70"/>
      <point x="300" y="70" type="curve" smooth="yes"/>
      <point x="219" y="70"/>
      <point x="170" y="119"/>
      <point x="170" y="200" type="curve" smooth="yes"/>
    </contour>
    <contour>
      <point x="520" y="315" type="line" smooth="yes"/>
      <point x="520" y="427"/>
      <point x="484" y="523"/>
      <point x="417" y="590" type="curve" smooth="yes"/>
      <point x="287" y="720" type="line"/>
      <point x="180" y="720" type="line"/>
      <point x="322" y="577" type="line" smooth="yes"/>
      <point x="420" y="479"/>
      <point x="430" y="411"/>
      <point x="430" y="411" type="curve"/>
      <point x="415" y="411" type="line"/>
      <point x="415" y="411"/>
      <point x="391" y="500"/>
      <point x="270" y="500" type="curve" smooth="yes"/>
      <point x="150" y="500"/>
      <point x="80" y="432"/>
      <point x="80" y="281" type="curve" smooth="yes"/>
      <point x="80" y="200" type="line" smooth="yes"/>
      <point x="80" y="70"/>
      <point x="165" y="-10"/>
      <point x="300" y="-10" type="curve" smooth="yes"/>
      <point x="437" y="-10"/>
      <point x="520" y="70"/>
      <point x="520" y="200" type="curve" smooth="yes"/>
    </contour>
  </outline>
</glyph>
<glyph name="element" format="2">
  <advance width="600"/>
  <unicode hex="2208"/>
  <outline>
    <contour>
      <point x="570" y="570" type="line" name="dh02"/>
      <point x="265" y="570" type="line" smooth="yes"/>
      <point x="186" y="570"/>
      <point x="125" y="504"/>
      <point x="125" y="430" type="curve" smooth="yes"/>
      <point x="125" y="400" type="line"/>
      <point x="570" y="400" type="line" name="sv04"/>
      <point x="570" y="320" type="line" name="dv03"/>
      <point x="125" y="320" type="line"/>
      <point x="125" y="290" type="line" smooth="yes" name="sv03"/>
      <point x="125" y="216"/>
      <point x="186" y="150"/>
      <point x="265" y="150" type="curve" smooth="yes"/>
      <point x="570" y="150" type="line" name="dh03"/>
      <point x="570" y="70" type="line" name="dh04"/>
      <point x="265" y="70" type="line" smooth="yes"/>
      <point x="140" y="70"/>
      <point x="35" y="164"/>
      <point x="35" y="288" type="curve" smooth="yes" name="sv01"/>
      <point x="35" y="432" type="line" smooth="yes" name="dv01"/>
      <point x="35" y="556"/>
      <point x="140" y="650"/>
      <point x="265" y="650" type="curve" smooth="yes"/>
      <point x="570" y="650" type="line" name="dh01"/>
    </contour>
  </outline>
</glyph>
<glyph name="notelement" format="2">
  <advance width="600"/>
  <unicode hex="2209"/>
  <outline>
    <contour>
      <point x="457" y="780" type="line"/>
      <point x="518" y="780" type="line"/>
      <point x="213" y="-60" type="line"/>
      <point x="152" y="-60" type="line"/>
    </contour>
    <contour>
      <point x="570" y="650" type="line" name="dh01"/>
      <point x="570" y="570" type="line" name="dh02"/>
      <point x="265" y="570" type="line" smooth="yes"/>
      <point x="186" y="570"/>
      <point x="125" y="504"/>
      <point x="125" y="430" type="curve" smooth="yes"/>
      <point x="125" y="400" type="line"/>
      <point x="570" y="400" type="line" name="sv04"/>
      <point x="570" y="320" type="line" name="dv03"/>
      <point x="125" y="320" type="line"/>
      <point x="125" y="290" type="line" smooth="yes" name="sv03"/>
      <point x="125" y="216"/>
      <point x="186" y="150"/>
      <point x="265" y="150" type="curve" smooth="yes"/>
      <point x="570" y="150" type="line" name="dh03"/>
      <point x="570" y="70" type="line" name="dh04"/>
      <point x="265" y="70" type="line" smooth="yes"/>
      <point x="140" y="70"/>
      <point x="35" y="164"/>
      <point x="35" y="288" type="curve" smooth="yes" name="sv01"/>
      <point x="35" y="432" type="line" smooth="yes" name="dv01"/>
      <point x="35" y="556"/>
      <point x="140" y="650"/>
      <point x="265" y="650" type="curve" smooth="yes"/>
    </contour>
  </outline>
</glyph>
<glyph name="uni220C" format="2">
  <advance width="600"/>
  <unicode hex="220C"/>
  <outline>
    <contour>
      <point x="387" y="780" type="line"/>
      <point x="448" y="780" type="line"/>
      <point x="143" y="-60" type="line"/>
      <point x="82" y="-60" type="line"/>
    </contour>
    <contour>
      <point x="30" y="650" type="line" name="dh01"/>
      <point x="335" y="650" type="line" smooth="yes"/>
      <point x="460" y="650"/>
      <point x="565" y="556"/>
      <point x="565" y="432" type="curve" smooth="yes" name="dv01"/>
      <point x="565" y="288" type="line" smooth="yes" name="sv01"/>
      <point x="565" y="164"/>
      <point x="460" y="70"/>
      <point x="335" y="70" type="curve" smooth="yes"/>
      <point x="30" y="70" type="line" name="dh04"/>
      <point x="30" y="150" type="line" name="dh03"/>
      <point x="335" y="150" type="line" smooth="yes"/>
      <point x="414" y="150"/>
      <point x="475" y="216"/>
      <point x="475" y="290" type="curve" smooth="yes" name="sv03"/>
      <point x="475" y="320" type="line"/>
      <point x="30" y="320" type="line" name="dv03"/>
      <point x="30" y="400" type="line" name="sv04"/>
      <point x="475" y="400" type="line"/>
      <point x="475" y="430" type="line" smooth="yes"/>
      <point x="475" y="504"/>
      <point x="414" y="570"/>
      <point x="335" y="570" type="curve" smooth="yes"/>
      <point x="30" y="570" type="line" name="dh02"/>
    </contour>
  </outline>
</glyph>
<glyph name="product" format="2">
  <advance width="600" height="985"/>
  <unicode hex="220F"/>
  <outline>
    <contour>
      <point x="40" y="720" type="line" name="at01"/>
      <point x="40" y="638" type="line"/>
      <point x="100" y="638" type="line"/>
      <point x="100" y="-170" type="line" name="ab01"/>
      <point x="190" y="-170" type="line"/>
      <point x="190" y="638" type="line" name="sv01"/>
      <point x="410" y="638" type="line" name="ah01"/>
      <point x="410" y="-170" type="line" name="ab02"/>
      <point x="500" y="-170" type="line"/>
      <point x="500" y="638" type="line"/>
      <point x="560" y="638" type="line"/>
      <point x="560" y="720" type="line" name="sh01"/>
    </contour>
  </outline>
</glyph>
<glyph name="uni2210" format="2">
  <advance width="600"/>
  <unicode hex="2210"/>
  <outline>
    <contour>
      <point x="40" y="-170" type="line" name="at01"/>
      <point x="560" y="-170" type="line" name="sh01"/>
      <point x="560" y="-88" type="line"/>
      <point x="500" y="-88" type="line"/>
      <point x="500" y="720" type="line"/>
      <point x="410" y="720" type="line" name="ab02"/>
      <point x="410" y="-88" type="line" name="ah01"/>
      <point x="190" y="-88" type="line" name="sv01"/>
      <point x="190" y="720" type="line"/>
      <point x="100" y="720" type="line" name="ab01"/>
      <point x="100" y="-88" type="line"/>
      <point x="40" y="-88" type="line"/>
    </contour>
  </outline>
</glyph>
<glyph name="summation" format="2">
  <advance width="600" height="985"/>
  <unicode hex="2211"/>
  <outline>
    <contour>
      <point x="55" y="-88" type="line"/>
      <point x="373" y="274" type="line"/>
      <point x="55" y="638" type="line"/>
      <point x="55" y="720" type="line"/>
      <point x="540" y="720" type="line"/>
      <point x="540" y="640" type="line"/>
      <point x="237" y="640" type="line"/>
      <point x="165" y="643" type="line"/>
      <point x="165" y="641" type="line"/>
      <point x="439" y="327" type="line"/>
      <point x="439" y="224" type="line"/>
      <point x="159" y="-91" type="line"/>
      <point x="159" y="-93" type="line"/>
      <point x="231" y="-90" type="line"/>
      <point x="540" y="-90" type="line"/>
      <point x="540" y="-170" type="line"/>
      <point x="55" y="-170" type="line"/>
    </contour>
  </outline>
</glyph>
<glyph name="uni2223" format="2">
  <advance width="600"/>
  <unicode hex="2223"/>
  <outline>
    <contour>
      <point x="345" y="720" type="line"/>
      <point x="345" y="0" type="line" name="sv02"/>
      <point x="255" y="0" type="line" name="sv04"/>
      <point x="255" y="720" type="line" name="sv05"/>
    </contour>
  </outline>
</glyph>
<glyph name="uni2225" format="2">
  <advance width="600"/>
  <unicode hex="2225"/>
  <outline>
    <contour>
      <point x="245" y="720" type="line"/>
      <point x="245" y="0" type="line" name="sv02"/>
      <point x="155" y="0" type="line" name="sv04"/>
      <point x="155" y="720" type="line" name="sv05"/>
    </contour>
    <contour>
      <point x="445" y="720" type="line"/>
      <point x="445" y="0" type="line" name="sv02"/>
      <point x="355" y="0" type="line" name="sv04"/>
      <point x="355" y="720" type="line" name="sv05"/>
    </contour>
  </outline>
</glyph>
<glyph name="uni2249" format="2">
  <advance width="600"/>
  <unicode hex="2249"/>
  <outline>
    <component base="approxequal" yOffset="30"/>
    <contour>
      <point x="424" y="780" type="line"/>
      <point x="485" y="780" type="line"/>
      <point x="176" y="-60" type="line"/>
      <point x="115" y="-60" type="line"/>
    </contour>
  </outline>
</glyph>
<glyph name="notequal" format="2">
  <advance width="600" height="985"/>
  <unicode hex="2260"/>
  <outline>
    <component base="equal"/>
    <contour>
      <point x="410" y="665" type="line"/>
      <point x="500" y="665" type="line"/>
      <point x="190" y="0" type="line"/>
      <point x="100" y="0" type="line"/>
    </contour>
  </outline>
</glyph>
<glyph name="greaterequal" format="2">
  <advance width="600" height="985"/>
  <unicode hex="2265"/>
  <outline>
    <component base="greater" yOffset="125"/>
    <contour>
      <point x="85" y="80" type="line"/>
      <point x="515" y="80" type="line"/>
      <point x="515" y="0" type="line"/>
      <point x="85" y="0" type="line"/>
    </contour>
  </outline>
</glyph>
<glyph name="propersubset" format="2">
  <advance width="600"/>
  <unicode hex="2282"/>
  <outline>
    <contour>
      <point x="570" y="600" type="line" name="dh01"/>
      <point x="570" y="518" type="line" name="dh02"/>
      <point x="265" y="518" type="line" smooth="yes"/>
      <point x="176.161" y="518"/>
      <point x="125" y="467.57"/>
      <point x="125" y="380" type="curve" smooth="yes"/>
      <point x="125" y="340" type="line" smooth="yes" name="sv03"/>
      <point x="125" y="252.43"/>
      <point x="176.161" y="202"/>
      <point x="265" y="202" type="curve" smooth="yes"/>
      <point x="570" y="202" type="line" name="dh03"/>
      <point x="570" y="120" type="line" name="dh04"/>
      <point x="265" y="120" type="line" smooth="yes"/>
      <point x="127" y="120"/>
      <point x="35" y="207.2"/>
      <point x="35" y="338" type="curve" smooth="yes" name="sv01"/>
      <point x="35" y="382" type="line" smooth="yes" name="dv01"/>
      <point x="35" y="512.8"/>
      <point x="127" y="600"/>
      <point x="265" y="600" type="curve" smooth="yes"/>
    </contour>
  </outline>
</glyph>
<glyph name="notsubset" format="2">
  <advance width="600"/>
  <unicode hex="2284"/>
  <outline>
    <component base="propersubset"/>
    <contour>
      <point x="457" y="780" type="line"/>
      <point x="518" y="780" type="line"/>
      <point x="213" y="-60" type="line"/>
      <point x="152" y="-60" type="line"/>
    </contour>
  </outline>
</glyph>
<glyph name="uni2285" format="2">
  <advance width="600"/>
  <unicode hex="2285"/>
  <outline>
    <component base="propersuperset"/>
    <contour>
      <point x="387" y="780" type="line"/>
      <point x="448" y="780" type="line"/>
      <point x="143" y="-60" type="line"/>
      <point x="82" y="-60" type="line"/>
    </contour>
  </outline>
</glyph>
<glyph name="reflexsubset" format="2">
  <advance width="600"/>
  <unicode hex="2286"/>
  <outline>
    <component base="propersubset" yOffset="80"/>
    <contour>
      <point x="49.9766" y="0" type="line"/>
      <point x="570" y="0" type="line"/>
      <point x="570" y="81.5649" type="line"/>
      <point x="49.9766" y="81.5649" type="line"/>
    </contour>
  </outline>
</glyph>
<glyph name="reflexsuperset" format="2">
  <advance width="600"/>
  <unicode hex="2287"/>
  <outline>
    <component base="propersuperset" yOffset="80"/>
    <contour>
      <point x="29.9766" y="0" type="line"/>
      <point x="550" y="0" type="line"/>
      <point x="550" y="81.5649" type="line"/>
      <point x="29.9766" y="81.5649" type="line"/>
    </contour>
  </outline>
</glyph>
<glyph name="uni2374" format="2">
  <advance width="600"/>
  <unicode hex="2374"/>
  <outline>
    <contour>
      <point x="88" y="345" type="line" smooth="yes"/>
      <point x="88" y="477"/>
      <point x="172" y="560"/>
      <point x="304" y="560" type="curve" smooth="yes" name="at01"/>
      <point x="435" y="560"/>
      <point x="520" y="475"/>
      <point x="520" y="345" type="curve" smooth="yes"/>
      <point x="520" y="205" type="line" smooth="yes" name="sh04"/>
      <point x="520" y="72"/>
      <point x="446" y="-10"/>
      <point x="335" y="-10" type="curve" smooth="yes" name="ab02"/>
      <point x="254" y="-10"/>
      <point x="198" y="29"/>
      <point x="181" y="95" type="curve" name="sh05"/>
      <point x="173" y="95" type="line" name="sh06"/>
      <point x="173" y="95"/>
      <point x="178" y="35"/>
      <point x="178" y="0" type="curve" smooth="yes"/>
      <point x="178" y="-170" type="line" name="ab01"/>
      <point x="88" y="-170" type="line" name="sh01"/>
    </contour>
    <contour>
      <point x="178" y="345" type="curve" smooth="yes"/>
      <point x="178" y="205" type="line" smooth="yes" name="sh07"/>
      <point x="178" y="122"/>
      <point x="227" y="68"/>
      <point x="301" y="68" type="curve" smooth="yes" name="sv01"/>
      <point x="381" y="68"/>
      <point x="430" y="121"/>
      <point x="430" y="205" type="curve" smooth="yes" name="ah01"/>
      <point x="430" y="345" type="line" smooth="yes"/>
      <point x="430" y="429"/>
      <point x="381" y="482"/>
      <point x="304" y="482" type="curve" smooth="yes" name="sv02"/>
      <point x="227" y="482"/>
      <point x="178" y="429"/>
    </contour>
  </outline>
</glyph>
<glyph name="SF110000" format="2">
  <advance width="600"/>
  <unicode hex="2502"/>
  <outline>
    <contour>
      <point x="250" y="1010" type="line"/>
      <point x="350" y="1010" type="line"/>
      <point x="350" y="-310" type="line"/>
      <point x="250" y="-310" type="line"/>
    </contour>
  </outline>
</glyph>
<glyph name="uni2517" format="2">
  <advance width="600"/>
  <unicode hex="2517"/>
  <outline>
    <contour>
      <point x="200" y="260" type="line"/>
      <point x="200" y="1011" type="line"/>
      <point x="400" y="1011" type="line"/>
      <point x="400" y="460" type="line"/>
      <point x="620" y="460" type="line"/>
      <point x="620" y="260" type="line"/>
    </contour>
  </outline>
</glyph>
<glyph name="SF080000" format="2">
  <advance width="600"/>
  <unicode hex="251C"/>
  <outline>
    <contour>
      <point x="350" y="310" type="line"/>
      <point x="350" y="-310" type="line"/>
      <point x="250" y="-310" type="line"/>
      <point x="250" y="1010" type="line"/>
      <point x="350" y="1010" type="line"/>
      <point x="350" y="410" type="line"/>
      <point x="620" y="410" type="line"/>
      <point x="620" y="310" type="line"/>
    </contour>
  </outline>
</glyph>
<glyph name="SF060000" format="2">
  <advance width="600"/>
  <unicode hex="252C"/>
  <outline>
    <contour>
      <point x="-20" y="410" type="line"/>
      <point x="620" y="410" type="line"/>
      <point x="620" y="310" type="line"/>
      <point x="350" y="310" type="line"/>
      <point x="350" y="-310" type="line"/>
      <point x="250" y="-310" type="line"/>
      <point x="250" y="310" type="line"/>
      <point x="-20" y="310" type="line"/>
    </contour>
  </outline>
</glyph>
<glyph name="SF430000" format="2">
  <advance width="600"/>
  <unicode hex="2550"/>
  <outline>
    <contour>
      <point x="-20" y="510" type="line"/>
      <point x="620" y="510" type="line"/>
      <point x="620" y="410" type="line"/>
      <point x="-20" y="410" type="line"/>
    </contour>
    <contour>
      <point x="-20" y="310" type="line"/>
      <point x="620" y="310" type="line"/>
      <point x="620" y="210" type="line"/>
      <point x="-20" y="210" type="line"/>
    </contour>
  </outline>
</glyph>
<glyph name="SF520000" format="2">
  <advance width="600"/>
  <unicode hex="2553"/>
  <outline>
    <contour>
      <point x="450" y="310" type="line"/>
      <point x="450" y="-310" type="line"/>
      <point x="350" y="-310" type="line"/>
      <point x="350" y="310" type="line"/>
      <point x="250" y="310" type="line"/>
      <point x="250" y="-310" type="line"/>
      <point x="150" y="-310" type="line"/>
      <point x="150" y="410" type="line"/>
      <point x="620" y="410" type="line"/>
      <point x="620" y="310" type="line"/>
    </contour>
  </outline>
</glyph>
<glyph name="SF220000" format="2">
  <advance width="600"/>
  <unicode hex="2555"/>
  <outline>
    <contour>
      <point x="250" y="210" type="line"/>
      <point x="-20" y="210" type="line"/>
      <point x="-20" y="310" type="line"/>
      <point x="250" y="310" type="line"/>
      <point x="250" y="410" type="line"/>
      <point x="-20" y="410" type="line"/>
      <point x="-20" y="510" type="line"/>
      <point x="350" y="510" type="line"/>
      <point x="350" y="-310" type="line"/>
      <point x="250" y="-310" type="line"/>
    </contour>
  </outline>
</glyph>
